/* XPM */
static char * perso_right1_xpm[] = {
"50 50 534 2",
"  	c #66B83A",
". 	c #6AB93A",
"+ 	c #9ADC5C",
"@ 	c #A3E25D",
"# 	c #7BC644",
"$ 	c #6AB53B",
"% 	c #6BB541",
"& 	c #60A63A",
"* 	c #57A431",
"= 	c #5AA42D",
"- 	c #5DAB2E",
"; 	c #5EAB33",
"> 	c #5FB032",
", 	c #4E9926",
"' 	c #51962C",
") 	c #519A26",
"! 	c #64B53A",
"~ 	c #5FB038",
"{ 	c #63B234",
"] 	c #62AD33",
"^ 	c #5AA432",
"/ 	c #61A334",
"( 	c #529B2B",
"_ 	c #468A2A",
": 	c #4B9325",
"< 	c #61AD2E",
"[ 	c #4E992A",
"} 	c #529632",
"| 	c #498A2A",
"1 	c #9CE161",
"2 	c #9EE15B",
"3 	c #7BC548",
"4 	c #64AD39",
"5 	c #519625",
"6 	c #56A32C",
"7 	c #468B25",
"8 	c #479021",
"9 	c #63B32D",
"0 	c #6CBB36",
"a 	c #74C23D",
"b 	c #7CC943",
"c 	c #85CB4C",
"d 	c #98D954",
"e 	c #81C64D",
"f 	c #69A83E",
"g 	c #92D45B",
"h 	c #4D942B",
"i 	c #498B25",
"j 	c #69B536",
"k 	c #6DBC40",
"l 	c #8ACC4E",
"m 	c #5A9D32",
"n 	c #5FB02F",
"o 	c #7CC93E",
"p 	c #A3E362",
"q 	c #89C754",
"r 	c #6AA742",
"s 	c #98D761",
"t 	c #4B872B",
"u 	c #76C343",
"v 	c #7BC63F",
"w 	c #74BC42",
"x 	c #70B73A",
"y 	c #8BCD51",
"z 	c #8BD24E",
"A 	c #7EC94A",
"B 	c #8DD252",
"C 	c #A1D37E",
"D 	c #111111",
"E 	c #151211",
"F 	c #191413",
"G 	c #171312",
"H 	c #100F0F",
"I 	c #719A5F",
"J 	c #6FBA44",
"K 	c #92D255",
"L 	c #72BC3C",
"M 	c #5BA539",
"N 	c #88B871",
"O 	c #040303",
"P 	c #473029",
"Q 	c #5F4237",
"R 	c #563C32",
"S 	c #1B100D",
"T 	c #6D9460",
"U 	c #6EBA42",
"V 	c #559C31",
"W 	c #7DAF6A",
"X 	c #040403",
"Y 	c #5B3F35",
"Z 	c #795548",
"` 	c #6E4D41",
" .	c #251813",
"..	c #6F945F",
"+.	c #73BD40",
"@.	c #70BC37",
"#.	c #74C83F",
"$.	c #5A9C2E",
"%.	c #7FAD6D",
"&.	c #5C3F36",
"*.	c #6E4D42",
"=.	c #6F935F",
"-.	c #70BC3F",
";.	c #92CE59",
">.	c #7AA76B",
",.	c #815D50",
"'.	c #846053",
").	c #78564B",
"!.	c #291C17",
"~.	c #6D915F",
"{.	c #6AB942",
"].	c #478D1F",
"^.	c #85CB51",
"/.	c #77A169",
"(.	c #7F5B4E",
"_.	c #CB9F91",
":.	c #E2B4A5",
"<.	c #C6A58E",
"[.	c #4D3C36",
"}.	c #6E9461",
"|.	c #6BB944",
"1.	c #65B936",
"2.	c #759F68",
"3.	c #825D51",
"4.	c #E1B3A4",
"5.	c #FFCCBC",
"6.	c #FECBBB",
"7.	c #F6C5B5",
"8.	c #D6B19D",
"9.	c #54423B",
"0.	c #709263",
"a.	c #6CB946",
"b.	c #7BA76B",
"c.	c #E2B3A4",
"d.	c #F1C1B2",
"e.	c #92746A",
"f.	c #6D564E",
"g.	c #251C19",
"h.	c #6C8F5E",
"i.	c #65AD41",
"j.	c #80AD6E",
"k.	c #856154",
"l.	c #926D60",
"m.	c #E4B5A6",
"n.	c #EEBFB0",
"o.	c #624D46",
"p.	c #000000",
"q.	c #69875C",
"r.	c #5EA53C",
"s.	c #4FA02B",
"t.	c #7FAD6C",
"u.	c #5C3F35",
"v.	c #7C584B",
"w.	c #CEA293",
"x.	c #EDBEAE",
"y.	c #FAC8B8",
"z.	c #61A63C",
"A.	c #040404",
"B.	c #6F5248",
"C.	c #946F62",
"D.	c #E1B2A3",
"E.	c #F0C0B1",
"F.	c #82675E",
"G.	c #57443E",
"H.	c #1C1411",
"I.	c #67865D",
"J.	c #5FAD3C",
"K.	c #81B56E",
"L.	c #050405",
"M.	c #B29B81",
"N.	c #F2C1B2",
"O.	c #FBC8B9",
"P.	c #FDCABB",
"Q.	c #D6AE9E",
"R.	c #51423A",
"S.	c #6B8A5F",
"T.	c #5BA430",
"U.	c #75B443",
"V.	c #85CB54",
"W.	c #89CB58",
"X.	c #75AC54",
"Y.	c #5D924A",
"Z.	c #5C9148",
"`.	c #68A84C",
" +	c #76B853",
".+	c #72BC50",
"++	c #73BB4D",
"@+	c #7FB06D",
"#+	c #AC9A7C",
"$+	c #EBBDAE",
"%+	c #CEAD97",
"&+	c #514639",
"*+	c #66865B",
"=+	c #71AB58",
"-+	c #69A94E",
";+	c #649D4F",
">+	c #5F8F4C",
",+	c #5D9A41",
"'+	c #73B750",
")+	c #5A7B4A",
"!+	c #506B43",
"~+	c #485B42",
"{+	c #455242",
"]+	c #455142",
"^+	c #465642",
"/+	c #485B43",
"(+	c #4A5F42",
"_+	c #4C6442",
":+	c #364C2D",
"<+	c #342823",
"[+	c #473631",
"}+	c #463631",
"|+	c #3F302C",
"1+	c #0F0A08",
"2+	c #191A1A",
"3+	c #45553F",
"4+	c #475543",
"5+	c #465542",
"6+	c #455841",
"7+	c #465E3F",
"8+	c #799C6A",
"9+	c #7ABC46",
"0+	c #73BB4C",
"a+	c #2F4029",
"b+	c #291F1C",
"c+	c #6C554D",
"d+	c #6D554E",
"e+	c #6C5A4D",
"f+	c #4A3934",
"g+	c #000101",
"h+	c #052D4D",
"i+	c #083D67",
"j+	c #244065",
"k+	c #635252",
"l+	c #5A4741",
"m+	c #0C0806",
"n+	c #7AA56A",
"o+	c #6EBA4B",
"p+	c #2A3429",
"q+	c #68524B",
"r+	c #D6BE9C",
"s+	c #F2C4B2",
"t+	c #F4C4B4",
"u+	c #F3C4B4",
"v+	c #F3C3B3",
"w+	c #F4C5B4",
"x+	c #AB897E",
"y+	c #040302",
"z+	c #166EB3",
"A+	c #2090EA",
"B+	c #5C98E4",
"C+	c #E1BDBE",
"D+	c #F5C4B5",
"E+	c #CEA598",
"F+	c #281F1B",
"G+	c #79A06C",
"H+	c #72B749",
"I+	c #283028",
"J+	c #6C554E",
"K+	c #FBCBBA",
"L+	c #FFCDBD",
"M+	c #B28E82",
"N+	c #1773BB",
"O+	c #2196F3",
"P+	c #5F9DED",
"Q+	c #EAC5C5",
"R+	c #D6AC9E",
"S+	c #2A201D",
"T+	c #7CA46E",
"U+	c #68AE44",
"V+	c #2A3428",
"W+	c #6D554F",
"X+	c #EDC7AE",
"Y+	c #FDCBBA",
"Z+	c #FCCBBA",
"`+	c #FCCCBB",
" @	c #B28E83",
".@	c #80A770",
"+@	c #69AE46",
"@@	c #2E3F29",
"#@	c #5C4E42",
"$@	c #AEAF7B",
"%@	c #B5B180",
"&@	c #B5B181",
"*@	c #B2AB7E",
"=@	c #B1A67F",
"-@	c #B4AB80",
";@	c #96896B",
">@	c #030302",
",@	c #2195F1",
"'@	c #1C86DB",
")@	c #1C83D5",
"!@	c #2092ED",
"~@	c #6AAF4B",
"{@	c #2D4424",
"]@	c #000102",
"^@	c #2091EB",
"/@	c #0B4879",
"(@	c #032440",
"_@	c #1D86DA",
":@	c #609EEE",
"<@	c #EBC6C6",
"[@	c #D7AC9F",
"}@	c #7FA66F",
"|@	c #77BD48",
"1@	c #88B86F",
"2@	c #84B46C",
"3@	c #7DAD6C",
"4@	c #79A46A",
"5@	c #719167",
"6@	c #719068",
"7@	c #789B69",
"8@	c #6C9359",
"9@	c #010202",
"0@	c #2093EE",
"a@	c #166DB2",
"b@	c #115C98",
"c@	c #166CB1",
"d@	c #4879B7",
"e@	c #B59797",
"f@	c #C59D91",
"g@	c #A28677",
"h@	c #1E1613",
"i@	c #7BA26C",
"j@	c #4E9A32",
"k@	c #87B86E",
"l@	c #030404",
"m@	c #2197F4",
"n@	c #1F8FE9",
"o@	c #083C65",
"p@	c #79A269",
"q@	c #166EB4",
"r@	c #03213C",
"s@	c #40523B",
"t@	c #73926A",
"u@	c #7EAB71",
"v@	c #7EAD70",
"w@	c #80AE6E",
"x@	c #7DA96D",
"y@	c #7BA56B",
"z@	c #7FB269",
"A@	c #8DC172",
"B@	c #2197F5",
"C@	c #1F8DE5",
"D@	c #07375E",
"E@	c #608057",
"F@	c #67B33D",
"G@	c #8DC171",
"H@	c #1A74BA",
"I@	c #1E8CE3",
"J@	c #0A395D",
"K@	c #628456",
"L@	c #6FB84F",
"M@	c #72BA48",
"N@	c #2D7CB4",
"O@	c #1F8CE4",
"P@	c #07375D",
"Q@	c #618456",
"R@	c #81C944",
"S@	c #98D75D",
"T@	c #83B56E",
"U@	c #030304",
"V@	c #073B64",
"W@	c #0D4F84",
"X@	c #0C497B",
"Y@	c #02192F",
"Z@	c #5E7D54",
"`@	c #68AE47",
" #	c #4F9733",
".#	c #7EAF6E",
"+#	c #030303",
"@#	c #5E7A52",
"##	c #64A742",
"$#	c #2B3B7A",
"%#	c #37469E",
"&#	c #1D265C",
"*#	c #04071B",
"=#	c #2E3C88",
"-#	c #3847A1",
";#	c #344495",
">#	c #10163B",
",#	c #2A3C24",
"'#	c #5E7F52",
")#	c #759C66",
"!#	c #5CA533",
"~#	c #5BA435",
"{#	c #5FAB36",
"]#	c #7EAF6B",
"^#	c #040405",
"/#	c #2F3D8B",
"(#	c #3E50B2",
"_#	c #222D6A",
":#	c #090D27",
"<#	c #324295",
"[#	c #3D4EB0",
"}#	c #3F51B4",
"|#	c #3F51B5",
"1#	c #3B4CAA",
"2#	c #151D48",
"3#	c #030310",
"4#	c #67895B",
"5#	c #61A047",
"6#	c #78AB68",
"7#	c #5D8151",
"8#	c #47643C",
"9#	c #010102",
"0#	c #2F3D8A",
"a#	c #3748A1",
"b#	c #212B66",
"c#	c #182050",
"d#	c #3848A3",
"e#	c #3E50B3",
"f#	c #394BA7",
"g#	c #334397",
"h#	c #0D1336",
"i#	c #2C3827",
"j#	c #55734C",
"k#	c #729465",
"l#	c #6BB93C",
"m#	c #64B237",
"n#	c #60A743",
"o#	c #7BA76D",
"p#	c #03061A",
"q#	c #090E28",
"r#	c #303E8D",
"s#	c #3D4FB0",
"t#	c #1F2860",
"u#	c #0A0F2D",
"v#	c #334296",
"w#	c #3B4CAB",
"x#	c #394AA6",
"y#	c #151D47",
"z#	c #060A22",
"A#	c #000002",
"B#	c #65865B",
"C#	c #78B856",
"D#	c #7EC74B",
"E#	c #8DC56F",
"F#	c #59794C",
"G#	c #435F39",
"H#	c #2B3882",
"I#	c #3E4FB1",
"J#	c #010209",
"K#	c #0B1132",
"L#	c #161E4D",
"M#	c #3849A4",
"N#	c #3C4DAC",
"O#	c #34449B",
"P#	c #0D1235",
"Q#	c #293425",
"R#	c #577849",
"S#	c #86B56D",
"T#	c #9DCB79",
"U#	c #0A0A0A",
"V#	c #2E3B89",
"W#	c #3848A2",
"X#	c #1B2458",
"Y#	c #1A2217",
"Z#	c #58774D",
"`#	c #607F5D",
" $	c #465D94",
".$	c #3A4BA8",
"+$	c #1A2457",
"@$	c #0F163C",
"#$	c #000009",
"$$	c #80AC68",
"%$	c #7CC646",
"&$	c #99CF78",
"*$	c #10180D",
"=$	c #253071",
"-$	c #0C1234",
";$	c #040618",
">$	c #4C6840",
",$	c #7BB363",
"'$	c #70B851",
")$	c #688B63",
"!$	c #17204F",
"~$	c #3A4AA7",
"{$	c #3E50B4",
"]$	c #3D4EAE",
"^$	c #344397",
"/$	c #090E2A",
"($	c #83AD69",
"_$	c #94C975",
":$	c #121A0E",
"<$	c #3A4BA9",
"[$	c #36469F",
"}$	c #171D12",
"|$	c #688B56",
"1$	c #77A266",
"2$	c #7ABD59",
"3$	c #6B905E",
"4$	c #0C1335",
"5$	c #324194",
"6$	c #3747A2",
"7$	c #2F3E8D",
"8$	c #080C27",
"9$	c #80AE68",
"0$	c #89BD6E",
"a$	c #13190E",
"b$	c #273377",
"c$	c #0A102E",
"d$	c #030517",
"e$	c #526D39",
"f$	c #91C96C",
"g$	c #7ECA48",
"h$	c #73BD46",
"i$	c #6A935C",
"j$	c #090D2A",
"k$	c #0A102F",
"l$	c #080D28",
"m$	c #010105",
"n$	c #8AB871",
"o$	c #0C0C0C",
"p$	c #263274",
"q$	c #354996",
"r$	c #1E285F",
"s$	c #82A761",
"t$	c #95BD71",
"u$	c #8DCB62",
"v$	c #72BD45",
"w$	c #6E985F",
"x$	c #354B2C",
"y$	c #80AC66",
"z$	c #8DBD6F",
"A$	c #192411",
"B$	c #070B23",
"C$	c #020412",
"D$	c #2D3F1D",
"E$	c #A1D176",
"F$	c #75BB56",
"G$	c #5F8450",
"H$	c #75C841",
"I$	c #96DA59",
"  . + @ @ # $ % & * = = = = - ; > ; , ' ) ! ; ~ = * = .     { ] ] ^ ^ ^ / ] ] / = = ( _ _ : ! ] { $ ",
"    + @ @ # $ $ ] = * = = = < { > ; [ } ( { { ] = = =       ] ] ] ^ = = < ] < / = = * _ _ | ] - { % ",
"%   1 2 @ 3 $ . ] = = = = = / 4 { ; , 5 ' 4 4 4 6 = = $     { - < = ^ = < = < - = = ( 7 _ 8 4 9 > . ",
"    . 0 0 a # b . ! $ c + d e 8 _ f + + g h i : [ ) , { j   a # 3 k . j l + 1 l ] ; ; = m ^ ] { n   ",
"%   ~ ~ n a o b .   . l @ p q | _ r @ @ s | i t [ [ , ! ! { u v b w . x y @ p z ] ; - = = ; ] < {   ",
"$ . 4 ~ > # b A k   . B @ @ q t _ r C D E F F F F F F F F F F G H I J $ y p p K { { / = = ^ ] { ] % ",
"# u { ~ { ^ ^ ^ ; ; ^ $ L L $ M * ~ N O P Q Q Q Q Q Q Q Q Q Q R S T U L x % x ] ' ' ' h | [ ^ = - # ",
"b b { 9 4 V ( ( ( ^ = / ] ] ] ; ; { W X Y Z Z Z Z Z Z Z Z Z Z `  ...+.@.] = = ' i t i i i | ^ = = #.",
"b b j { ] $.) , 6 = = - ; ] ] < < ] %.X &.Z Z Z Z Z Z Z Z Z Z *. .=.-.0 { = * ' _ _ 7 _ _ | m ^ = b ",
"& & = = = = - = ] { { ! { ! w ;.K A >.X &.Z Z Z ,.'.'.'.'.'.'.).!.~.{.  { - ; ^ ^ ^ V V V ( ( ( ( ^ ",
"_ ].$.= = < < ] j $       ! ^.@ @ B /.X &.Z Z (._.:.:.:.:.:.:.<.[.}.|.  { > n ; { { ; = * ^ [ ( ' | ",
"| 7 = = = - < < ! .   1.~   A @ @ K 2.X &.Z Z 3.4.5.5.5.5.6.7.8.9.0.a.  j > > ; { n n 6 = ^ [ 5 ' _ ",
"4 4 = = ^ { j j { 4 ; { 1.. u l l b b.X &.Z Z 3.c.5.5.5.5.d.e.f.g.h.i.; ~ ! { ; * 6 6 - - ; = = = ] ",
"o b = = = j 0 . ] 6 = { 0 0 0 . 0 j j.X &.Z k.l.m.5.5.5.5.n.o.p.p.q.r.* ~ ! { ; , , s.] < - > > > o ",
"o b - ^ ^ j 0 . 4 * 6 { 0 @.0 @.@.0 t.X u.v.w.x.y.5.5.5.5.n.o.p.p.q.z.= ; ! ! ; ( ) 6 ] < n n > > # ",
"z B ; $.6 / ] ] ] j j { & & $ . x . %.A.B.C.D.5.5.5.5.5.5.E.F.G.H.I.z.^ ; ^ J.^ ( 6 6 ; 9 n j { { z ",
"@ p / [ ( 8 7 7 $ o o 4 i | V . $   K.L.M.N.O.5.5.5.5.5.5.P.d.Q.R.S.T.* ' _ 7 ' ] < < < 9 {       @ ",
"@ p / [ } _ i t U.V.W.X.Y.Z.`. +.+++@+A.#+$+$+$+$+$+$+$+$+$+$+%+&+*+=+-+;+>+>+,+] < < n < -     ! p ",
";.;./ ( } $.m m '+)+!+~+{+]+^+/+(+_+:+p.<+[+[+[+[+[+[+[+[+[+}+|+1+2+3+4+5+6+7+8+] < - { j { 1.j j K ",
"5 , 6 = = 9+v b 0+a+b+c+d+d+d+d+f.e+f+g+h+i+i+i+i+i+i+i+i+j+k+d+d+d+d+d+d+l+m+n+= = -     1.; > > 5 ",
"[ [ 6 = = L # b o+p+q+r+s+t+t+u+v+w+x+y+z+A+A+A+A+A+A+A+A+B+C+D+D+D+D+D+D+E+F+G+= = - 1.  ! { > > ( ",
"( [ = = = w 3 # H+I+J+K+5.5.5.5.5.L+M+O N+O+O+O+O+O+O+O+O+P+Q+5.5.5.5.5.5.R+S+T+- - ; ! ! ! 4 { > ( ",
"> ~ = = ^ = = 6 U+V+W+X+5.5.5.Y+Z+`+ @O N+O+O+O+O+O+O+O+O+P+Q+5.5.5.5.5.5.R+S+.@b b u ) , ( ! ~ % ~ ",
"n n = * = = = = +@@@#@$@%@&@*@=@=@-@;@>@N+O+O+O+O+,@'@)@!@P+Q+5.5.5.5.5.5.R+S+.@b # w 5 [ (       n ",
"> ; - / = = ^ = ~@{@p.p.p.p.p.p.p.p.p.]@N+O+O+O+O+^@/@(@_@:@<@L+L+L+L+L+L+[@S+}@# # w ( ) ( ! 1.~ { ",
"* = + @ 2 . = = |@1@1@2@t.3@4@5@6@7@8@9@N+O+O+O+O+0@a@b@c@d@e@f@f@f@f@f@f@g@h@i@. $ { 6 = ( ( ) j@- ",
"= = + @ @ . = = L b b a . @.4 7 _ ' k@l@N+O+O+O+O+O+m@n@o@p.p.p.p.p.p.p.p.p.p.p@$ 0 j = = = 5 [ j@= ",
"= = + p p L = = u b b u @.. 4 7 | $.k@l@N+O+O+O+O+O+O+!@q@b@r@s@t@u@v@w@x@y@y@z@$   j = 6 6 , [ ( = ",
"  $ ( m $.w w u . { 9 9 { 4 ; ' ' ^ A@l@N+O+O+O+O+O+O+O+B@C@D@E@F@{   { { > >   3 # u ] ; ; ].7 |   ",
"% % h t _ w o b . { ; > - 9 = [ [ ^ G@l@H@O+O+O+O+O+O+O+O+I@J@K@L@! ! 1.{ > n 0 b # u { ~ ] 7 t t % ",
". % : _ _ M@b b 0 { ] { ] 4 = ( ( & G@l@N@m@m@m@m@m@m@m@m@O@P@Q@L@! { j { { { $ R@# u { ; ; 7 _ | % ",
"+ S@] [ } $ L 0 a v L ] h h ( 6 $.^ T@U@V@W@W@W@W@W@W@W@W@X@Y@Z@`@; ; - n ; 4 ! j j j     ~ * ; - S@",
"@ p ] = = 9   . u R@R@4 t _  #$.= * .#+#p.p.p.p.p.p.p.p.p.p.p.@###= = = - { ] ] ] < ] . . j ] > { @ ",
"@ @ < = = j % . u b b 4 | _ [ = = ; j.U@$#%#&#*#=#-#-#-#-#;#>#,#'#)#!#* = ] 9 < ] ] ] 0 . ! 9 > { @ ",
"9+9+j j j ; ; ; u b o w & M ^ 6 ~#{#]#^#/#(#_#:#<#[#}#|#|#1#2#3#p.4#5#( j L a 0 $.6 6 - = = n - > # ",
"= =   1.0 < = * . b o a . $ 4 * 6#7#8#9#0#}#1#a#b#c#d#|#|#e#f#g#h#i#j#k#l#b b . 5 [ [ [ [ , > < < ^ ",
"= =   0 @./ = ^ L b # a . $ m#n#o#>@p#q#r#|#|#s#t#u#v#w#e#|#|#x#y#z#A#B#C#D## $ ' ' ' [ [ V ; < ] $.",
". $ . . 0 = ( ' 4 @.@.# y K E#F#G#p.H#w#I#|#|#s#t#J#K#L#M#|#|#e#N#O#P#Q#R#S#b w $ $ & h _ h   { $ x ",
"b A .   $ ' i i = < < l p @ T#U#p.p.V#|#|#}#w#W#X#Y#Z#`# $.$(#|#|#x#+$@$#$$$%$R@3 # L _ t h % . $ b ",
"b b . . . ' t _ m ] / l @ @ &$*$p.p.V#|#|#(#=$-$;$>$,$'$)$!$~$|#|#{$]$^$/$($# b o v w _ 7 [ $ . $ o ",
"$ % 4 { 4 ' _ _ ^ ~ ~ u y y _$:$p.p.V#|#<$[$&#}$|$1$2${.3$4$5$6$6$6$6$7$8$9$b v @.L $ ' h ( . 0 $ $ ",
"7 7 m = ^ h t t M   ~ * ) [ 0$a$p.p.V#}#b$c$d$e$f$g$b h$i$J#j$k$k$k$k$l$m$9$o a ] ] ; ^ ^ ^ . @.. _ ",
"_ i ^ = ^ [ t _ M   ~ M '  #n$o$p.p.p$q$r$X s$t$u$# b v$3@w$x$p.p.p.p.p.p.y$b @.] 4 ; = = ; . 0 0 t ",
"^ m 4 { 4 4 r r { ~ ~ ; ; & z$A$p.p.;$B$C$D$E$g U.L u 0   F$G$p.p.p.p.p.p.y$H$. < - ; * * ; ] 4 4 m ",
"R@R@v b b + 2 p U.[ [ ! b o a ! !         .   $ ( , ,         ! . ] ^ ; ; ~ { { = - * { ~ J.7 _ 7 # ",
"# R@b b b I$@ @ M@j@[ $ v b @.! ~         $ .   [ , [ !           ] ^ = ;   1.; = = = ~ ~ ; 7 t 7 R@",
"u # u # # I$+ 2 % $.) $ R@R@L { ! {   .     .   ( [ ) !   ! % % ! ; * * > 4 { ] = = - { ] ; i | : u ",
"$.= $   x ] < ] ] ] & L # # L , , 6 $   .       { ~ { ! 1.! ( ' [ ; !   ; 6 = - { < < < < ; = ^ ^ = ",
"^ = $ $ % 4 < 9 ] ] ] . o R@% ( , 6   ! .       { n > { ! j 6 ' , ; ~ ! ; = * ; ] ] < < < < = = = ^ ",
"= = $     { ; - ] ] < @.o b U.[ [ 6     . . .   J.; { ! 1.! * ( , ; ! 1.; - = ; ; 9 ] - ] ] = ^ m = "};
