/* XPM */
static char * perso2_xpm[] = {
"50 50 343 2",
"  	c #6AB53B",
". 	c #66B83A",
"+ 	c #6AB93A",
"@ 	c #9ADC5C",
"# 	c #A3E25D",
"$ 	c #7BC644",
"% 	c #6BB541",
"& 	c #60A63A",
"* 	c #57A431",
"= 	c #5AA42D",
"- 	c #5DAB2E",
"; 	c #5EAB33",
"> 	c #5FB032",
", 	c #4E9926",
"' 	c #51962C",
") 	c #519A26",
"! 	c #64B53A",
"~ 	c #5FB038",
"{ 	c #63B234",
"] 	c #62AD33",
"^ 	c #5AA432",
"/ 	c #61A334",
"( 	c #529B2B",
"_ 	c #468A2A",
": 	c #4B9325",
"< 	c #61AD2E",
"[ 	c #4E992A",
"} 	c #529632",
"| 	c #498A2A",
"1 	c #9CE161",
"2 	c #9EE15B",
"3 	c #7BC548",
"4 	c #64AD39",
"5 	c #519625",
"6 	c #56A32C",
"7 	c #468B25",
"8 	c #479021",
"9 	c #63B32D",
"0 	c #6CBB36",
"a 	c #74C23D",
"b 	c #7CC943",
"c 	c #85CB4C",
"d 	c #98D954",
"e 	c #81C64D",
"f 	c #69A83E",
"g 	c #92D45B",
"h 	c #4D942B",
"i 	c #498B25",
"j 	c #69B536",
"k 	c #6DBC40",
"l 	c #8ACC4E",
"m 	c #5A9D32",
"n 	c #5FB02F",
"o 	c #7CC93E",
"p 	c #A3E362",
"q 	c #89C754",
"r 	c #6AA742",
"s 	c #98D761",
"t 	c #4B872B",
"u 	c #76C343",
"v 	c #7BC63F",
"w 	c #74BC42",
"x 	c #70B73A",
"y 	c #8BCD51",
"z 	c #8BD24E",
"A 	c #7EC94A",
"B 	c #8DD252",
"C 	c #65B936",
"D 	c #92D255",
"E 	c #72BC3C",
"F 	c #5BA539",
"G 	c #74C83F",
"H 	c #559C31",
"I 	c #70BC37",
"J 	c #5A9C2E",
"K 	c #284215",
"L 	c #18250D",
"M 	c #0C0908",
"N 	c #0D0E08",
"O 	c #080606",
"P 	c #1B2914",
"Q 	c #92CE59",
"R 	c #36501B",
"S 	c #5D7933",
"T 	c #606E37",
"U 	c #615F38",
"V 	c #614339",
"W 	c #402C24",
"X 	c #0D0E0E",
"Y 	c #478D1F",
"Z 	c #85CB51",
"` 	c #3A481F",
" .	c #6F7741",
"..	c #7B594A",
"+.	c #815C50",
"@.	c #815D50",
"#.	c #7D594C",
"$.	c #795548",
"%.	c #534330",
"&.	c #0C0E0E",
"*.	c #3D4922",
"=.	c #715D42",
"-.	c #977165",
";.	c #DAAC9D",
">.	c #DFB0A2",
",.	c #DFB0A1",
"'.	c #B78D7F",
").	c #785447",
"!.	c #51392F",
"~.	c #31201B",
"{.	c #735044",
"].	c #A37C6F",
"^.	c #F8C6B6",
"/.	c #FFCCBC",
"(.	c #CCA091",
"_.	c #51382F",
":.	c #4FA02B",
"<.	c #382721",
"[.	c #815E52",
"}.	c #A88073",
"|.	c #EEBEAF",
"1.	c #F7C6B6",
"2.	c #FECCBC",
"3.	c #FAC8B9",
"4.	c #F4C3B3",
"5.	c #C89D8F",
"6.	c #876456",
"7.	c #5C4839",
"8.	c #0B0D0E",
"9.	c #634E47",
"0.	c #DCAFA0",
"a.	c #D1A698",
"b.	c #7F655C",
"c.	c #AB887D",
"d.	c #FAC8B8",
"e.	c #D2A89B",
"f.	c #765D55",
"g.	c #AF8A7F",
"h.	c #D4B09A",
"i.	c #8A8263",
"j.	c #000608",
"k.	c #5FAD3C",
"l.	c #6E564F",
"m.	c #F2C1B2",
"n.	c #E1B4A6",
"o.	c #67514A",
"p.	c #95766C",
"q.	c #EDBDAE",
"r.	c #F2C2B2",
"s.	c #C19A8E",
"t.	c #503F39",
"u.	c #B48F84",
"v.	c #E2BEA6",
"w.	c #938B69",
"x.	c #000406",
"y.	c #75B443",
"z.	c #81C944",
"A.	c #6E594F",
"B.	c #EABBAD",
"C.	c #CDA497",
"D.	c #6F5850",
"E.	c #A58379",
"F.	c #E7B9AA",
"G.	c #F3C2B3",
"H.	c #E8C2AA",
"I.	c #97916A",
"J.	c #6E5E4E",
"K.	c #DEB2A4",
"L.	c #6D564E",
"M.	c #614C45",
"N.	c #AF8B80",
"O.	c #FDCABA",
"P.	c #EBC7AC",
"Q.	c #9A9C6D",
"R.	c #7ABC46",
"S.	c #6E624E",
"T.	c #F0C2B1",
"U.	c #F4C3B4",
"V.	c #E7C6A9",
"W.	c #989F6B",
"X.	c #635B47",
"Y.	c #D9B09F",
"Z.	c #D9B89F",
"`.	c #8F9363",
" +	c #000305",
".+	c #1F1714",
"++	c #4F3E38",
"@+	c #54413B",
"#+	c #372926",
"$+	c #000001",
"%+	c #0D2523",
"&+	c #134564",
"*+	c #083C65",
"=+	c #011123",
"-+	c #001B2B",
";+	c #004668",
">+	c #004B6E",
",+	c #004A6E",
"'+	c #003049",
")+	c #000000",
"!+	c #063357",
"~+	c #09416E",
"{+	c #021A31",
"]+	c #1D241B",
"^+	c #043053",
"/+	c #2086D4",
"(+	c #1B84D7",
"_+	c #053053",
":+	c #004364",
"<+	c #0299DD",
"[+	c #03A2E9",
"}+	c #03A1E9",
"|+	c #026D9F",
"1+	c #1A74B9",
"2+	c #3798CF",
"3+	c #1E556C",
"4+	c #1C2118",
"5+	c #304551",
"6+	c #749CBB",
"7+	c #7C99D6",
"8+	c #2C3953",
"9+	c #014669",
"0+	c #03A0E8",
"a+	c #03A9F4",
"b+	c #03A9F3",
"c+	c #0172A6",
"d+	c #040000",
"e+	c #6B84BA",
"f+	c #79A5BE",
"g+	c #426364",
"h+	c #1C2418",
"i+	c #594B43",
"j+	c #E1BAAD",
"k+	c #E6BBB1",
"l+	c #594743",
"m+	c #0F0200",
"n+	c #C8A299",
"o+	c #D1BD9E",
"p+	c #706D54",
"q+	c #192119",
"r+	c #4E9A32",
"s+	c #5C4842",
"t+	c #100300",
"u+	c #E8C5AB",
"v+	c #756C53",
"w+	c #171B18",
"x+	c #5C4A42",
"y+	c #E8C2AB",
"z+	c #766F54",
"A+	c #5C4C42",
"B+	c #ECBDAD",
"C+	c #EAC3AD",
"D+	c #776E55",
"E+	c #161818",
"F+	c #5D5142",
"G+	c #E2BBA5",
"H+	c #F2C7B3",
"I+	c #786C56",
"J+	c #72BA48",
"K+	c #5D5441",
"L+	c #CFB896",
"M+	c #F4CAB4",
"N+	c #796D56",
"O+	c #98D75D",
"P+	c #5D5940",
"Q+	c #AFAF7B",
"R+	c #B9AD86",
"S+	c #01476A",
"T+	c #03A1E8",
"U+	c #03A9F5",
"V+	c #CAA595",
"W+	c #CBC293",
"X+	c #777654",
"Y+	c #192019",
"Z+	c #3C2F2A",
"`+	c #8E8E64",
" @	c #8D8A64",
".@	c #3C2E2A",
"+@	c #002D45",
"@@	c #016C9D",
"#@	c #0272A6",
"$@	c #014C70",
"%@	c #070100",
"&@	c #84815E",
"*@	c #999C6C",
"=@	c #54553B",
"-@	c #1F2C1B",
";@	c #192813",
">@	c #10163C",
",@	c #2E3C8A",
"'@	c #314092",
")@	c #29357C",
"!@	c #04071B",
"~@	c #1C2559",
"{@	c #313F91",
"]@	c #1F2962",
"^@	c #090904",
"/@	c #161E4D",
"(@	c #3C4DAD",
"_@	c #3F51B6",
":@	c #35449B",
"<@	c #070B25",
"[@	c #253071",
"}@	c #3F51B4",
"|@	c #29357B",
"1@	c #0E0E07",
"2@	c #161E4C",
"3@	c #3B4CAC",
"4@	c #3F51B5",
"5@	c #34449A",
"6@	c #070B24",
"7@	c #243070",
"8@	c #3E50B3",
"9@	c #29357A",
"0@	c #3C4CAC",
"a@	c #253070",
"b@	c #3F50B3",
"c@	c #8CD358",
"d@	c #151D49",
"e@	c #394AA4",
"f@	c #3C4EAE",
"g@	c #324195",
"h@	c #060A23",
"i@	c #222E6B",
"j@	c #3C4DAC",
"k@	c #3C4EAD",
"l@	c #263375",
"m@	c #0E0E08",
"n@	c #01020C",
"o@	c #080D28",
"p@	c #090E2B",
"q@	c #000103",
"r@	c #030517",
"s@	c #090E2A",
"t@	c #03061A",
"u@	c #131B10",
"v@	c #11160F",
"w@	c #4F9733",
"x@	c #76B648",
"y@	c #0A0A0A",
"z@	c #91D54F",
"A@	c #98D557",
"B@	c #96DA59",
"  . + @ # # $   % & * = = = = - ; > ; , ' ) ! ; ~ = * = + . . { ] ] ^ ^ ^ / ] ] / = = ( _ _ : ! ] { ",
"% . . @ # # $     ] = * = = = < { > ; [ } ( { { ] = = = . . . ] ] ] ^ = = < ] < / = = * _ _ | ] - { ",
"+ % . 1 2 # 3   + ] = = = = = / 4 { ; , 5 ' 4 4 4 6 = =   . . { - < = ^ = < = < - = = ( 7 _ 8 4 9 > ",
". . . + 0 0 a $ b + !   c @ d e 8 _ f @ @ g h i : [ ) , { j . a $ 3 k + j l @ 1 l ] ; ; = m ^ ] { n ",
". % . ~ ~ n a o b + . + l # p q | _ r # # s | i t [ [ , ! ! { u v b w + x y # p z ] ; - = = ; ] < { ",
"%   + 4 ~ > $ b A k . + B # # q t _ r 1 # s | i i [ [ [ { C . u $ b 0 +   y p p D { { / = = ^ ] { ] ",
"$ $ u { ~ { ^ ^ ^ ; ; ^   E E   F * ~ w w E F - ^ ! ! ] G u u j ] ] ! + E x % x ] ' ' ' h | [ ^ = - ",
"G b b { 9 4 H ( ( ( ^ = / ] ] ] ; ; { n > > > > ]   + . b b 3 ; = = j I I ] = = ' i t i i i | ^ = = ",
"b b b j { ] J ) , 6 = = - ; ] ] < < ] 4 K L M M M M M M N M M O P = j 0 0 { = * ' _ _ 7 _ _ | m ^ = ",
"^ & & = = = = - = ] { { ! { ! w Q D A R S T U V V V V V V V V W X - { . . { - ; ^ ^ ^ H H H ( ( ( ( ",
"| _ Y J = = < < ] j   . . . ! Z # # B `  ...+.@.@.@.@.@.@.#.$.%.&.> . . . { > n ; { { ; = * ^ [ ( ' ",
"_ | 7 = = = - < < ! + . C ~ . A # # D *.=.-.;.>.>.>.>.>.,.'.).!.&.4 % . . j > > ; { n n 6 = ^ [ 5 ' ",
"] 4 4 = = ^ { j j { 4 ; { C + u l l b ~.{.].^././././././.(.)._.&.( ] ; ; ~ ! { ; * 6 6 - - ; = = = ",
"o o b = = = j 0 + ] 6 = { 0 0 0 + 0 j ~.{.].^././././././.(.)._.&.i J 6 * ~ ! { ; , , :.] < - > > > ",
"$ o b - ^ ^ j 0 + 4 * 6 { 0 I 0 I I 0 <.[.}.|.1.2././.3.4.5.6.7.8.| J = = ; ! ! ; ( ) 6 ] < n n > > ",
"z z B ; J 6 / ] ] ] j j { & &   + x + 9.0.a.b.c.d././.e.f.g.h.i.j.( ( = ^ ; ^ k.^ ( 6 6 ; 9 n j { { ",
"# # p / [ ( 8 7 7   o o 4 i | H +   . l.m.n.o.p.q.r.r.s.t.u.v.w.x.] = = * ' _ 7 ' ] < < < 9 { . . . ",
"p # p / [ } _ i t y.o z.f | | ^   C + A.r.d.B.C.f.D.D.E.F.G.H.I.x.4 - = ^ } t t ' ] < < n < - . . ! ",
"D Q Q / ( } J m m % a a ] } } ^ ! j j J.r././.K.L.M.M.N.O./.P.Q.x.4 ] ] & m [ [ J ] < - { j { C j j ",
"5 5 , 6 = = R.v b + ~ ~ ~ ! j ; * = = S.T././.d.|.q.q.U././.V.W.x.{ + I I + . ! { = = - . . C ; > > ",
"( [ [ 6 = = E $ b . k.> ~ C C > = = < X.Y.F.F.F.F.F.F.F.F.F.Z.`. +C C 0 C . ! C ; = = - C . ! { > > ",
"( ( [ = = = w 3 $ j > n { j ~ > 6 ^ = .+++@+@+@+@+@+@+@+@+@+@+#+$+> C . + ! ! ! { - - ; ! ! ! 4 { > ",
"~ > ~ = = ^ = = 6 - n > > n > %+&+*+=+-+;+>+>+>+>+>+>+>+>+>+,+'+)+!+~+{+]+( 4 ~ + b b u ) , ( ! ~ % ",
"n n n = * = = = = - n { n n ~ ^+/+(+_+:+<+[+[+[+[+[+[+[+[+[+}+|+)+1+2+3+4+m { > + b $ w 5 [ ( . . . ",
"{ > ; - / = = ^ = ; { - n > { 5+6+7+8+9+0+a+a+a+a+a+a+a+a+a+b+c+d+e+f+g+h+( ~ ~   $ $ w ( ) ( ! C ~ ",
"- * = @ # 2 + = = E $ b a + . i+j+k+l+9+0+a+a+a+a+a+a+a+a+a+b+c+m+n+o+p+q+] * * 4 +   { 6 = ( ( ) r+",
"= = = @ # # + = = E b b a + I s+q.q.s+9+0+a+a+a+a+a+a+a+a+a+b+c+t+C.u+v+w+; * = ]   0 j = = = 5 [ r+",
"= = = @ p p E = = u b b u I + x+q.q.s+9+0+a+a+a+a+a+a+a+a+a+b+c+t+C.y+z+w+; = = ]   . j = 6 6 , [ ( ",
". .   ( m J w w u + { 9 9 { 4 A+B+q.s+9+0+a+a+a+a+a+a+a+a+a+b+c+t+C.C+D+E+{ > > . 3 $ u ] ; ; Y 7 | ",
"% % % h t _ w o b + { ; > - 9 F+G+q.s+9+0+a+a+a+a+a+a+a+a+a+b+c+t+C.H+I+E+{ > n 0 b $ u { ~ ] 7 t t ",
"% + % : _ _ J+b b 0 { ] { ] 4 K+L+q.s+9+0+a+a+a+a+a+a+a+a+a+b+c+t+C.M+N+E+{ { {   z.$ u { ; ; 7 _ | ",
"O+@ O+] [ }   E 0 a v E ] h h P+Q+R+s+S+T+U+U+U+U+U+U+U+U+U+a+c+t+V+W+X+Y+n ; 4 ! j j j . . ~ * ; - ",
"# # p ] = = 9 . + u z.z.4 t _ Z+`+ @.@+@@@#@#@#@#@#@#@#@#@#@#@$@%@&@*@=@-@- { ] ] ] < ] + + j ] > { ",
"# # # < = = j % + u b b 4 | _ )+)+)+)+)+)+)+)+)+)+)+)+)+)+)+)+)+)+)+)+)+;@= ] 9 < ] ] ] 0 + ! 9 > { ",
"$ R.R.j j j ; ; ; u b o w & F ^ 6 ^ ; >@,@'@'@)@!@)+)+~@{@'@'@]@^@; ^ ( ( j E a 0 J 6 6 - = = n - > ",
"^ = = . C 0 < = * + b o a +   4 * * ; /@(@_@_@:@<@)+$+[@}@_@_@|@1@{ H [ 5 + b b + 5 [ [ [ [ , > < < ",
"J = = . 0 I / = ^ E b $ a +   { * F ; 2@3@4@4@5@6@)+$+7@8@4@4@9@1@{ = ( ,   $ $   ' ' ' [ [ H ; < ] ",
"x +   + + 0 = ( ' 4 I I $ y D 3 4 ; ; 2@3@4@4@5@6@)+$+7@8@4@4@9@1@< ( [ 5   $ b w     & h _ h . {   ",
"b b A + .   ' i i = < < l p # Q ! ! 9 /@0@4@4@5@<@)+$+a@b@4@4@9@1@< 6 [ ,   $ $ z.3 $ E _ t h % +   ",
"o b b + + + ' t _ m ] / l # # c@! C > d@e@f@f@g@h@)+$+i@j@f@k@l@m@{ 6 , , 4 z.$ b o v w _ 7 [   +   ",
"    % 4 { 4 ' _ _ ^ ~ ~ u y y Z A b w n@o@p@p@h@q@)+)+r@s@p@p@t@u@< % y.w u b b v I E   ' h ( + 0   ",
"_ 7 7 m = ^ h t t F . ~ * ) [ w # # Q )+)+)+)+)+)+)+)+)+)+)+)+)+v@= y p p z b o a ] ] ; ^ ^ ^ + I + ",
"t _ i ^ = ^ [ t _ F . ~ F ' w@x@# # Q )+)+)+)+)+)+)+)+)+)+)+)+)+y@= y # # z@v b I ] 4 ; = = ; + 0 0 ",
"m ^ m 4 { 4 4 r r { ~ ~ ; ; & R.@ d Z } ' / O+A@g y.E u 0 . . { ; - A D D c v G + < - ; * * ; ] 4 4 ",
"$ z.z.v b b @ 2 p y.[ [ ! b o a ! ! . . . . + .   ( , , . . . . ! + ] ^ ; ; ~ { { = - * { ~ k.7 _ 7 ",
"z.$ z.b b b B@# # J+r+[   v b I ! ~ . . . .   + . [ , [ ! . . . . . ] ^ = ; . C ; = = = ~ ~ ; 7 t 7 ",
"u u $ u $ $ B@@ 2 % J )   z.z.E { ! { . + . . + . ( [ ) ! . ! % % ! ; * * > 4 { ] = = - { ] ; i | : ",
"= J =   . x ] < ] ] ] & E $ $ E , , 6   . + . . . { ~ { ! C ! ( ' [ ; ! . ; 6 = - { < < < < ; = ^ ^ ",
"^ ^ =     % 4 < 9 ] ] ] + o z.% ( , 6 . ! + . . . { n > { ! j 6 ' , ; ~ ! ; = * ; ] ] < < < < = = = ",
"= = =   . . { ; - ] ] < I o b y.[ [ 6 . . + + + . k.; { ! C ! * ( , ; ! C ; - = ; ; 9 ] - ] ] = ^ m "};
