/* XPM */
static char * perso_base_xpm[] = {
"50 50 467 2",
"  	c #6AB53B",
". 	c #66B83A",
"+ 	c #6AB93A",
"@ 	c #9ADC5C",
"# 	c #A3E25D",
"$ 	c #7BC644",
"% 	c #6BB541",
"& 	c #60A63A",
"* 	c #57A431",
"= 	c #5AA42D",
"- 	c #5DAB2E",
"; 	c #5EAB33",
"> 	c #5FB032",
", 	c #4E9926",
"' 	c #51962C",
") 	c #519A26",
"! 	c #64B53A",
"~ 	c #5FB038",
"{ 	c #63B234",
"] 	c #62AD33",
"^ 	c #5AA432",
"/ 	c #61A334",
"( 	c #529B2B",
"_ 	c #468A2A",
": 	c #4B9325",
"< 	c #61AD2E",
"[ 	c #4E992A",
"} 	c #529632",
"| 	c #498A2A",
"1 	c #9CE161",
"2 	c #9EE15B",
"3 	c #7BC548",
"4 	c #64AD39",
"5 	c #519625",
"6 	c #56A32C",
"7 	c #468B25",
"8 	c #479021",
"9 	c #63B32D",
"0 	c #6CBB36",
"a 	c #74C23D",
"b 	c #7CC943",
"c 	c #85CB4C",
"d 	c #98D954",
"e 	c #81C64D",
"f 	c #69A83E",
"g 	c #92D45B",
"h 	c #4D942B",
"i 	c #498B25",
"j 	c #69B536",
"k 	c #6DBC40",
"l 	c #8ACC4E",
"m 	c #5A9D32",
"n 	c #5FB02F",
"o 	c #7CC93E",
"p 	c #A3E362",
"q 	c #89C754",
"r 	c #6AA742",
"s 	c #98D761",
"t 	c #4B872B",
"u 	c #76C343",
"v 	c #7BC63F",
"w 	c #74BC42",
"x 	c #70B73A",
"y 	c #8BCD51",
"z 	c #8BD24E",
"A 	c #7EC94A",
"B 	c #8DD252",
"C 	c #6D9162",
"D 	c #6E9262",
"E 	c #6D9261",
"F 	c #6F9B62",
"G 	c #6F9B63",
"H 	c #719B64",
"I 	c #7CAC69",
"J 	c #7DB16A",
"K 	c #7EB06B",
"L 	c #86B86E",
"M 	c #88C860",
"N 	c #92D255",
"O 	c #72BC3C",
"P 	c #5BA539",
"Q 	c #284215",
"R 	c #18250D",
"S 	c #0C0908",
"T 	c #0D0E08",
"U 	c #080606",
"V 	c #1B2914",
"W 	c #7DB266",
"X 	c #74C83F",
"Y 	c #559C31",
"Z 	c #5DA339",
"` 	c #36501B",
" .	c #5D7933",
"..	c #606E37",
"+.	c #615F38",
"@.	c #614339",
"#.	c #402C24",
"$.	c #0D0E0E",
"%.	c #79AB65",
"&.	c #70BC37",
"*.	c #5A9C2E",
"=.	c #5C824C",
"-.	c #3A481F",
";.	c #6F7741",
">.	c #7B594A",
",.	c #815C50",
"'.	c #815D50",
").	c #7D594C",
"!.	c #795548",
"~.	c #534330",
"{.	c #0C0E0E",
"].	c #92CE59",
"^.	c #6E8D58",
"/.	c #3D4922",
"(.	c #715D42",
"_.	c #977165",
":.	c #DAAC9D",
"<.	c #DFB0A2",
"[.	c #DFB0A1",
"}.	c #B78D7F",
"|.	c #785447",
"1.	c #51392F",
"2.	c #7BB165",
"3.	c #478D1F",
"4.	c #85CB51",
"5.	c #799A5A",
"6.	c #31201B",
"7.	c #735044",
"8.	c #A37C6F",
"9.	c #F8C6B6",
"0.	c #FFCCBC",
"a.	c #CCA091",
"b.	c #51382F",
"c.	c #7CB566",
"d.	c #65B936",
"e.	c #77965A",
"f.	c #7FB26A",
"g.	c #6A8656",
"h.	c #382721",
"i.	c #815E52",
"j.	c #A88073",
"k.	c #EEBEAF",
"l.	c #F7C6B6",
"m.	c #FECCBC",
"n.	c #FAC8B9",
"o.	c #F4C3B3",
"p.	c #C89D8F",
"q.	c #876456",
"r.	c #5C4839",
"s.	c #0B0D0E",
"t.	c #79A566",
"u.	c #5E7853",
"v.	c #634E47",
"w.	c #DCAFA0",
"x.	c #D1A698",
"y.	c #7F655C",
"z.	c #AB887D",
"A.	c #FAC8B8",
"B.	c #D2A89B",
"C.	c #765D55",
"D.	c #AF8A7F",
"E.	c #D4B09A",
"F.	c #8A8263",
"G.	c #000608",
"H.	c #719965",
"I.	c #4FA02B",
"J.	c #5E7653",
"K.	c #6E564F",
"L.	c #F2C1B2",
"M.	c #E1B4A6",
"N.	c #67514A",
"O.	c #95766C",
"P.	c #EDBDAE",
"Q.	c #F2C2B2",
"R.	c #C19A8E",
"S.	c #503F39",
"T.	c #B48F84",
"U.	c #E2BEA6",
"V.	c #938B69",
"W.	c #000406",
"X.	c #729665",
"Y.	c #6DBA42",
"Z.	c #5F7653",
"`.	c #6E594F",
" +	c #EABBAD",
".+	c #CDA497",
"++	c #6F5850",
"@+	c #A58379",
"#+	c #E7B9AA",
"$+	c #F3C2B3",
"%+	c #E8C2AA",
"&+	c #97916A",
"*+	c #75A166",
"=+	c #5FAD3C",
"-+	c #70BA47",
";+	c #5D7853",
">+	c #6E5E4E",
",+	c #DEB2A4",
"'+	c #6D564E",
")+	c #614C45",
"!+	c #AF8B80",
"~+	c #FDCABA",
"{+	c #EBC7AC",
"]+	c #9A9C6D",
"^+	c #7DB169",
"/+	c #75B443",
"(+	c #81C944",
"_+	c #6FB646",
":+	c #5C7B52",
"<+	c #6E624E",
"[+	c #F0C2B1",
"}+	c #F4C3B4",
"|+	c #E7C6A9",
"1+	c #989F6B",
"2+	c #5D9A44",
"3+	c #639C4D",
"4+	c #68A84C",
"5+	c #7BB962",
"6+	c #57734B",
"7+	c #635B47",
"8+	c #D9B09F",
"9+	c #D9B89F",
"0+	c #8F9363",
"a+	c #000305",
"b+	c #83B370",
"c+	c #76B25A",
"d+	c #74B256",
"e+	c #71B152",
"f+	c #7ABC46",
"g+	c #779C6A",
"h+	c #57724C",
"i+	c #546D4C",
"j+	c #4E6646",
"k+	c #1E2C18",
"l+	c #1F1714",
"m+	c #4F3E38",
"n+	c #54413B",
"o+	c #372926",
"p+	c #000001",
"q+	c #44553F",
"r+	c #546A4D",
"s+	c #57744C",
"t+	c #5E804D",
"u+	c #7FBF58",
"v+	c #6C8D61",
"w+	c #0D2523",
"x+	c #134564",
"y+	c #083C65",
"z+	c #011123",
"A+	c #001B2B",
"B+	c #004668",
"C+	c #004B6E",
"D+	c #004A6E",
"E+	c #003049",
"F+	c #000000",
"G+	c #063357",
"H+	c #09416E",
"I+	c #021A31",
"J+	c #1D241B",
"K+	c #77BD5A",
"L+	c #6D8A61",
"M+	c #043053",
"N+	c #2086D4",
"O+	c #1B84D7",
"P+	c #053053",
"Q+	c #004364",
"R+	c #0299DD",
"S+	c #03A2E9",
"T+	c #03A1E9",
"U+	c #026D9F",
"V+	c #1A74B9",
"W+	c #3798CF",
"X+	c #1E556C",
"Y+	c #1C2118",
"Z+	c #7BBC5B",
"`+	c #6A8761",
" @	c #304551",
".@	c #749CBB",
"+@	c #7C99D6",
"@@	c #2C3953",
"#@	c #014669",
"$@	c #03A0E8",
"%@	c #03A9F4",
"&@	c #03A9F3",
"*@	c #0172A6",
"=@	c #040000",
"-@	c #6B84BA",
";@	c #79A5BE",
">@	c #426364",
",@	c #1C2418",
"'@	c #639450",
")@	c #6B8662",
"!@	c #594B43",
"~@	c #E1BAAD",
"{@	c #E6BBB1",
"]@	c #594743",
"^@	c #0F0200",
"/@	c #C8A299",
"(@	c #D1BD9E",
"_@	c #706D54",
":@	c #192119",
"<@	c #649453",
"[@	c #6B8563",
"}@	c #5C4842",
"|@	c #100300",
"1@	c #E8C5AB",
"2@	c #756C53",
"3@	c #171B18",
"4@	c #649551",
"5@	c #6E8963",
"6@	c #5C4A42",
"7@	c #E8C2AB",
"8@	c #766F54",
"9@	c #4E9A32",
"0@	c #6E8A63",
"a@	c #5C4C42",
"b@	c #ECBDAD",
"c@	c #EAC3AD",
"d@	c #776E55",
"e@	c #161818",
"f@	c #79BC5D",
"g@	c #6F8D62",
"h@	c #5D5142",
"i@	c #E2BBA5",
"j@	c #F2C7B3",
"k@	c #786C56",
"l@	c #77B75A",
"m@	c #6B8961",
"n@	c #5D5441",
"o@	c #CFB896",
"p@	c #F4CAB4",
"q@	c #796D56",
"r@	c #77B75B",
"s@	c #69885F",
"t@	c #5D5940",
"u@	c #AFAF7B",
"v@	c #B9AD86",
"w@	c #01476A",
"x@	c #03A1E8",
"y@	c #03A9F5",
"z@	c #CAA595",
"A@	c #CBC293",
"B@	c #777654",
"C@	c #192019",
"D@	c #79BD5C",
"E@	c #72BA48",
"F@	c #6A8A5E",
"G@	c #3C2F2A",
"H@	c #8E8E64",
"I@	c #8D8A64",
"J@	c #3C2E2A",
"K@	c #002D45",
"L@	c #016C9D",
"M@	c #0272A6",
"N@	c #014C70",
"O@	c #070100",
"P@	c #84815E",
"Q@	c #999C6C",
"R@	c #54553B",
"S@	c #1F2C1B",
"T@	c #7CBA5D",
"U@	c #98D75D",
"V@	c #617F59",
"W@	c #192813",
"X@	c #72B157",
"Y@	c #709662",
"Z@	c #709965",
"`@	c #73A267",
" #	c #7BA469",
".#	c #4C6542",
"+#	c #10163C",
"@#	c #2E3C8A",
"##	c #314092",
"$#	c #29357C",
"%#	c #04071B",
"&#	c #1C2559",
"*#	c #313F91",
"=#	c #1F2962",
"-#	c #090904",
";#	c #7A9E6A",
">#	c #78AB64",
",#	c #7AAC66",
"'#	c #62A73E",
")#	c #65A743",
"!#	c #597450",
"~#	c #161E4D",
"{#	c #3C4DAD",
"]#	c #3F51B6",
"^#	c #35449B",
"/#	c #070B25",
"(#	c #253071",
"_#	c #3F51B4",
":#	c #29357B",
"<#	c #0E0E07",
"[#	c #68A84E",
"}#	c #597351",
"|#	c #161E4C",
"1#	c #3B4CAC",
"2#	c #3F51B5",
"3#	c #34449A",
"4#	c #070B24",
"5#	c #243070",
"6#	c #3E50B3",
"7#	c #29357A",
"8#	c #7EB367",
"9#	c #69A950",
"0#	c #587351",
"a#	c #7FB369",
"b#	c #6AAA52",
"c#	c #5A7352",
"d#	c #7EB266",
"e#	c #5A7551",
"f#	c #74B957",
"g#	c #5C7952",
"h#	c #3C4CAC",
"i#	c #253070",
"j#	c #3F50B3",
"k#	c #8CD358",
"l#	c #75B958",
"m#	c #5C7C51",
"n#	c #151D49",
"o#	c #394AA4",
"p#	c #3C4EAE",
"q#	c #324195",
"r#	c #060A23",
"s#	c #222E6B",
"t#	c #3C4DAC",
"u#	c #3C4EAD",
"v#	c #263375",
"w#	c #0E0E08",
"x#	c #7EB267",
"y#	c #89CB62",
"z#	c #658853",
"A#	c #01020C",
"B#	c #080D28",
"C#	c #090E2B",
"D#	c #000103",
"E#	c #030517",
"F#	c #090E2A",
"G#	c #03061A",
"H#	c #131B10",
"I#	c #A9E26E",
"J#	c #77985A",
"K#	c #11160F",
"L#	c #4F9733",
"M#	c #76B648",
"N#	c #A8E26D",
"O#	c #0A0A0A",
"P#	c #77AB65",
"Q#	c #91D54F",
"R#	c #9FDD69",
"S#	c #91B96F",
"T#	c #79A063",
"U#	c #63825A",
"V#	c #638358",
"W#	c #698A5A",
"X#	c #84A967",
"Y#	c #84A865",
"Z#	c #80A767",
"`#	c #72935E",
" $	c #70985C",
".$	c #729C5F",
"+$	c #6E975B",
"@$	c #6B955C",
"#$	c #6B925C",
"$$	c #78B161",
"%$	c #96DA59",
"  . + @ # # $   % & * = = = = - ; > ; , ' ) ! ; ~ = * = + . . { ] ] ^ ^ ^ / ] ] / = = ( _ _ : ! ] { ",
"% . . @ # # $     ] = * = = = < { > ; [ } ( { { ] = = = . . . ] ] ] ^ = = < ] < / = = * _ _ | ] - { ",
"+ % . 1 2 # 3   + ] = = = = = / 4 { ; , 5 ' 4 4 4 6 = =   . . { - < = ^ = < = < - = = ( 7 _ 8 4 9 > ",
". . . + 0 0 a $ b + !   c @ d e 8 _ f @ @ g h i : [ ) , { j . a $ 3 k + j l @ 1 l ] ; ; = m ^ ] { n ",
". % . ~ ~ n a o b + . + l # p q | _ r # # s | i t [ [ , ! ! { u v b w + x y # p z ] ; - = = ; ] < { ",
"%   + 4 ~ > $ b A k . + B # # q t _ r 1 # s C D E F G H I J K L M b 0 +   y p p N { { / = = ^ ] { ] ",
"$ $ u { ~ { ^ ^ ^ ; ; ^   O O   P * ~ Q R S S S S S S T S S U V W ] ! + O x % x ] ' ' ' h | [ ^ = - ",
"X b b { 9 4 Y ( ( ( ^ = / ] ] ] ; Z `  ...+.@.@.@.@.@.@.@.@.#.$.%.= j &.&.] = = ' i t i i i | ^ = = ",
"b b b j { ] *.) , 6 = = - ; ] ] < =.-.;.>.,.'.'.'.'.'.'.).!.~.{.%.= j 0 0 { = * ' _ _ 7 _ _ | m ^ = ",
"^ & & = = = = - = ] { { ! { ! w ].^./.(._.:.<.<.<.<.<.[.}.|.1.{.2.- { . . { - ; ^ ^ ^ Y Y Y ( ( ( ( ",
"| _ 3.*.= = < < ] j   . . . ! 4.# 5.6.7.8.9.0.0.0.0.0.0.a.|.b.{.c.> . . . { > n ; { { ; = * ^ [ ( ' ",
"_ | 7 = = = - < < ! + . d.~ . A # e.6.7.8.9.0.0.0.0.0.0.a.|.b.{.f.4 % . . j > > ; { n n 6 = ^ [ 5 ' ",
"] 4 4 = = ^ { j j { 4 ; { d.+ u l g.h.i.j.k.l.m.0.0.n.o.p.q.r.s.t.( ] ; ; ~ ! { ; * 6 6 - - ; = = = ",
"o o b = = = j 0 + ] 6 = { 0 0 0 + u.v.w.x.y.z.A.0.0.B.C.D.E.F.G.H.i *.6 * ~ ! { ; , , I.] < - > > > ",
"$ o b - ^ ^ j 0 + 4 * 6 { 0 &.0 &.J.K.L.M.N.O.P.Q.Q.R.S.T.U.V.W.X.| *.= = ; ! ! ; ( ) 6 ] < n n > > ",
"z z B ; *.6 / ] ] ] j j { & &   Y.Z.`.Q.A. +.+C.++++@+#+$+%+&+W.*+( ( = ^ ; ^ =+^ ( 6 6 ; 9 n j { { ",
"# # p / [ ( 8 7 7   o o 4 i | Y -+;+>+Q.0.0.,+'+)+)+!+~+0.{+]+W.^+] = = * ' _ 7 ' ] < < < 9 { . . . ",
"p # p / [ } _ i t /+o (+f | | ^ _+:+<+[+0.0.A.k.P.P.}+0.0.|+1+W.J 4 - = ^ } t t ' ] < < n < - . . ! ",
"N ].]./ ( } *.m m % a a ] 2+3+4+5+6+7+8+#+#+#+#+#+#+#+#+#+9+0+a+b+c+d+e+& m [ [ *.] < - { j { d.j j ",
"5 5 , 6 = = f+v b + ~ ~ ~ g+h+i+j+k+l+m+n+n+n+n+n+n+n+n+n+n+o+p+q+r+s+t+u++ . ! { = = - . . d.; > > ",
"( [ [ 6 = = O $ b . =+> ~ v+w+x+y+z+A+B+C+C+C+C+C+C+C+C+C+D+E+F+G+H+I+J+K+. ! d.; = = - d.. ! { > > ",
"( ( [ = = = w 3 $ j > n { L+M+N+O+P+Q+R+S+S+S+S+S+S+S+S+S+T+U+F+V+W+X+Y+Z+! ! ! { - - ; ! ! ! 4 { > ",
"~ > ~ = = ^ = = 6 - n > > `+ @.@+@@@#@$@%@%@%@%@%@%@%@%@%@&@*@=@-@;@>@,@'@( 4 ~ + b b u ) , ( ! ~ % ",
"n n n = * = = = = - n { n )@!@~@{@]@#@$@%@%@%@%@%@%@%@%@%@&@*@^@/@(@_@:@<@m { > + b $ w 5 [ ( . . . ",
"{ > ; - / = = ^ = ; { - n [@}@P.P.}@#@$@%@%@%@%@%@%@%@%@%@&@*@|@.+1@2@3@4@( ~ ~   $ $ w ( ) ( ! d.~ ",
"- * = @ # 2 + = = O $ b a 5@6@P.P.}@#@$@%@%@%@%@%@%@%@%@%@&@*@|@.+7@8@3@K+] * * 4 +   { 6 = ( ( ) 9@",
"= = = @ # # + = = O b b a 0@a@b@P.}@#@$@%@%@%@%@%@%@%@%@%@&@*@|@.+c@d@e@f@; * = ]   0 j = = = 5 [ 9@",
"= = = @ p p O = = u b b u g@h@i@P.}@#@$@%@%@%@%@%@%@%@%@%@&@*@|@.+j@k@e@l@; = = ]   . j = 6 6 , [ ( ",
". .   ( m *.w w u + { 9 9 m@n@o@P.}@#@$@%@%@%@%@%@%@%@%@%@&@*@|@.+p@q@e@r@{ > > . 3 $ u ] ; ; 3.7 | ",
"% % % h t _ w o b + { ; > s@t@u@v@}@w@x@y@y@y@y@y@y@y@y@y@%@*@|@z@A@B@C@D@{ > n 0 b $ u { ~ ] 7 t t ",
"% + % : _ _ E@b b 0 { ] { F@G@H@I@J@K@L@M@M@M@M@M@M@M@M@M@M@N@O@P@Q@R@S@T@{ { {   (+$ u { ; ; 7 _ | ",
"U@@ U@] [ }   O 0 a v O ] V@F+F+F+F+F+F+F+F+F+F+F+F+F+F+F+F+F+F+F+F+F+W@X@n ; 4 ! j j j . . ~ * ; - ",
"# # p ] = = 9 . + u (+(+4 Y@Z@`@ #.#+#@#####$#%#F+F+&#*#####=#-#;#>#,#>#'#- { ] ] ] < ] + + j ] > { ",
"# # # < = = j % + u b b 4 | _ [ )#!#~#{#]#]#^#/#F+p+(#_#]#]#:#<#,#= = = * = ] 9 < ] ] ] 0 + ! 9 > { ",
"$ f+f+j j j ; ; ; u b o w & P ^ [#}#|#1#2#2#3#4#F+p+5#6#2#2#7#<#8#; ^ ( ( j O a 0 *.6 6 - = = n - > ",
"^ = = . d.0 < = * + b o a +   4 9#0#|#1#2#2#3#4#F+p+5#6#2#2#7#<#a#{ Y [ 5 + b b + 5 [ [ [ [ , > < < ",
"*.= = . 0 &./ = ^ O b $ a +   { b#c#|#1#2#2#3#4#F+p+5#6#2#2#7#<#d#{ = ( ,   $ $   ' ' ' [ [ Y ; < ] ",
"x +   + + 0 = ( ' 4 &.&.$ y N 3 d+e#|#1#2#2#3#4#F+p+5#6#2#2#7#<#d#< ( [ 5   $ b w     & h _ h . {   ",
"b b A + .   ' i i = < < l p # ].f#g#~#h#2#2#3#/#F+p+i#j#2#2#7#<#W < 6 [ ,   $ $ (+3 $ O _ t h % +   ",
"o b b + + + ' t _ m ] / l # # k#l#m#n#o#p#p#q#r#F+p+s#t#p#u#v#w#x#{ 6 , , 4 (+$ b o v w _ 7 [   +   ",
"    % 4 { 4 ' _ _ ^ ~ ~ u y y 4.y#z#A#B#C#C#r#D#F+F+E#F#C#C#G#H#2.< % /+w u b b v &.O   ' h ( + 0   ",
"_ 7 7 m = ^ h t t P . ~ * ) [ w I#J#F+F+F+F+F+F+F+F+F+F+F+F+F+K#%.= y p p z b o a ] ] ; ^ ^ ^ + &.+ ",
"t _ i ^ = ^ [ t _ P . ~ P ' L#M#N#J#F+F+F+F+F+F+F+F+F+F+F+F+F+O#P#= y # # Q#v b &.] 4 ; = = ; + 0 0 ",
"m ^ m 4 { 4 4 r r { ~ ~ ; ; & f+R#S#T#U#V#W#X#Y#Z#`# $.$+$@$@$#$$$- A N N c v X + < - ; * * ; ] 4 4 ",
"$ (+(+v b b @ 2 p /+[ [ ! b o a ! ! . . . . + .   ( , , . . . . ! + ] ^ ; ; ~ { { = - * { ~ =+7 _ 7 ",
"(+$ (+b b b %$# # E@9@[   v b &.! ~ . . . .   + . [ , [ ! . . . . . ] ^ = ; . d.; = = = ~ ~ ; 7 t 7 ",
"u u $ u $ $ %$@ 2 % *.)   (+(+O { ! { . + . . + . ( [ ) ! . ! % % ! ; * * > 4 { ] = = - { ] ; i | : ",
"= *.=   . x ] < ] ] ] & O $ $ O , , 6   . + . . . { ~ { ! d.! ( ' [ ; ! . ; 6 = - { < < < < ; = ^ ^ ",
"^ ^ =     % 4 < 9 ] ] ] + o (+% ( , 6 . ! + . . . { n > { ! j 6 ' , ; ~ ! ; = * ; ] ] < < < < = = = ",
"= = =   . . { ; - ] ] < &.o b /+[ [ 6 . . + + + . =+; { ! d.! * ( , ; ! d.; - = ; ; 9 ] - ] ] = ^ m "};
