/* XPM */
static char * perso_right2_xpm[] = {
"50 50 524 2",
"  	c #66B83A",
". 	c #6AB93A",
"+ 	c #9ADC5C",
"@ 	c #A3E25D",
"# 	c #7BC644",
"$ 	c #6AB53B",
"% 	c #6BB541",
"& 	c #60A63A",
"* 	c #57A431",
"= 	c #5AA42D",
"- 	c #5DAB2E",
"; 	c #5EAB33",
"> 	c #5FB032",
", 	c #4E9926",
"' 	c #51962C",
") 	c #519A26",
"! 	c #64B53A",
"~ 	c #5FB038",
"{ 	c #63B234",
"] 	c #62AD33",
"^ 	c #5AA432",
"/ 	c #61A334",
"( 	c #529B2B",
"_ 	c #468A2A",
": 	c #4B9325",
"< 	c #61AD2E",
"[ 	c #4E992A",
"} 	c #529632",
"| 	c #498A2A",
"1 	c #9CE161",
"2 	c #9EE15B",
"3 	c #7BC548",
"4 	c #64AD39",
"5 	c #519625",
"6 	c #56A32C",
"7 	c #468B25",
"8 	c #479021",
"9 	c #63B32D",
"0 	c #6CBB36",
"a 	c #74C23D",
"b 	c #7CC943",
"c 	c #85CB4C",
"d 	c #98D954",
"e 	c #81C64D",
"f 	c #69A83E",
"g 	c #92D45B",
"h 	c #4D942B",
"i 	c #498B25",
"j 	c #69B536",
"k 	c #6DBC40",
"l 	c #8ACC4E",
"m 	c #5A9D32",
"n 	c #5FB02F",
"o 	c #7CC93E",
"p 	c #A3E362",
"q 	c #89C754",
"r 	c #729669",
"s 	c #81A670",
"t 	c #A3CF7B",
"u 	c #9CC77D",
"v 	c #73936A",
"w 	c #739469",
"x 	c #74926A",
"y 	c #759D69",
"z 	c #759D6A",
"A 	c #7FAF6E",
"B 	c #7EAD6C",
"C 	c #88B970",
"D 	c #89C861",
"E 	c #74BC42",
"F 	c #70B73A",
"G 	c #8BCD51",
"H 	c #8BD24E",
"I 	c #7EC94A",
"J 	c #8DD252",
"K 	c #4B872B",
"L 	c #577151",
"M 	c #0B0B0B",
"N 	c #181412",
"O 	c #191413",
"P 	c #141111",
"Q 	c #141912",
"R 	c #8DC66E",
"S 	c #92D255",
"T 	c #76C343",
"U 	c #72BC3C",
"V 	c #5BA539",
"W 	c #5C7C52",
"X 	c #080100",
"Y 	c #583D34",
"Z 	c #5F4238",
"` 	c #5F4237",
" .	c #3F2A23",
"..	c #020202",
"+.	c #7EB267",
"@.	c #559C31",
"#.	c #5E8052",
"$.	c #0F0502",
"%.	c #714E43",
"&.	c #795548",
"*.	c #51372F",
"=.	c #7AAC66",
"-.	c #70BC37",
";.	c #74C83F",
">.	c #5A9C2E",
",.	c #5F8151",
"'.	c #92CE59",
").	c #74965B",
"!.	c #7B564A",
"~.	c #845F53",
"{.	c #846053",
"].	c #845F52",
"^.	c #583F36",
"/.	c #7CB166",
"(.	c #478D1F",
"_.	c #85CB51",
":.	c #7D9F5E",
"<.	c #785547",
"[.	c #8F6A5D",
"}.	c #E2B3A4",
"|.	c #E2B4A5",
"1.	c #E2B4A4",
"2.	c #987C6D",
"3.	c #040303",
"4.	c #7DB567",
"5.	c #65B936",
"6.	c #785447",
"7.	c #977164",
"8.	c #FECCBC",
"9.	c #FFCCBC",
"0.	c #FAC7B8",
"a.	c #F4C3B4",
"b.	c #A18875",
"c.	c #050403",
"d.	c #7FB26A",
"e.	c #719359",
"f.	c #FFCDBC",
"g.	c #C8A093",
"h.	c #785F57",
"i.	c #503E38",
"j.	c #030202",
"k.	c #79A566",
"l.	c #638A52",
"m.	c #7B574A",
"n.	c #8A6558",
"o.	c #A37C6F",
"p.	c #FFCDBD",
"q.	c #B79286",
"r.	c #060403",
"s.	c #000000",
"t.	c #709864",
"u.	c #4FA02B",
"v.	c #658A52",
"w.	c #714E42",
"x.	c #876255",
"y.	c #E9B9AA",
"z.	c #EFBFB0",
"A.	c #739766",
"B.	c #658654",
"C.	c #150B07",
"D.	c #886459",
"E.	c #9E786B",
"F.	c #FBC9B9",
"G.	c #C29A8E",
"H.	c #604C45",
"I.	c #3F312C",
"J.	c #76A267",
"K.	c #5FAD3C",
"L.	c #628354",
"M.	c #2D221D",
"N.	c #E2B4A6",
"O.	c #F3C3B3",
"P.	c #F7C5B6",
"Q.	c #EEBFB0",
"R.	c #A38277",
"S.	c #050303",
"T.	c #7EB16A",
"U.	c #75B443",
"V.	c #86CB57",
"W.	c #8ACB59",
"X.	c #75AC54",
"Y.	c #5C9148",
"Z.	c #5E924B",
"`.	c #6BA951",
" +	c #75B852",
".+	c #5B7E4E",
"++	c #2C211D",
"@+	c #DCB0A2",
"#+	c #ECBEAE",
"$+	c #EBBDAE",
"%+	c #A18076",
"&+	c #7FAF6D",
"*+	c #70B04F",
"=+	c #6BAF4A",
"-+	c #69A94B",
";+	c #659D51",
">+	c #60904D",
",+	c #5E8F4A",
"'+	c #4D6A3F",
")+	c #4E6843",
"!+	c #485B42",
"~+	c #455342",
"{+	c #455242",
"]+	c #465742",
"^+	c #496043",
"/+	c #111213",
"(+	c #020101",
"_+	c #41322D",
":+	c #473631",
"<+	c #473632",
"[+	c #2D221E",
"}+	c #3A4C35",
"|+	c #485943",
"1+	c #465443",
"2+	c #465243",
"3+	c #465143",
"4+	c #465442",
"5+	c #465841",
"6+	c #607C58",
"7+	c #7ABC46",
"8+	c #7BC63F",
"9+	c #4E3C37",
"0+	c #6D564E",
"a+	c #6D554E",
"b+	c #69544F",
"c+	c #183F65",
"d+	c #083D67",
"e+	c #083D68",
"f+	c #042948",
"g+	c #4F3E38",
"h+	c #68524B",
"i+	c #312622",
"j+	c #57704F",
"k+	c #B19181",
"l+	c #F6C5B5",
"m+	c #F5C4B5",
"n+	c #EFC2B8",
"o+	c #4295E6",
"p+	c #1F90EA",
"q+	c #2090EA",
"r+	c #2091EB",
"s+	c #1567A8",
"t+	c #B79186",
"u+	c #ECBDAE",
"v+	c #566950",
"w+	c #BB9589",
"x+	c #F8CABF",
"y+	c #449BEF",
"z+	c #2096F3",
"A+	c #2196F3",
"B+	c #2197F4",
"C+	c #166BAE",
"D+	c #BE978B",
"E+	c #7D635B",
"F+	c #556451",
"G+	c #2196F4",
"H+	c #FECCBB",
"I+	c #F5C4B4",
"J+	c #556650",
"K+	c #2093EE",
"L+	c #1B82D3",
"M+	c #1C84D6",
"N+	c #98926C",
"O+	c #B9AF83",
"P+	c #C5AE8E",
"Q+	c #CFAF96",
"R+	c #D4AE9A",
"S+	c #D7AF9C",
"T+	c #D0AC97",
"U+	c #BCA688",
"V+	c #6B564D",
"W+	c #566E4E",
"X+	c #B29881",
"Y+	c #FBCCBA",
"Z+	c #F9CBC0",
"`+	c #459CF0",
" @	c #1D8BE1",
".@	c #063255",
"+@	c #2196F2",
"@@	c #010306",
"#@	c #55744B",
"$@	c #8B8963",
"%@	c #B1AA7F",
"&@	c #B7A385",
"*@	c #BFA08C",
"=@	c #C59D91",
"-@	c #C09B93",
";@	c #3377B8",
">@	c #166CB0",
",@	c #115A95",
"'@	c #1465A6",
")@	c #2195F3",
"!@	c #759E60",
"~@	c #779A69",
"{@	c #709168",
"]@	c #78A06A",
"^@	c #7CAB6D",
"/@	c #7DAD6B",
"(@	c #7BA66A",
"_@	c #76A069",
":@	c #79A46B",
"<@	c #4E9A32",
"[@	c #031628",
"}@	c #2093ED",
"|@	c #8DC56E",
"1@	c #8BBE6F",
"2@	c #8BBF70",
"3@	c #88BA70",
"4@	c #85B56C",
"5@	c #82B36E",
"6@	c #7FAB6D",
"7@	c #729468",
"8@	c #3F5239",
"9@	c #000B1B",
"0@	c #125C97",
"a@	c #1567A9",
"b@	c #2094F0",
"c@	c #5B7551",
"d@	c #00172E",
"e@	c #1F8DE5",
"f@	c #2197F5",
"g@	c #82B66A",
"h@	c #597650",
"i@	c #00162D",
"j@	c #1E8CE3",
"k@	c #81B86C",
"l@	c #72BA48",
"m@	c #5A7750",
"n@	c #1F8CE4",
"o@	c #166BAF",
"p@	c #81B86D",
"q@	c #81C944",
"r@	c #98D75D",
"s@	c #5D7951",
"t@	c #000311",
"u@	c #0C497B",
"v@	c #0D4F84",
"w@	c #0D5084",
"x@	c #07365D",
"y@	c #75A268",
"z@	c #4F9733",
"A@	c #5D7D51",
"B@	c #719768",
"C@	c #729867",
"D@	c #618255",
"E@	c #273523",
"F@	c #04061B",
"G@	c #334296",
"H@	c #3847A1",
"I@	c #3848A2",
"J@	c #2A367D",
"K@	c #010105",
"L@	c #496143",
"M@	c #617F55",
"N@	c #77AC62",
"O@	c #60A641",
"P@	c #6B8E5F",
"Q@	c #020410",
"R@	c #0A0E28",
"S@	c #3B4CAA",
"T@	c #3F51B6",
"U@	c #3F51B5",
"V@	c #3E50B4",
"W@	c #3D4FB0",
"X@	c #2E3C89",
"Y@	c #050616",
"Z@	c #040513",
"`@	c #000007",
" #	c #7FB169",
".#	c #61AC3A",
"+#	c #80AF6C",
"@#	c #5E7F50",
"##	c #303F2B",
"$#	c #00010B",
"%#	c #334397",
"&#	c #394AA6",
"*#	c #3F51B3",
"=#	c #36469F",
"-#	c #131942",
";#	c #232E6A",
">#	c #3949A5",
",#	c #394AA5",
"'#	c #3B53A2",
")#	c #24306F",
"!#	c #000002",
"~#	c #4F6C44",
"{#	c #618553",
"]#	c #75A663",
"^#	c #7DC749",
"/#	c #7AC34B",
"(#	c #76A065",
"_#	c #060A20",
":#	c #0A0F2B",
"<#	c #3A4AA7",
"[#	c #3E50B3",
"}#	c #3B4CAB",
"|#	c #324092",
"1#	c #223160",
"2#	c #4365A0",
"3#	c #4059AB",
"4#	c #2A387E",
"5#	c #090E27",
"6#	c #010314",
"7#	c #22311C",
"8#	c #7CAA6A",
"9#	c #5D9F41",
"0#	c #85B66C",
"a#	c #5D7F4B",
"b#	c #3D502F",
"c#	c #00010A",
"d#	c #324193",
"e#	c #3B4DAC",
"f#	c #3F50B3",
"g#	c #10163D",
"h#	c #0B1130",
"i#	c #000001",
"j#	c #05081D",
"k#	c #0D1437",
"l#	c #2C3B7B",
"m#	c #3F51B4",
"n#	c #3D4EAF",
"o#	c #232E6D",
"p#	c #040404",
"q#	c #445C3C",
"r#	c #57744F",
"s#	c #70A05C",
"t#	c #7CA869",
"u#	c #01020C",
"v#	c #35459D",
"w#	c #334295",
"x#	c #000109",
"y#	c #344630",
"z#	c #628553",
"A#	c #517245",
"B#	c #010000",
"C#	c #293873",
"D#	c #4054B3",
"E#	c #2A377F",
"F#	c #131B44",
"G#	c #050A24",
"H#	c #30412B",
"I#	c #70A35F",
"J#	c #7BA16A",
"K#	c #35459C",
"L#	c #3A4BA8",
"M#	c #10173D",
"N#	c #0A102F",
"O#	c #68855F",
"P#	c #63AD36",
"Q#	c #80B06B",
"R#	c #0A0A03",
"S#	c #2B3E73",
"T#	c #4157B2",
"U#	c #3E55A6",
"V#	c #1F2A64",
"W#	c #303E2C",
"X#	c #6FA35E",
"Y#	c #7BAA6C",
"Z#	c #3848A3",
"`#	c #030518",
" $	c #37492C",
".$	c #749661",
"+$	c #87AE70",
"@$	c #84BB6D",
"#$	c #0C0B06",
"$$	c #273C67",
"%$	c #394FA0",
"&$	c #3747A2",
"*$	c #37499E",
"=$	c #1D275D",
"-$	c #37472E",
";$	c #87BF69",
">$	c #11173C",
",$	c #090E2A",
"'$	c #7B9E5E",
")$	c #A5E263",
"!$	c #A5E262",
"~$	c #90C771",
"{$	c #0C0C0C",
"]$	c #04071B",
"^$	c #0A102E",
"/$	c #030517",
"($	c #485D35",
"_$	c #ABE17B",
":$	c #7AAA6B",
"<$	c #010109",
"[$	c #2C3A84",
"}$	c #35449A",
"|$	c #05081C",
"1$	c #1D2719",
"2$	c #6B8C5E",
"3$	c #9DC879",
"4$	c #8FC571",
"5$	c #4A6035",
"6$	c #AAE077",
"7$	c #91D54F",
"8$	c #6AA742",
"9$	c #05071D",
"0$	c #070B24",
"a$	c #060A22",
"b$	c #3E5835",
"c$	c #6BA648",
"d$	c #99D75F",
"e$	c #98D557",
"f$	c #88BD6C",
"g$	c #111A0E",
"h$	c #475E34",
"i$	c #9DD272",
"j$	c #73A266",
"k$	c #76A466",
"l$	c #82B16A",
"m$	c #82B168",
"n$	c #7EAC68",
"o$	c #77A467",
"p$	c #77A667",
"q$	c #7AAA69",
"r$	c #6EA35C",
"s$	c #6E9362",
"t$	c #76A467",
"u$	c #79A767",
"v$	c #769F65",
"w$	c #749C66",
"x$	c #72B058",
"y$	c #96DA59",
"  . + @ @ # $ % & * = = = = - ; > ; , ' ) ! ; ~ = * = .     { ] ] ^ ^ ^ / ] ] / = = ( _ _ : ! ] { $ ",
"    + @ @ # $ $ ] = * = = = < { > ; [ } ( { { ] = = =       ] ] ] ^ = = < ] < / = = * _ _ | ] - { % ",
"%   1 2 @ 3 $ . ] = = = = = / 4 { ; , 5 ' 4 4 4 6 = = $     { - < = ^ = < = < - = = ( 7 _ 8 4 9 > . ",
"    . 0 0 a # b . ! $ c + d e 8 _ f + + g h i : [ ) , { j   a # 3 k . j l + 1 l ] ; ; = m ^ ] { n   ",
"%   ~ ~ n a o b .   . l @ p q | r s t t u v w x y z y A A B C D b E . F G @ p H ] ; - = = ; ] < {   ",
"$ . 4 ~ > # b I k   . J @ @ q K L M N O O O O O O O O O O P Q R b 0 . $ G p p S { { / = = ^ ] { ] % ",
"# T { ~ { ^ ^ ^ ; ; ^ $ U U $ V W X Y Z ` ` ` ` ` ` ` ` `  ...+.] ! . U F % F ] ' ' ' h | [ ^ = - # ",
"b b { 9 4 @.( ( ( ^ = / ] ] ] ; #.$.%.&.&.&.&.&.&.&.&.&.&.*...=.= j -.-.] = = ' i K i i i | ^ = = ;.",
"b b j { ] >.) , 6 = = - ; ] ] < ,.$.%.&.&.&.&.&.&.&.&.&.&.*...=.= j 0 0 { = * ' _ _ 7 _ _ | m ^ = b ",
"& & = = = = - = ] { { ! { ! E '.).$.%.&.&.!.~.{.{.{.{.{.].^.../.- {     { - ; ^ ^ ^ @.@.@.( ( ( ( ^ ",
"_ (.>.= = < < ] j $       ! _.@ :.$.%.&.<.[.}.|.|.|.|.|.1.2.3.4.>       { > n ; { { ; = * ^ [ ( ' | ",
"| 7 = = = - < < ! .   5.~   I @ :.$.%.&.6.7.8.9.9.9.9.0.a.b.c.d.4 %     j > > ; { n n 6 = ^ [ 5 ' _ ",
"4 4 = = ^ { j j { 4 ; { 5.. T l e.$.%.&.6.7.8.9.9.9.f.g.h.i.j.k.( ] ; ; ~ ! { ; * 6 6 - - ; = = = ] ",
"o b = = = j 0 . ] 6 = { 0 0 0 . l.$.%.m.n.o.8.9.9.9.p.q.r.s...t.i >.6 * ~ ! { ; , , u.] < - > > > o ",
"o b - ^ ^ j 0 . 4 * 6 { 0 -.0 -.v.$.w.x.y.z.9.9.9.9.p.q.j.s...A.| >.= = ; ! ! ; ( ) 6 ] < n n > > # ",
"H J ; >.6 / ] ] ] j j { & & $ . B.C.D.E.F.9.9.9.9.9.p.G.H.I.j.J.( ( = ^ ; ^ K.^ ( 6 6 ; 9 n j { { H ",
"@ p / [ ( 8 7 7 $ o o 4 i | @.. L.M.N.O.9.9.9.9.9.9.9.P.Q.R.S.T.] = = * ' _ 7 ' ] < < < 9 {       @ ",
"@ p / [ } _ i K U.V.W.X.Y.Z.`. +.+++@+#+$+$+$+$+$+$+$+$+$+%+3.&+*+=+-+`.;+>+,+' ] < < n < -     ! p ",
"'.'./ ( } >.m m % '+)+!+~+{+]+^+/+(+_+:+:+:+:+:+:+:+:+<+<+[+s.}+|+1+2+3+4+5+6+>.] < - { j { 5.j j S ",
"5 , 6 = = 7+8+b . s.9+0+a+a+a+a+a+b+c+d+d+d+d+d+d+d+e+f+s.g+a+a+a+a+a+a+h+i+j+{ = = -     5.; > > 5 ",
"[ [ 6 = = U # b   s.k+l+m+m+m+m+m+n+o+p+q+q+q+q+q+q+r+s+s.t+m+m+m+m+m+m+u+h.v+; = = - 5.  ! { > > ( ",
"( [ = = = E 3 # j s.w+p.9.9.9.9.9.x+y+z+A+A+A+A+A+A+B+C+s.D+9.9.9.9.9.9.m+E+F+{ - - ; ! ! ! 4 { > ( ",
"> ~ = = ^ = = 6 - s.w+p.9.9.9.9.9.x+y+z+A+A+A+A+A+A+G+C+s.D+H+9.9.9.9.9.I+E+J+. b b T ) , ( ! ~ % ~ ",
"n n = * = = = = - s.w+p.9.9.9.9.9.x+y+K+L+M+A+A+A+A+G+C+s.N+O+P+Q+R+S+T+U+V+W+. b # E 5 [ (       n ",
"> ; - / = = ^ = ; s.X+Y+p.p.p.p.p.Z+`+ @s..@+@A+A+A+G+C+@@s.s.s.s.s.s.s.s.s.#@$ # # E ( ) ( ! 5.~ { ",
"* = + @ 2 . = = U s.$@%@&@*@=@=@=@-@;@>@,@'@)@A+A+A+G+C+s.!@~@{@{@]@^@/@(@_@:@4 . $ { 6 = ( ( ) <@- ",
"= = + @ @ . = = U s.s.s.s.s.s.s.s.s.s.[@}@B+A+A+A+A+G+C+s.|@>.7 7 V     ; * = ] $ 0 j = = = 5 [ <@= ",
"= = + p p U = = T 1@2@3@4@5@6@7@8@9@0@a@b@A+A+A+A+A+G+C+s.|@^ i 7 K.~ { ; = = ] $   j = 6 6 , [ ( = ",
"  $ ( m >.E E T . { 9 9 { 4 ; ' c@d@e@f@A+A+A+A+A+A+G+C+s.g@! ~ { {   { { > >   3 # T ] ; ; (.7 |   ",
"% % h K _ E o b . { ; > - 9 = [ h@i@j@A+A+A+A+A+A+A+G+C+s.k@{   ! ! ! 5.{ > n 0 b # T { ~ ] 7 K K % ",
". % : _ _ l@b b 0 { ] { ] 4 = ( m@i@n@B+B+B+B+B+B+B+f@o@s.p@~ ! ! ! { j { { { $ q@# T { ; ; 7 _ | % ",
"+ r@] [ } $ U 0 a 8+U ] h h ( 6 s@t@u@v@v@v@v@v@v@v@w@x@s.y@V ^ ; ; ; - n ; 4 ! j j j     ~ * ; - r@",
"@ p ] = = 9   . T q@q@4 K _ z@>.A@s.s.s.s.s.s.s.s.s.s.s.s.B@( >.= = = = - { ] ] ] < ] . . j ] > { @ ",
"@ @ < = = j % . T b b 4 | _ C@D@E@F@G@H@H@H@H@H@I@J@K@s.s.L@M@N@= = = * = ] 9 < ] ] ] 0 . ! 9 > { @ ",
"7+7+j j j ; ; ; T b o E & O@P@s.Q@R@S@T@U@U@U@V@W@X@Y@Z@Z@`@s. #.#^ ( ( j U a 0 >.6 6 - = = n - > # ",
"= =   5.0 < = * . b o a +#@###$#%#&#*#U@U@U@T@=#-#;#>#,#'#)#!#~#{#]#[ 5 . b b . 5 [ [ [ [ , > < < ^ ",
"= =   0 -./ = ^ U b ^#/#(#s._#:#<#T@U@U@U@[#}#|#!#1#2#3#U@4#5#6#7#8#9#, $ # # $ ' ' ' [ [ @.; < ] >.",
". $ . . 0 = ( ' 4 -.0#a#b#c#d#e#f#U@U@U@T@>#g#h#i#j#k#l#m#n#}#o#p#q#r#s#$ # b E $ $ & h _ h   { $ F ",
"b I .   $ ' i i = < t#s.s.u#v#T@U@U@U@[#<#w#x#y#z#A#B#C#D#U@U@E#F#G#H#I#$ # # q@3 # U _ K h % . $ b ",
"b b . . . ' K _ m ] J#s.s.u#K#T@U@U@U@L#M#N#s.O#P#Q#R#S#T#U@U@W@U#V#W#X#4 q@# b o 8+E _ 7 [ $ . $ o ",
"$ % 4 { 4 ' _ _ ^ ~ Y#s.s.u#K#T@U@m#Z#w#`# $.$+$F @$#$$$%$&$&$&$*$=$-$;$T b b 8+-.U $ ' h ( . 0 $ $ ",
"7 7 m = ^ h K K V   Y#s.s.u#K#T@U@W@>$,$s.'$)$!$q@~${$]$N#N#N#N#^$/$($_$H b o a ] ] ; ^ ^ ^ . -.. _ ",
"_ i ^ = ^ [ K _ V   :$s.s.<$[$}$}$w#|$1$2$3$@ @ q@4${$s.s.s.s.s.s.s.5$6$7$8+b -.] 4 ; = = ; . 0 0 K ",
"^ m 4 { 4 4 8$8${ ~ :$s.s.s.9$0$0$a$i#b$c$d$e$g U.f$g$s.s.s.s.s.s.s.h$i$c 8+;.. < - ; * * ; ] 4 4 m ",
"q@q@8+b b + 2 p U.[ j$k$l$m$n$o$o$p$p$q$  .   $ ( r$s$p$p$p$p$t$u$v$w$x$; ~ { { = - * { ~ K.7 _ 7 # ",
"# q@b b b y$@ @ l@<@[ $ 8+b -.! ~         $ .   [ , [ !           ] ^ = ;   5.; = = = ~ ~ ; 7 K 7 q@",
"T # T # # y$+ 2 % >.) $ q@q@U { ! {   .     .   ( [ ) !   ! % % ! ; * * > 4 { ] = = - { ] ; i | : T ",
">.= $   F ] < ] ] ] & U # # U , , 6 $   .       { ~ { ! 5.! ( ' [ ; !   ; 6 = - { < < < < ; = ^ ^ = ",
"^ = $ $ % 4 < 9 ] ] ] . o q@% ( , 6   ! .       { n > { ! j 6 ' , ; ~ ! ; = * ; ] ] < < < < = = = ^ ",
"= = $     { ; - ] ] < -.o b U.[ [ 6     . . .   K.; { ! 5.! * ( , ; ! 5.; - = ; ; 9 ] - ] ] = ^ m = "};
