/* XPM */
static char * perso_down2_xpm[] = {
"50 50 447 2",
"  	c #6AB53B",
". 	c #66B83A",
"+ 	c #6AB93A",
"@ 	c #9ADC5C",
"# 	c #A3E25D",
"$ 	c #7BC644",
"% 	c #6BB541",
"& 	c #60A63A",
"* 	c #57A431",
"= 	c #5AA42D",
"- 	c #5DAB2E",
"; 	c #5EAB33",
"> 	c #5FB032",
", 	c #4E9926",
"' 	c #51962C",
") 	c #519A26",
"! 	c #64B53A",
"~ 	c #5FB038",
"{ 	c #63B234",
"] 	c #62AD33",
"^ 	c #5AA432",
"/ 	c #61A334",
"( 	c #529B2B",
"_ 	c #468A2A",
": 	c #4B9325",
"< 	c #61AD2E",
"[ 	c #4E992A",
"} 	c #529632",
"| 	c #498A2A",
"1 	c #9CE161",
"2 	c #9EE15B",
"3 	c #7BC548",
"4 	c #64AD39",
"5 	c #519625",
"6 	c #56A32C",
"7 	c #468B25",
"8 	c #479021",
"9 	c #63B32D",
"0 	c #6CBB36",
"a 	c #74C23D",
"b 	c #7CC943",
"c 	c #85CB4C",
"d 	c #98D954",
"e 	c #81C64D",
"f 	c #69A83E",
"g 	c #92D45B",
"h 	c #4D942B",
"i 	c #498B25",
"j 	c #69B536",
"k 	c #6DBC40",
"l 	c #8ACC4E",
"m 	c #5A9D32",
"n 	c #5FB02F",
"o 	c #7CC93E",
"p 	c #A3E362",
"q 	c #89C754",
"r 	c #6AA742",
"s 	c #98D761",
"t 	c #4B872B",
"u 	c #76C343",
"v 	c #7BC63F",
"w 	c #74BC42",
"x 	c #70B73A",
"y 	c #8BCD51",
"z 	c #8BD24E",
"A 	c #7EC94A",
"B 	c #8DD252",
"C 	c #65B936",
"D 	c #92D255",
"E 	c #72BC3C",
"F 	c #5EA63E",
"G 	c #79A46B",
"H 	c #7BAB6C",
"I 	c #86B36F",
"J 	c #86B370",
"K 	c #85B36E",
"L 	c #7AA36D",
"M 	c #7BA76A",
"N 	c #79A36B",
"O 	c #7EAE6D",
"P 	c #7DA96B",
"Q 	c #86BB6E",
"R 	c #87B86F",
"S 	c #80AF6C",
"T 	c #77B35B",
"U 	c #74C83F",
"V 	c #559C31",
"W 	c #64AD3F",
"X 	c #3E5834",
"Y 	c #030303",
"Z 	c #0C0908",
"` 	c #0D0908",
" .	c #080606",
"..	c #2A3F22",
"+.	c #79AC65",
"@.	c #70BC37",
"#.	c #5A9C2E",
"$.	c #65AE39",
"%.	c #3D5732",
"&.	c #110906",
"*.	c #5F4137",
"=.	c #624339",
"-.	c #614339",
";.	c #3C2821",
">.	c #222B1F",
",.	c #7AAC66",
"'.	c #94CE5D",
").	c #4C643A",
"!.	c #180F0A",
"~.	c #765346",
"{.	c #7A5649",
"].	c #815D50",
"^.	c #7D594C",
"/.	c #795548",
"(.	c #4C332B",
"_.	c #1E1E1E",
":.	c #7DB268",
"<.	c #478D1F",
"[.	c #85CB51",
"}.	c #A4E25F",
"|.	c #51693C",
"1.	c #765245",
"2.	c #8E695C",
"3.	c #DFB0A1",
"4.	c #DFB0A2",
"5.	c #B0877B",
"6.	c #4C342B",
"7.	c #7EB569",
"8.	c #51683B",
"9.	c #755245",
"0.	c #977164",
"a.	c #FECCBC",
"b.	c #FFCCBC",
"c.	c #C4998B",
"d.	c #7A5549",
"e.	c #81B36D",
"f.	c #8CCC53",
"g.	c #475E38",
"h.	c #7CA669",
"i.	c #6EBA43",
"j.	c #3E5733",
"k.	c #1C120E",
"l.	c #856154",
"m.	c #9E776A",
"n.	c #F3C3B3",
"o.	c #F7C5B6",
"p.	c #FAC8B8",
"q.	c #F4C3B4",
"r.	c #C2988A",
"s.	c #896458",
"t.	c #563E35",
"u.	c #749A68",
"v.	c #4FA02B",
"w.	c #74BD40",
"x.	c #3F5634",
"y.	c #352924",
"z.	c #E3B4A5",
"A.	c #D6A99B",
"B.	c #775E56",
"C.	c #A7857A",
"D.	c #FECBBB",
"E.	c #FFCDBD",
"F.	c #C8A093",
"G.	c #755C55",
"H.	c #BB9488",
"I.	c #E9B8A9",
"J.	c #96766C",
"K.	c #759869",
"L.	c #3F5434",
"M.	c #3B2E2A",
"N.	c #F9C7B7",
"O.	c #E8B9AB",
"P.	c #55423D",
"Q.	c #917369",
"R.	c #F1C1B2",
"S.	c #F2C2B2",
"T.	c #F3C2B3",
"U.	c #B48F84",
"V.	c #503E39",
"W.	c #C59C90",
"X.	c #A58378",
"Y.	c #78A269",
"Z.	c #5FAD3C",
"`.	c #3E5434",
" +	c #F8C7B7",
".+	c #FAC9B9",
"++	c #EABAAC",
"@+	c #CFA598",
"#+	c #705951",
"$+	c #6F5850",
"%+	c #6D564F",
"&+	c #E8BAAB",
"*+	c #F4C4B4",
"=+	c #7EB26B",
"-+	c #75B443",
";+	c #81C944",
">+	c #6EB643",
",+	c #3D5733",
"'+	c #FFCDBC",
")+	c #E0B4A5",
"!+	c #644E47",
"~+	c #614C45",
"{+	c #5E4A43",
"]+	c #7EB26A",
"^+	c #92CE59",
"/+	c #65B53C",
"(+	c #3E5633",
"_+	c #EDBEAF",
":+	c #EDBDAE",
"<+	c #F5C4B4",
"[+	c #7FB769",
"}+	c #7ABC46",
"|+	c #7AB958",
"1+	c #70B054",
"2+	c #6FAB59",
"3+	c #35492D",
"4+	c #352825",
"5+	c #E2B4A6",
"6+	c #E7B9AA",
"7+	c #E8B9AA",
"8+	c #95766D",
"9+	c #1F2B1B",
"0+	c #81B66F",
"a+	c #73B654",
"b+	c #7BBD5B",
"c+	c #7EBF57",
"d+	c #56794A",
"e+	c #54704B",
"f+	c #51674A",
"g+	c #090909",
"h+	c #0D0807",
"i+	c #513F3A",
"j+	c #54413B",
"k+	c #332723",
"l+	c #040404",
"m+	c #465E3F",
"n+	c #56744C",
"o+	c #56734C",
"p+	c #688B58",
"q+	c #000000",
"r+	c #104163",
"s+	c #0B416B",
"t+	c #000710",
"u+	c #000B14",
"v+	c #00486B",
"w+	c #004B6E",
"x+	c #002D44",
"y+	c #000307",
"z+	c #093457",
"A+	c #174A68",
"B+	c #021E37",
"C+	c #475E40",
"D+	c #000010",
"E+	c #2A88C8",
"F+	c #1D8CE3",
"G+	c #031A2F",
"H+	c #002336",
"I+	c #039DE3",
"J+	c #03A2E9",
"K+	c #016797",
"L+	c #010D1B",
"M+	c #1C75BA",
"N+	c #3291CB",
"O+	c #0B4A7B",
"P+	c #424E3E",
"Q+	c #000410",
"R+	c #719BB2",
"S+	c #83A1E0",
"T+	c #181F2E",
"U+	c #002538",
"V+	c #03A5ED",
"W+	c #03A9F4",
"X+	c #026B9E",
"Y+	c #0B101B",
"Z+	c #6C86BC",
"`+	c #76A2BB",
" @	c #456372",
".@	c #424E3F",
"+@	c #130B08",
"@@	c #E3B9AE",
"#@	c #F1C4BA",
"$@	c #332825",
"%@	c #1E1615",
"&@	c #CAA49B",
"*@	c #D8BDA5",
"=@	c #826C62",
"-@	c #424D3F",
";@	c #150B08",
">@	c #E9BBAC",
",@	c #352824",
"'@	c #1F1614",
")@	c #D0A699",
"!@	c #ECC0AD",
"~@	c #876B62",
"{@	c #445241",
"]@	c #4E9A32",
"^@	c #EABBAD",
"/@	c #F8C7B8",
"(@	c #E9BFAC",
"_@	c #866C62",
":@	c #445141",
"<@	c #0B0301",
"[@	c #B59A84",
"}@	c #C9A093",
"|@	c #291E1B",
"1@	c #DEBAA3",
"2@	c #857060",
"3@	c #445240",
"4@	c #002539",
"5@	c #1F1714",
"6@	c #C8A792",
"7@	c #B0BA7C",
"8@	c #837B5C",
"9@	c #465940",
"0@	c #020000",
"a@	c #86835F",
"b@	c #987E6F",
"c@	c #1D1512",
"d@	c #140E0C",
"e@	c #8B9062",
"f@	c #97A36B",
"g@	c #626644",
"h@	c #496340",
"i@	c #72BA48",
"j@	c #A2AD71",
"k@	c #A3AB73",
"l@	c #352B25",
"m@	c #03A5EE",
"n@	c #03AAF5",
"o@	c #03A9F5",
"p@	c #026C9E",
"q@	c #49683D",
"r@	c #98D75D",
"s@	c #050000",
"t@	c #868B5F",
"u@	c #8D9463",
"v@	c #232016",
"w@	c #001624",
"x@	c #026FA2",
"y@	c #0272A6",
"z@	c #00476A",
"A@	c #141A13",
"B@	c #739B65",
"C@	c #7DAC6B",
"D@	c #7DAC6C",
"E@	c #7DAD6B",
"F@	c #24351F",
"G@	c #77A562",
"H@	c #6E9863",
"I@	c #72A364",
"J@	c #79AB66",
"K@	c #2F4428",
"L@	c #05081E",
"M@	c #303E8E",
"N@	c #314092",
"O@	c #314093",
"P@	c #2A367E",
"Q@	c #010207",
"R@	c #1D275E",
"S@	c #1C265D",
"T@	c #25331F",
"U@	c #5BA539",
"V@	c #3C5434",
"W@	c #080D28",
"X@	c #3E4FB1",
"Y@	c #3F51B6",
"Z@	c #3F52B7",
"`@	c #36459D",
" #	c #01020C",
".#	c #273375",
"+#	c #3F51B5",
"@#	c #263174",
"##	c #253520",
"$#	c #7DB365",
"%#	c #79A269",
"&#	c #688D5D",
"*#	c #192515",
"=#	c #090E28",
"-#	c #3E4FB0",
";#	c #35459C",
">#	c #273275",
",#	c #3F51B4",
"'#	c #253174",
")#	c #263820",
"!#	c #7EB367",
"~#	c #5F8450",
"{#	c #0A0E28",
"]#	c #7EB366",
"^#	c #6A9057",
"/#	c #263620",
"(#	c #75965C",
"_#	c #090D26",
":#	c #3B4CAA",
"<#	c #3D4EAF",
"[#	c #3D4FAF",
"}#	c #344297",
"|#	c #02020B",
"1#	c #253071",
"2#	c #242F70",
"3#	c #25341F",
"4#	c #71975B",
"5#	c #000005",
"6#	c #0D1336",
"7#	c #0E1438",
"8#	c #0A102F",
"9#	c #060A21",
"0#	c #0F1538",
"a#	c #050920",
"b#	c #263920",
"c#	c #7AA263",
"d#	c #577A45",
"e#	c #577B44",
"f#	c #547443",
"g#	c #48633F",
"h#	c #48623F",
"i#	c #4A6240",
"j#	c #536E45",
"k#	c #547044",
"l#	c #455E36",
"m#	c #010101",
"n#	c #273B20",
"o#	c #7BB166",
"p#	c #93CE5A",
"q#	c #4C8C2C",
"r#	c #5D9D34",
"s#	c #A4E364",
"t#	c #A9DA7B",
"u#	c #121A0D",
"v#	c #273A1F",
"w#	c #4F9733",
"x#	c #76B648",
"y#	c #AADC7B",
"z#	c #0C0C0C",
"A#	c #26371F",
"B#	c #77AB64",
"C#	c #91D54F",
"D#	c #98D557",
"E#	c #9DD07A",
"F#	c #070707",
"G#	c #273C1F",
"H#	c #80B966",
"I#	c #648659",
"J#	c #628457",
"K#	c #6B965C",
"L#	c #6D985E",
"M#	c #7BB963",
"N#	c #96DA59",
"  . + @ # # $   % & * = = = = - ; > ; , ' ) ! ; ~ = * = + . . { ] ] ^ ^ ^ / ] ] / = = ( _ _ : ! ] { ",
"% . . @ # # $     ] = * = = = < { > ; [ } ( { { ] = = = . . . ] ] ] ^ = = < ] < / = = * _ _ | ] - { ",
"+ % . 1 2 # 3   + ] = = = = = / 4 { ; , 5 ' 4 4 4 6 = =   . . { - < = ^ = < = < - = = ( 7 _ 8 4 9 > ",
". . . + 0 0 a $ b + !   c @ d e 8 _ f @ @ g h i : [ ) , { j . a $ 3 k + j l @ 1 l ] ; ; = m ^ ] { n ",
". % . ~ ~ n a o b + . + l # p q | _ r # # s | i t [ [ , ! ! { u v b w + x y # p z ] ; - = = ; ] < { ",
"%   + 4 ~ > $ b A k . + B # # q t _ r 1 # s | i i [ [ [ { C . u $ b 0 +   y p p D { { / = = ^ ] { ] ",
"$ $ u { ~ { ^ ^ ^ ; ; ^   E E   F G H I J K L M N O O P Q R R S T ] ! + E x % x ] ' ' ' h | [ ^ = - ",
"U b b { 9 4 V ( ( ( ^ = / ] ] ] W X Y Z Z Z Z Z Z Z Z Z Z `  ...+.= j @.@.] = = ' i t i i i | ^ = = ",
"b b b j { ] #.) , 6 = = - ; ] ] $.%.&.*.=.-.-.-.-.-.-.-.-.-.;.>.,.= j 0 0 { = * ' _ _ 7 _ _ | m ^ = ",
"^ & & = = = = - = ] { { ! { ! w '.).!.~.{.].].].].].].].^./.(._.:.- { . . { - ; ^ ^ ^ V V V ( ( ( ( ",
"| _ <.#.= = < < ] j   . . . ! [.}.|.!.1.2.3.4.4.4.4.4.4.5./.6._.7.> . . . { > n ; { { ; = * ^ [ ( ' ",
"_ | 7 = = = - < < ! + . C ~ . A }.8.!.9.0.a.b.b.b.b.b.b.c.d.6._.e.4 % . . j > > ; { n n 6 = ^ [ 5 ' ",
"] 4 4 = = ^ { j j { 4 ; { C + u f.g.!.9.0.a.b.b.b.b.b.b.c.d.6._.h.( ] ; ; ~ ! { ; * 6 6 - - ; = = = ",
"o o b = = = j 0 + ] 6 = { 0 0 0 i.j.k.l.m.n.o.b.b.b.p.q.r.s.t._.u.i #.6 * ~ ! { ; , , v.] < - > > > ",
"$ o b - ^ ^ j 0 + 4 * 6 { 0 @.0 w.x.y.z.A.B.C.D.b.E.F.G.H.I.J._.K.| #.= = ; ! ! ; ( ) 6 ] < n n > > ",
"z z B ; #.6 / ] ] ] j j { & &   i.L.M.N.O.P.Q.R.S.T.U.V.W.b.X._.Y.( ( = ^ ; ^ Z.^ ( 6 6 ; 9 n j { { ",
"# # p / [ ( 8 7 7   o o 4 i | V i.`.M. +.+++@+#+$+%+C.&+*+b.X._.=+] = = * ' _ 7 ' ] < < < 9 { . . . ",
"p # p / [ } _ i t -+o ;+f | | ^ >+,+M. +b.'+)+!+~+{+U.D.b.b.X._.]+4 - = ^ } t t ' ] < < n < - . . ! ",
"D ^+^+/ ( } #.m m % a a ] } } ^ /+(+M. +b.b.p._+:+:+<+b.b.b.X._.[+4 ] ] & m [ [ #.] < - { j { C j j ",
"5 5 , 6 = = }+v b + ~ ~ ~ ! |+1+2+3+4+5+O.6+6+6+6+6+6+6+6+7+8+9+0+a+b+c+@.+ . ! { = = - . . C ; > > ",
"( [ [ 6 = = E $ b . Z.> ~ C d+e+f+g+h+i+j+j+j+j+j+j+j+j+j+j+k+l+m+n+o+p+C . ! C ; = = - C . ! { > > ",
"( ( [ = = = w 3 $ j > n { j q+r+s+t+u+v+w+w+w+w+w+w+w+w+w+w+x+y+z+A+B+C++ ! ! ! { - - ; ! ! ! 4 { > ",
"~ > ~ = = ^ = = 6 - n > > n D+E+F+G+H+I+J+J+J+J+J+J+J+J+J+J+K+L+M+N+O+P+i ( 4 ~ + b b u ) , ( ! ~ % ",
"n n n = * = = = = - n { n n Q+R+S+T+U+V+W+W+W+W+W+W+W+W+W+W+X+Y+Z+`+ @.@| m { > + b $ w 5 [ ( . . . ",
"{ > ; - / = = ^ = ; { - n > +@@@#@$@U+V+W+W+W+W+W+W+W+W+W+W+X+%@&@*@=@-@i ( ~ ~   $ $ w ( ) ( ! C ~ ",
"- * = @ # 2 + = = E $ b a + ;@>@ +,@U+V+W+W+W+W+W+W+W+W+W+W+X+'@)@!@~@{@C ] * * 4 +   { 6 = ( ( ) ]@",
"= = = @ # # + = = E b b a + ;@^@/@4+U+V+W+W+W+W+W+W+W+W+W+W+X+'@)@(@_@:@. ; * = ]   0 j = = = 5 [ ]@",
"= = = @ p p E = = u b b u @.<@[@}@|@U+V+W+W+W+W+W+W+W+W+W+W+X+'@)@1@2@3@{ ; = = ]   . j = 6 6 , [ ( ",
". .   ( m #.w w u + { 9 9 { q+q+q+q+4@V+W+W+W+W+W+W+W+W+W+W+X+5@6@7@8@9@{ { > > . 3 $ u ] ; ; <.7 | ",
"% % % h t _ w o b + { ; > - 0@a@b@c@U+V+W+W+W+W+W+W+W+W+W+W+X+d@e@f@g@h@C { > n 0 b $ u { ~ ] 7 t t ",
"% + % : _ _ i@b b 0 { ] { ] ;@j@k@l@4@m@n@o@o@o@o@o@o@o@o@o@p@q+q+q+q+q@j { { {   ;+$ u { ; ; 7 _ | ",
"r@@ r@] [ }   E 0 a v E ] h s@t@u@v@w@x@y@y@y@y@y@y@y@y@y@y@z@A@B@C@D@E@- n ; 4 ! j j j . . ~ * ; - ",
"# # p ] = = 9 . + u ;+;+4 t q+q+q+q+q+q+q+q+q+q+q+q+q+q+q+q+q+F@G@= = = = - { ] ] ] < ] + + j ] > { ",
"# # # < = = j % + u b b 4 | H@I@J@K@L@M@N@O@P@Q@q+q+R@N@N@N@S@T@+.= = = * = ] 9 < ] ] ] 0 + ! 9 > { ",
"$ }+}+j j j ; ; ; u b o w & U@^ 6 V@W@X@Y@Z@`@ #q+q+.#+#Y@Y@@###$#; ^ ( ( j E a 0 #.6 6 - = = n - > ",
"^ = = . C 0 < = * + b o a +   %#&#*#=#-#+#Y@;# #q+q+>#,#+#+#'#)#!#{ V [ 5 + b b + 5 [ [ [ [ , > < < ",
"#.= = . 0 @./ = ^ E b $ a +   ~#q+q+{#-#+#Y@;# #q+q+>#,#+#+#'#)#]#{ = ( ,   $ $   ' ' ' [ [ V ; < ] ",
"x +   + + 0 = ( ' 4 @.@.$ y D ^#q+q+{#-#+#Y@;# #q+q+>#,#+#+#'#/#]#< ( [ 5   $ b w     & h _ h . {   ",
"b b A + .   ' i i = < < l p # (#q+q+_#:#<#[#}#|#q+q+1#<#<#<#2#3#$#< 6 [ ,   $ $ ;+3 $ E _ t h % +   ",
"o b b + + + ' t _ m ] / l # # 4#q+q+5#6#7#7#8#q+q+q+9#0#0#0#a#b#!#{ 6 , , 4 ;+$ b o v w _ 7 [   +   ",
"    % 4 { 4 ' _ _ ^ ~ ~ u y y c#d#e#f#g#h#i#j#k#l#m#q+q+q+q+q+n#o#< % -+w u b b v @.E   ' h ( + 0   ",
"_ 7 7 m = ^ h t t U@. ~ * ) [ w # # p#q#q#r#s## t#u#q+q+q+q+q+v#+.= y p p z b o a ] ] ; ^ ^ ^ + @.+ ",
"t _ i ^ = ^ [ t _ U@. ~ U@' w#x## # ^+| t m p # y#z#q+q+q+q+q+A#B#= y # # C#v b @.] 4 ; = = ; + 0 0 ",
"m ^ m 4 { 4 4 r r { ~ ~ ; ; & }+@ d [.} ' / r@D#E#F#q+q+q+q+q+G#o#- A D D c v U + < - ; * * ; ] 4 4 ",
"$ ;+;+v b b @ 2 p -+[ [ ! b o a ! ! . . . . + . H#I#J#J#K#K#K#L#M#+ ] ^ ; ; ~ { { = - * { ~ Z.7 _ 7 ",
";+$ ;+b b b N## # i@]@[   v b @.! ~ . . . .   + . [ , [ ! . . . . . ] ^ = ; . C ; = = = ~ ~ ; 7 t 7 ",
"u u $ u $ $ N#@ 2 % #.)   ;+;+E { ! { . + . . + . ( [ ) ! . ! % % ! ; * * > 4 { ] = = - { ] ; i | : ",
"= #.=   . x ] < ] ] ] & E $ $ E , , 6   . + . . . { ~ { ! C ! ( ' [ ; ! . ; 6 = - { < < < < ; = ^ ^ ",
"^ ^ =     % 4 < 9 ] ] ] + o ;+% ( , 6 . ! + . . . { n > { ! j 6 ' , ; ~ ! ; = * ; ] ] < < < < = = = ",
"= = =   . . { ; - ] ] < @.o b -+[ [ 6 . . + + + . Z.; { ! C ! * ( , ; ! C ; - = ; ; 9 ] - ] ] = ^ m "};
