/* XPM */
static char * perso_up1_xpm[] = {
"50 50 386 2",
"  	c #6AB53B",
". 	c #66B83A",
"+ 	c #6AB93A",
"@ 	c #9ADC5C",
"# 	c #A3E25D",
"$ 	c #7BC644",
"% 	c #6BB541",
"& 	c #60A63A",
"* 	c #57A431",
"= 	c #5AA42D",
"- 	c #5DAB2E",
"; 	c #5EAB33",
"> 	c #5FB032",
", 	c #4E9926",
"' 	c #51962C",
") 	c #519A26",
"! 	c #64B53A",
"~ 	c #5FB038",
"{ 	c #63B234",
"] 	c #62AD33",
"^ 	c #5AA432",
"/ 	c #61A334",
"( 	c #529B2B",
"_ 	c #468A2A",
": 	c #4B9325",
"< 	c #61AD2E",
"[ 	c #4E992A",
"} 	c #529632",
"| 	c #498A2A",
"1 	c #9CE161",
"2 	c #9EE15B",
"3 	c #7BC548",
"4 	c #64AD39",
"5 	c #519625",
"6 	c #56A32C",
"7 	c #468B25",
"8 	c #479021",
"9 	c #63B32D",
"0 	c #6CBB36",
"a 	c #74C23D",
"b 	c #7CC943",
"c 	c #85CB4C",
"d 	c #98D954",
"e 	c #81C64D",
"f 	c #69A83E",
"g 	c #92D45B",
"h 	c #4D942B",
"i 	c #498B25",
"j 	c #69B536",
"k 	c #6DBC40",
"l 	c #8ACC4E",
"m 	c #5A9D32",
"n 	c #5FB02F",
"o 	c #7CC93E",
"p 	c #A3E362",
"q 	c #89C754",
"r 	c #6AA742",
"s 	c #98D761",
"t 	c #4B872B",
"u 	c #76C343",
"v 	c #7BC63F",
"w 	c #74BC42",
"x 	c #70B73A",
"y 	c #8BCD51",
"z 	c #8BD24E",
"A 	c #7EC94A",
"B 	c #8DD252",
"C 	c #5A8D44",
"D 	c #729569",
"E 	c #81A56F",
"F 	c #9DCD7C",
"G 	c #A2CE7A",
"H 	c #9BC67C",
"I 	c #729269",
"J 	c #729368",
"K 	c #749C69",
"L 	c #7DAC6B",
"M 	c #7EB16B",
"N 	c #7EB06D",
"O 	c #87B86F",
"P 	c #89C863",
"Q 	c #92D255",
"R 	c #72BC3C",
"S 	c #6FAB59",
"T 	c #54744A",
"U 	c #060505",
"V 	c #0C0908",
"W 	c #080606",
"X 	c #192612",
"Y 	c #7EB268",
"Z 	c #74C83F",
"` 	c #559C31",
" .	c #71B056",
"..	c #56754B",
"+.	c #271A15",
"@.	c #5D4036",
"#.	c #614339",
"$.	c #3E2A23",
"%.	c #0B0C0D",
"&.	c #7AAB67",
"*.	c #70BC37",
"=.	c #5A9C2E",
"-.	c #73B253",
";.	c #57754A",
">.	c #32221B",
",.	c #735144",
"'.	c #795548",
").	c #4F362D",
"!.	c #0A0C0C",
"~.	c #7BAB68",
"{.	c #9BD06D",
"].	c #698653",
"^.	c #7DB169",
"/.	c #478D1F",
"(.	c #85CB51",
"_.	c #A9E270",
":.	c #708E55",
"<.	c #7EB469",
"[.	c #65B936",
"}.	c #AAE271",
"|.	c #81B26D",
"1.	c #94CE67",
"2.	c #658251",
"3.	c #7BA669",
"4.	c #7BBD5B",
"5.	c #5A794C",
"6.	c #739968",
"7.	c #4FA02B",
"8.	c #7FC059",
"9.	c #5B794C",
"0.	c #749768",
"a.	c #5B774D",
"b.	c #77A168",
"c.	c #5FAD3C",
"d.	c #59744D",
"e.	c #3F2D27",
"f.	c #8C695D",
"g.	c #936D61",
"h.	c #60473E",
"i.	c #080B0B",
"j.	c #75B443",
"k.	c #81C944",
"l.	c #78B958",
"m.	c #57744D",
"n.	c #6C564D",
"o.	c #E6B8A8",
"p.	c #F2C1B1",
"q.	c #F1C0B1",
"r.	c #A07F74",
"s.	c #000406",
"t.	c #92CE59",
"u.	c #689E55",
"v.	c #6DAA54",
"w.	c #7FB969",
"x.	c #516B47",
"y.	c #67514A",
"z.	c #DDB1A3",
"A.	c #E7B9AA",
"B.	c #997B70",
"C.	c #000203",
"D.	c #82B26F",
"E.	c #76B25A",
"F.	c #76B359",
"G.	c #73B254",
"H.	c #7ABC46",
"I.	c #57734C",
"J.	c #546A4C",
"K.	c #4B5C46",
"L.	c #151515",
"M.	c #211815",
"N.	c #503E38",
"O.	c #54413B",
"P.	c #54423B",
"Q.	c #352825",
"R.	c #000000",
"S.	c #43563E",
"T.	c #546A4D",
"U.	c #57724D",
"V.	c #5D7F4D",
"W.	c #011122",
"X.	c #083B64",
"Y.	c #083B63",
"Z.	c #010F20",
"`.	c #001C2D",
" +	c #004769",
".+	c #004B6E",
"++	c #004A6E",
"@+	c #002E47",
"#+	c #063255",
"$+	c #09416E",
"%+	c #01182C",
"&+	c #191918",
"*+	c #052F52",
"=+	c #2F8CC6",
"-+	c #1D83D1",
";+	c #052C4D",
">+	c #004668",
",+	c #029ADF",
"'+	c #03A2E9",
")+	c #03A1E9",
"!+	c #016A9B",
"~+	c #1971B6",
"{+	c #2D94DB",
"]+	c #083D67",
"^+	c #191815",
"/+	c #304350",
"(+	c #6F9DAA",
"_+	c #7A96D2",
":+	c #29344D",
"<+	c #01496D",
"[+	c #03A1EA",
"}+	c #03A9F4",
"|+	c #03A9F3",
"1+	c #016FA2",
"2+	c #030000",
"3+	c #6982B6",
"4+	c #7AA5C5",
"5+	c #3C5562",
"6+	c #191D15",
"7+	c #584842",
"8+	c #C3B293",
"9+	c #E2B7AE",
"0+	c #53423E",
"a+	c #0E0100",
"b+	c #C49F97",
"c+	c #DFC2AA",
"d+	c #6F5A54",
"e+	c #171D18",
"f+	c #5B4941",
"g+	c #D8B89E",
"h+	c #E8BAAB",
"i+	c #55433D",
"j+	c #0E0200",
"k+	c #C9A194",
"l+	c #F6C9B6",
"m+	c #725A52",
"n+	c #141617",
"o+	c #5B5041",
"p+	c #D0B798",
"q+	c #C9A294",
"r+	c #E7C2AA",
"s+	c #4E9A32",
"t+	c #5C5440",
"u+	c #C5B68F",
"v+	c #56433D",
"w+	c #090000",
"x+	c #A28177",
"y+	c #B79F86",
"z+	c #5B4F41",
"A+	c #1C281A",
"B+	c #5C5740",
"C+	c #B3B480",
"D+	c #C9AD92",
"E+	c #20301B",
"F+	c #41392D",
"G+	c #949769",
"H+	c #958D6A",
"I+	c #3C2E2A",
"J+	c #050000",
"K+	c #7E645B",
"L+	c #A08075",
"M+	c #453630",
"N+	c #191E18",
"O+	c #014A6D",
"P+	c #03A2EA",
"Q+	c #03A9F5",
"R+	c #0170A3",
"S+	c #B2A981",
"T+	c #C7C290",
"U+	c #726151",
"V+	c #151917",
"W+	c #72BA48",
"X+	c #80AE6E",
"Y+	c #7AA769",
"Z+	c #759C69",
"`+	c #3C4E37",
" @	c #002F48",
".@	c #016D9F",
"+@	c #0272A6",
"@@	c #060100",
"#@	c #80845B",
"$@	c #999B6E",
"%@	c #4C4336",
"&@	c #1D2A19",
"*@	c #98D75D",
"=@	c #68A84D",
"-@	c #556C4C",
";@	c #172711",
">@	c #4F9733",
",@	c #6FA355",
"'@	c #546D4B",
")@	c #11183E",
"!@	c #2F3D8C",
"~@	c #314092",
"{@	c #28357B",
"]@	c #030617",
"^@	c #1C265B",
"/@	c #314091",
"(@	c #1D285F",
"_@	c #080703",
":@	c #789D68",
"<@	c #77AB61",
"[@	c #79AC65",
"}@	c #78AB64",
"|@	c #6EAA53",
"1@	c #17204F",
"2@	c #3C4EAD",
"3@	c #3F51B6",
"4@	c #34449A",
"5@	c #05091F",
"6@	c #263173",
"7@	c #3F51B5",
"8@	c #273378",
"9@	c #0D0C05",
"0@	c #77AA62",
"a@	c #5BA539",
"b@	c #6AA951",
"c@	c #546E4C",
"d@	c #3C4DAC",
"e@	c #344399",
"f@	c #05081E",
"g@	c #253172",
"h@	c #3F51B4",
"i@	c #273377",
"j@	c #7BB163",
"k@	c #6BAA53",
"l@	c #536F4B",
"m@	c #171F4F",
"n@	c #3E50B3",
"o@	c #344398",
"p@	c #7DB266",
"q@	c #55724C",
"r@	c #040618",
"s@	c #11183D",
"t@	c #131A41",
"u@	c #0E1435",
"v@	c #010105",
"w@	c #74B256",
"x@	c #56764A",
"y@	c #242F6E",
"z@	c #3D4EAE",
"A@	c #3D4EAF",
"B@	c #253173",
"C@	c #0D0C06",
"D@	c #7CB264",
"E@	c #74B957",
"F@	c #587C4B",
"G@	c #050920",
"H@	c #0F1538",
"I@	c #060A22",
"J@	c #0E110D",
"K@	c #7CB265",
"L@	c #8CD358",
"M@	c #72B855",
"N@	c #679157",
"O@	c #4C6F40",
"P@	c #49693F",
"Q@	c #4B6A3F",
"R@	c #4B6A40",
"S@	c #455E3E",
"T@	c #465C3E",
"U@	c #3A5032",
"V@	c #10180E",
"W@	c #77B64A",
"X@	c #89B76D",
"Y@	c #070707",
"Z@	c #7CB067",
"`@	c #AADD79",
" #	c #080808",
".#	c #0D0D0D",
"+#	c #79AB66",
"@#	c #76B648",
"##	c #040404",
"$#	c #77AA65",
"%#	c #91D54F",
"&#	c #98D557",
"*#	c #9DD475",
"=#	c #72945F",
"-#	c #70985C",
";#	c #729C5E",
">#	c #6E975B",
",#	c #6B965C",
"'#	c #6B955C",
")#	c #6A935B",
"!#	c #79B163",
"~#	c #96DA59",
"  . + @ # # $   % & * = = = = - ; > ; , ' ) ! ; ~ = * = + . . { ] ] ^ ^ ^ / ] ] / = = ( _ _ : ! ] { ",
"% . . @ # # $     ] = * = = = < { > ; [ } ( { { ] = = = . . . ] ] ] ^ = = < ] < / = = * _ _ | ] - { ",
"+ % . 1 2 # 3   + ] = = = = = / 4 { ; , 5 ' 4 4 4 6 = =   . . { - < = ^ = < = < - = = ( 7 _ 8 4 9 > ",
". . . + 0 0 a $ b + !   c @ d e 8 _ f @ @ g h i : [ ) , { j . a $ 3 k + j l @ 1 l ] ; ; = m ^ ] { n ",
". % . ~ ~ n a o b + . + l # p q | _ r # # s | i t [ [ , ! ! { u v b w + x y # p z ] ; - = = ; ] < { ",
"%   + 4 ~ > $ b A k . + B # # q C D E F G H I J J K K K L M N O P b 0 +   y p p Q { { / = = ^ ] { ] ",
"$ $ u { ~ { ^ ^ ^ ; ; ^   R R   S T U V V V V V V V V V V V W X Y ] ! + R x % x ] ' ' ' h | [ ^ = - ",
"Z b b { 9 4 ` ( ( ( ^ = / ] ] ]  ...+.@.#.#.#.#.#.#.#.#.#.#.$.%.&.= j *.*.] = = ' i t i i i | ^ = = ",
"b b b j { ] =.) , 6 = = - ; ] ] -.;.>.,.'.'.'.'.'.'.'.'.'.'.).!.~.= j 0 0 { = * ' _ _ 7 _ _ | m ^ = ",
"^ & & = = = = - = ] { { ! { ! w {.].>.,.'.'.'.'.'.'.'.'.'.'.).!.^.- { . . { - ; ^ ^ ^ ` ` ` ( ( ( ( ",
"| _ /.=.= = < < ] j   . . . ! (._.:.>.,.'.'.'.'.'.'.'.'.'.'.).!.<.> . . . { > n ; { { ; = * ^ [ ( ' ",
"_ | 7 = = = - < < ! + . [.~ . A }.:.>.,.'.'.'.'.'.'.'.'.'.'.).!.|.4 % . . j > > ; { n n 6 = ^ [ 5 ' ",
"] 4 4 = = ^ { j j { 4 ; { [.+ u 1.2.>.,.'.'.'.'.'.'.'.'.'.'.).!.3.( ] ; ; ~ ! { ; * 6 6 - - ; = = = ",
"o o b = = = j 0 + ] 6 = { 0 0 0 4.5.>.,.'.'.'.'.'.'.'.'.'.'.).!.6.i =.6 * ~ ! { ; , , 7.] < - > > > ",
"$ o b - ^ ^ j 0 + 4 * 6 { 0 *.0 8.9.>.,.'.'.'.'.'.'.'.'.'.'.).!.0.| =.= = ; ! ! ; ( ) 6 ] < n n > > ",
"z z B ; =.6 / ] ] ] j j { & &   4.a.>.,.'.'.'.'.'.'.'.'.'.'.).!.b.( ( = ^ ; ^ c.^ ( 6 6 ; 9 n j { { ",
"# # p / [ ( 8 7 7   o o 4 i | ` 4.d.e.f.g.g.g.g.g.g.g.g.g.g.h.i.M ] = = * ' _ 7 ' ] < < < 9 { . . . ",
"p # p / [ } _ i t j.o k.f | | ^ l.m.n.o.p.p.p.p.p.p.p.p.p.q.r.s.M 4 - = ^ } t t ' ] < < n < - . . ! ",
"Q t.t./ ( } =.m m % a a ] } u.v.w.x.y.z.A.A.A.A.A.A.A.A.A.A.B.C.D.E.F.G.& m [ [ =.] < - { j { [.j j ",
"5 5 , 6 = = H.v b + ~ ~ ~ ! I.J.K.L.M.N.O.O.O.O.O.O.O.O.O.P.Q.R.S.T.U.V.*.+ . ! { = = - . . [.; > > ",
"( [ [ 6 = = R $ b . c.> ~ [.W.X.Y.Z.`. +.+.+.+.+.+.+.+.+.+++@+R.#+$+%+&+[.. ! [.; = = - [.. ! { > > ",
"( ( [ = = = w 3 $ j > n { j *+=+-+;+>+,+'+'+'+'+'+'+'+'+'+)+!+R.~+{+]+^++ ! ! ! { - - ; ! ! ! 4 { > ",
"~ > ~ = = ^ = = 6 - n > > n /+(+_+:+<+[+}+}+}+}+}+}+}+}+}+|+1+2+3+4+5+6+i ( 4 ~ + b b u ) , ( ! ~ % ",
"n n n = * = = = = - n { n n 7+8+9+0+<+[+}+}+}+}+}+}+}+}+}+|+1+a+b+c+d+e+| m { > + b $ w 5 [ ( . . . ",
"{ > ; - / = = ^ = ; { - n > f+g+h+i+<+[+}+}+}+}+}+}+}+}+}+|+1+j+k+l+m+n+i ( ~ ~   $ $ w ( ) ( ! [.~ ",
"- * = @ # 2 + = = R $ b a + o+p+h+i+<+[+}+}+}+}+}+}+}+}+}+|+1+j+q+r+m+n+[.] * * 4 +   { 6 = ( ( ) s+",
"= = = @ # # + = = R b b a + t+u+h+v+<+[+}+}+}+}+}+}+}+}+}+|+1+w+x+y+z+A+. ; * = ]   0 j = = = 5 [ s+",
"= = = @ p p R = = u b b u *.B+C+D+i+<+[+}+}+}+}+}+}+}+}+}+|+1+R.R.R.R.E+{ ; = = ]   . j = 6 6 , [ ( ",
". .   ( m =.w w u + { 9 9 { F+G+H+I+<+[+}+}+}+}+}+}+}+}+}+|+1+J+K+L+M+N+{ { > > . 3 $ u ] ; ; /.7 | ",
"% % % h t _ w o b + { ; > - R.R.R.R.O+P+Q+Q+Q+Q+Q+Q+Q+Q+Q+}+R+j+S+T+U+V+[.{ > n 0 b $ u { ~ ] 7 t t ",
"% + % : _ _ W+b b 0 { ] { ] X+Y+Z+`+ @.@+@+@+@+@+@+@+@+@+@+@<+@@#@$@%@&@j { { {   k.$ u { ; ; 7 _ | ",
"*@@ *@] [ }   R 0 a v R ] h h ( =@-@R.R.R.R.R.R.R.R.R.R.R.R.R.R.R.R.R.;@- n ; 4 ! j j j . . ~ * ; - ",
"# # p ] = = 9 . + u k.k.4 t _ >@,@'@)@!@~@~@{@]@R.R.^@/@~@~@(@_@:@<@[@}@= - { ] ] ] < ] + + j ] > { ",
"# # # < = = j % + u b b 4 | _ [ |@'@1@2@3@3@4@5@R.R.6@7@3@7@8@9@0@= = = * = ] 9 < ] ] ] 0 + ! 9 > { ",
"$ H.H.j j j ; ; ; u b o w & a@^ b@c@1@d@7@7@e@f@R.R.g@h@7@h@i@9@j@; ^ ( ( j R a 0 =.6 6 - = = n - > ",
"^ = = . [.0 < = * + b o a +   4 k@l@m@d@n@n@o@f@R.R.g@h@7@h@i@9@p@{ ` [ 5 + b b + 5 [ [ [ [ , > < < ",
"=.= = . 0 *./ = ^ R b $ a +   { k@q@r@s@t@t@u@v@R.R.g@h@7@h@i@9@j@{ = ( ,   $ $   ' ' ' [ [ ` ; < ] ",
"x +   + + 0 = ( ' 4 *.*.$ y Q 3 w@x@R.R.R.R.R.R.R.R.y@z@A@A@B@C@D@< ( [ 5   $ b w     & h _ h . {   ",
"b b A + .   ' i i = < < l p # t.E@F@R.R.R.R.R.R.R.R.G@H@H@H@I@J@K@< 6 [ ,   $ $ k.3 $ R _ t h % +   ",
"o b b + + + ' t _ m ] / l # # L@M@N@O@P@Q@R@S@T@U@R.R.R.R.R.R.V@Y { 6 , , 4 k.$ b o v w _ 7 [   +   ",
"    % 4 { 4 ' _ _ ^ ~ ~ u y y (.A b w ( ( =.W@j.X@Y@R.R.R.R.R.J@Z@< % j.w u b b v *.R   ' h ( + 0   ",
"_ 7 7 m = ^ h t t a@. ~ * ) [ w # # t.i i =.p # `@ #R.R.R.R.R..#+#= y p p z b o a ] ] ; ^ ^ ^ + *.+ ",
"t _ i ^ = ^ [ t _ a@. ~ a@' >@@## # t.| t m p # `@##R.R.R.R.R. #$#= y # # %#v b *.] 4 ; = = ; + 0 0 ",
"m ^ m 4 { 4 4 r r { ~ ~ ; ; & H.@ d (.} ' / *@&#*#=#-#;#>#,#'#)#!#- A Q Q c v Z + < - ; * * ; ] 4 4 ",
"$ k.k.v b b @ 2 p j.[ [ ! b o a ! ! . . . . + .   ( , , . . . . ! + ] ^ ; ; ~ { { = - * { ~ c.7 _ 7 ",
"k.$ k.b b b ~## # W+s+[   v b *.! ~ . . . .   + . [ , [ ! . . . . . ] ^ = ; . [.; = = = ~ ~ ; 7 t 7 ",
"u u $ u $ $ ~#@ 2 % =.)   k.k.R { ! { . + . . + . ( [ ) ! . ! % % ! ; * * > 4 { ] = = - { ] ; i | : ",
"= =.=   . x ] < ] ] ] & R $ $ R , , 6   . + . . . { ~ { ! [.! ( ' [ ; ! . ; 6 = - { < < < < ; = ^ ^ ",
"^ ^ =     % 4 < 9 ] ] ] + o k.% ( , 6 . ! + . . . { n > { ! j 6 ' , ; ~ ! ; = * ; ] ] < < < < = = = ",
"= = =   . . { ; - ] ] < *.o b j.[ [ 6 . . + + + . c.; { ! [.! * ( , ; ! [.; - = ; ; 9 ] - ] ] = ^ m "};
