/* XPM */
static char * perso0_xpm[] = {
"50 50 343 2",
"  	c #6AB53B",
". 	c #66B83A",
"+ 	c #6AB93A",
"@ 	c #9ADC5C",
"# 	c #A3E25D",
"$ 	c #7BC644",
"% 	c #6BB541",
"& 	c #60A63A",
"* 	c #57A431",
"= 	c #5AA42D",
"- 	c #5DAB2E",
"; 	c #5EAB33",
"> 	c #5FB032",
", 	c #4E9926",
"' 	c #51962C",
") 	c #519A26",
"! 	c #64B53A",
"~ 	c #5FB038",
"{ 	c #63B234",
"] 	c #62AD33",
"^ 	c #5AA432",
"/ 	c #61A334",
"( 	c #529B2B",
"_ 	c #468A2A",
": 	c #4B9325",
"< 	c #61AD2E",
"[ 	c #4E992A",
"} 	c #529632",
"| 	c #498A2A",
"1 	c #9CE161",
"2 	c #9EE15B",
"3 	c #7BC548",
"4 	c #64AD39",
"5 	c #519625",
"6 	c #56A32C",
"7 	c #468B25",
"8 	c #479021",
"9 	c #63B32D",
"0 	c #6CBB36",
"a 	c #74C23D",
"b 	c #7CC943",
"c 	c #85CB4C",
"d 	c #98D954",
"e 	c #81C64D",
"f 	c #69A83E",
"g 	c #92D45B",
"h 	c #4D942B",
"i 	c #498B25",
"j 	c #69B536",
"k 	c #6DBC40",
"l 	c #8ACC4E",
"m 	c #5A9D32",
"n 	c #5FB02F",
"o 	c #7CC93E",
"p 	c #A3E362",
"q 	c #89C754",
"r 	c #6AA742",
"s 	c #98D761",
"t 	c #4B872B",
"u 	c #76C343",
"v 	c #7BC63F",
"w 	c #74BC42",
"x 	c #70B73A",
"y 	c #8BCD51",
"z 	c #8BD24E",
"A 	c #7EC94A",
"B 	c #8DD252",
"C 	c #65B936",
"D 	c #92D255",
"E 	c #72BC3C",
"F 	c #5BA539",
"G 	c #284215",
"H 	c #18250D",
"I 	c #0C0908",
"J 	c #0D0E08",
"K 	c #080606",
"L 	c #1B2914",
"M 	c #74C83F",
"N 	c #559C31",
"O 	c #36501B",
"P 	c #5D7933",
"Q 	c #606E37",
"R 	c #615F38",
"S 	c #614339",
"T 	c #402C24",
"U 	c #0D0E0E",
"V 	c #70BC37",
"W 	c #5A9C2E",
"X 	c #3A481F",
"Y 	c #6F7741",
"Z 	c #7B594A",
"` 	c #815C50",
" .	c #815D50",
"..	c #7D594C",
"+.	c #795548",
"@.	c #534330",
"#.	c #0C0E0E",
"$.	c #92CE59",
"%.	c #3D4922",
"&.	c #715D42",
"*.	c #977165",
"=.	c #DAAC9D",
"-.	c #DFB0A2",
";.	c #DFB0A1",
">.	c #B78D7F",
",.	c #785447",
"'.	c #51392F",
").	c #478D1F",
"!.	c #85CB51",
"~.	c #31201B",
"{.	c #735044",
"].	c #A37C6F",
"^.	c #F8C6B6",
"/.	c #FFCCBC",
"(.	c #CCA091",
"_.	c #51382F",
":.	c #382721",
"<.	c #815E52",
"[.	c #A88073",
"}.	c #EEBEAF",
"|.	c #F7C6B6",
"1.	c #FECCBC",
"2.	c #FAC8B9",
"3.	c #F4C3B3",
"4.	c #C89D8F",
"5.	c #876456",
"6.	c #5C4839",
"7.	c #0B0D0E",
"8.	c #634E47",
"9.	c #DCAFA0",
"0.	c #D1A698",
"a.	c #7F655C",
"b.	c #AB887D",
"c.	c #FAC8B8",
"d.	c #D2A89B",
"e.	c #765D55",
"f.	c #AF8A7F",
"g.	c #D4B09A",
"h.	c #8A8263",
"i.	c #000608",
"j.	c #4FA02B",
"k.	c #6E564F",
"l.	c #F2C1B2",
"m.	c #E1B4A6",
"n.	c #67514A",
"o.	c #95766C",
"p.	c #EDBDAE",
"q.	c #F2C2B2",
"r.	c #C19A8E",
"s.	c #503F39",
"t.	c #B48F84",
"u.	c #E2BEA6",
"v.	c #938B69",
"w.	c #000406",
"x.	c #6E594F",
"y.	c #EABBAD",
"z.	c #CDA497",
"A.	c #6F5850",
"B.	c #A58379",
"C.	c #E7B9AA",
"D.	c #F3C2B3",
"E.	c #E8C2AA",
"F.	c #97916A",
"G.	c #5FAD3C",
"H.	c #6E5E4E",
"I.	c #DEB2A4",
"J.	c #6D564E",
"K.	c #614C45",
"L.	c #AF8B80",
"M.	c #FDCABA",
"N.	c #EBC7AC",
"O.	c #9A9C6D",
"P.	c #75B443",
"Q.	c #81C944",
"R.	c #6E624E",
"S.	c #F0C2B1",
"T.	c #F4C3B4",
"U.	c #E7C6A9",
"V.	c #989F6B",
"W.	c #635B47",
"X.	c #D9B09F",
"Y.	c #D9B89F",
"Z.	c #8F9363",
"`.	c #000305",
" +	c #7ABC46",
".+	c #1F1714",
"++	c #4F3E38",
"@+	c #54413B",
"#+	c #372926",
"$+	c #000001",
"%+	c #0D2523",
"&+	c #134564",
"*+	c #083C65",
"=+	c #011123",
"-+	c #001B2B",
";+	c #004668",
">+	c #004B6E",
",+	c #004A6E",
"'+	c #003049",
")+	c #000000",
"!+	c #063357",
"~+	c #09416E",
"{+	c #021A31",
"]+	c #1D241B",
"^+	c #043053",
"/+	c #2086D4",
"(+	c #1B84D7",
"_+	c #053053",
":+	c #004364",
"<+	c #0299DD",
"[+	c #03A2E9",
"}+	c #03A1E9",
"|+	c #026D9F",
"1+	c #1A74B9",
"2+	c #3798CF",
"3+	c #1E556C",
"4+	c #1C2118",
"5+	c #304551",
"6+	c #749CBB",
"7+	c #7C99D6",
"8+	c #2C3953",
"9+	c #014669",
"0+	c #03A0E8",
"a+	c #03A9F4",
"b+	c #03A9F3",
"c+	c #0172A6",
"d+	c #040000",
"e+	c #6B84BA",
"f+	c #79A5BE",
"g+	c #426364",
"h+	c #1C2418",
"i+	c #594B43",
"j+	c #E1BAAD",
"k+	c #E6BBB1",
"l+	c #594743",
"m+	c #0F0200",
"n+	c #C8A299",
"o+	c #D1BD9E",
"p+	c #706D54",
"q+	c #192119",
"r+	c #5C4842",
"s+	c #100300",
"t+	c #E8C5AB",
"u+	c #756C53",
"v+	c #171B18",
"w+	c #5C4A42",
"x+	c #E8C2AB",
"y+	c #766F54",
"z+	c #4E9A32",
"A+	c #5C4C42",
"B+	c #ECBDAD",
"C+	c #EAC3AD",
"D+	c #776E55",
"E+	c #161818",
"F+	c #5D5142",
"G+	c #E2BBA5",
"H+	c #F2C7B3",
"I+	c #786C56",
"J+	c #5D5441",
"K+	c #CFB896",
"L+	c #F4CAB4",
"M+	c #796D56",
"N+	c #5D5940",
"O+	c #AFAF7B",
"P+	c #B9AD86",
"Q+	c #01476A",
"R+	c #03A1E8",
"S+	c #03A9F5",
"T+	c #CAA595",
"U+	c #CBC293",
"V+	c #777654",
"W+	c #192019",
"X+	c #72BA48",
"Y+	c #3C2F2A",
"Z+	c #8E8E64",
"`+	c #8D8A64",
" @	c #3C2E2A",
".@	c #002D45",
"+@	c #016C9D",
"@@	c #0272A6",
"#@	c #014C70",
"$@	c #070100",
"%@	c #84815E",
"&@	c #999C6C",
"*@	c #54553B",
"=@	c #1F2C1B",
"-@	c #98D75D",
";@	c #192813",
">@	c #4F9733",
",@	c #10163C",
"'@	c #2E3C8A",
")@	c #314092",
"!@	c #29357C",
"~@	c #04071B",
"{@	c #1C2559",
"]@	c #313F91",
"^@	c #1F2962",
"/@	c #090904",
"(@	c #161E4D",
"_@	c #3C4DAD",
":@	c #3F51B6",
"<@	c #35449B",
"[@	c #070B25",
"}@	c #253071",
"|@	c #3F51B4",
"1@	c #29357B",
"2@	c #0E0E07",
"3@	c #161E4C",
"4@	c #3B4CAC",
"5@	c #3F51B5",
"6@	c #34449A",
"7@	c #070B24",
"8@	c #243070",
"9@	c #3E50B3",
"0@	c #29357A",
"a@	c #3C4CAC",
"b@	c #253070",
"c@	c #3F50B3",
"d@	c #8CD358",
"e@	c #151D49",
"f@	c #394AA4",
"g@	c #3C4EAE",
"h@	c #324195",
"i@	c #060A23",
"j@	c #222E6B",
"k@	c #3C4DAC",
"l@	c #3C4EAD",
"m@	c #263375",
"n@	c #0E0E08",
"o@	c #01020C",
"p@	c #080D28",
"q@	c #090E2B",
"r@	c #000103",
"s@	c #030517",
"t@	c #090E2A",
"u@	c #03061A",
"v@	c #131B10",
"w@	c #11160F",
"x@	c #76B648",
"y@	c #0A0A0A",
"z@	c #91D54F",
"A@	c #98D557",
"B@	c #96DA59",
"  . + @ # # $   % & * = = = = - ; > ; , ' ) ! ; ~ = * = + . . { ] ] ^ ^ ^ / ] ] / = = ( _ _ : ! ] { ",
"% . . @ # # $     ] = * = = = < { > ; [ } ( { { ] = = = . . . ] ] ] ^ = = < ] < / = = * _ _ | ] - { ",
"+ % . 1 2 # 3   + ] = = = = = / 4 { ; , 5 ' 4 4 4 6 = =   . . { - < = ^ = < = < - = = ( 7 _ 8 4 9 > ",
". . . + 0 0 a $ b + !   c @ d e 8 _ f @ @ g h i : [ ) , { j . a $ 3 k + j l @ 1 l ] ; ; = m ^ ] { n ",
". % . ~ ~ n a o b + . + l # p q | _ r # # s | i t [ [ , ! ! { u v b w + x y # p z ] ; - = = ; ] < { ",
"%   + 4 ~ > $ b A k . + B # # q t _ r 1 # s | i i [ [ [ { C . u $ b 0 +   y p p D { { / = = ^ ] { ] ",
"$ $ u { ~ { ^ ^ ^ ; ; ^   E E   F * ~ G H I I I I I I J I I K L ] ] ! + E x % x ] ' ' ' h | [ ^ = - ",
"M b b { 9 4 N ( ( ( ^ = / ] ] ] ; ; O P Q R S S S S S S S S T U = = j V V ] = = ' i t i i i | ^ = = ",
"b b b j { ] W ) , 6 = = - ; ] ] < < X Y Z `  . . . . . ...+.@.#.= = j 0 0 { = * ' _ _ 7 _ _ | m ^ = ",
"^ & & = = = = - = ] { { ! { ! w $.D %.&.*.=.-.-.-.-.-.;.>.,.'.#.- - { . . { - ; ^ ^ ^ N N N ( ( ( ( ",
"| _ ).W = = < < ] j   . . . ! !.# # ~.{.].^././././././.(.,._.#.n > . . . { > n ; { { ; = * ^ [ ( ' ",
"_ | 7 = = = - < < ! + . C ~ . A # # ~.{.].^././././././.(.,._.#.4 4 % . . j > > ; { n n 6 = ^ [ 5 ' ",
"] 4 4 = = ^ { j j { 4 ; { C + u l l :.<.[.}.|.1././.2.3.4.5.6.7.W ( ] ; ; ~ ! { ; * 6 6 - - ; = = = ",
"o o b = = = j 0 + ] 6 = { 0 0 0 + 0 8.9.0.a.b.c././.d.e.f.g.h.i.| i W 6 * ~ ! { ; , , j.] < - > > > ",
"$ o b - ^ ^ j 0 + 4 * 6 { 0 V 0 V V k.l.m.n.o.p.q.q.r.s.t.u.v.w.t | W = = ; ! ! ; ( ) 6 ] < n n > > ",
"z z B ; W 6 / ] ] ] j j { & &   + x x.q.c.y.z.e.A.A.B.C.D.E.F.w.' ( ( = ^ ; ^ G.^ ( 6 6 ; 9 n j { { ",
"# # p / [ ( 8 7 7   o o 4 i | N +   H.q././.I.J.K.K.L.M./.N.O.w.; ] = = * ' _ 7 ' ] < < < 9 { . . . ",
"p # p / [ } _ i t P.o Q.f | | ^   C R.S././.c.}.p.p.T././.U.V.w.; 4 - = ^ } t t ' ] < < n < - . . ! ",
"D $.$./ ( } W m m % a a ] } } ^ ! j W.X.C.C.C.C.C.C.C.C.C.Y.Z.`.{ 4 ] ] & m [ [ W ] < - { j { C j j ",
"5 5 , 6 = =  +v b + ~ ~ ~ ! j ; * = .+++@+@+@+@+@+@+@+@+@+@+#+$+! { + V V + . ! { = = - . . C ; > > ",
"( [ [ 6 = = E $ b . G.> ~ C %+&+*+=+-+;+>+>+>+>+>+>+>+>+>+,+'+)+!+~+{+]+C . ! C ; = = - C . ! { > > ",
"( ( [ = = = w 3 $ j > n { j ^+/+(+_+:+<+[+[+[+[+[+[+[+[+[+}+|+)+1+2+3+4++ ! ! ! { - - ; ! ! ! 4 { > ",
"~ > ~ = = ^ = = 6 - n > > n 5+6+7+8+9+0+a+a+a+a+a+a+a+a+a+b+c+d+e+f+g+h+i ( 4 ~ + b b u ) , ( ! ~ % ",
"n n n = * = = = = - n { n n i+j+k+l+9+0+a+a+a+a+a+a+a+a+a+b+c+m+n+o+p+q+| m { > + b $ w 5 [ ( . . . ",
"{ > ; - / = = ^ = ; { - n > r+p.p.r+9+0+a+a+a+a+a+a+a+a+a+b+c+s+z.t+u+v+i ( ~ ~   $ $ w ( ) ( ! C ~ ",
"- * = @ # 2 + = = E $ b a + w+p.p.r+9+0+a+a+a+a+a+a+a+a+a+b+c+s+z.x+y+v+C ] * * 4 +   { 6 = ( ( ) z+",
"= = = @ # # + = = E b b a + A+B+p.r+9+0+a+a+a+a+a+a+a+a+a+b+c+s+z.C+D+E+. ; * = ]   0 j = = = 5 [ z+",
"= = = @ p p E = = u b b u V F+G+p.r+9+0+a+a+a+a+a+a+a+a+a+b+c+s+z.H+I+E+{ ; = = ]   . j = 6 6 , [ ( ",
". .   ( m W w w u + { 9 9 { J+K+p.r+9+0+a+a+a+a+a+a+a+a+a+b+c+s+z.L+M+E+{ { > > . 3 $ u ] ; ; ).7 | ",
"% % % h t _ w o b + { ; > - N+O+P+r+Q+R+S+S+S+S+S+S+S+S+S+a+c+s+T+U+V+W+C { > n 0 b $ u { ~ ] 7 t t ",
"% + % : _ _ X+b b 0 { ] { ] Y+Z+`+ @.@+@@@@@@@@@@@@@@@@@@@@@#@$@%@&@*@=@j { { {   Q.$ u { ; ; 7 _ | ",
"-@@ -@] [ }   E 0 a v E ] h )+)+)+)+)+)+)+)+)+)+)+)+)+)+)+)+)+)+)+)+)+;@- n ; 4 ! j j j . . ~ * ; - ",
"# # p ] = = 9 . + u Q.Q.4 t _ >@W = ,@'@)@)@!@~@)+)+{@]@)@)@^@/@W = = = = - { ] ] ] < ] + + j ] > { ",
"# # # < = = j % + u b b 4 | _ [ = = (@_@:@:@<@[@)+$+}@|@:@:@1@2@= = = = * = ] 9 < ] ] ] 0 + ! 9 > { ",
"$  + +j j j ; ; ; u b o w & F ^ 6 ^ 3@4@5@5@6@7@)+$+8@9@5@5@0@2@< ; ^ ( ( j E a 0 W 6 6 - = = n - > ",
"^ = = . C 0 < = * + b o a +   4 * * 3@4@5@5@6@7@)+$+8@9@5@5@0@2@] { N [ 5 + b b + 5 [ [ [ [ , > < < ",
"W = = . 0 V / = ^ E b $ a +   { * F 3@4@5@5@6@7@)+$+8@9@5@5@0@2@< { = ( ,   $ $   ' ' ' [ [ N ; < ] ",
"x +   + + 0 = ( ' 4 V V $ y D 3 4 ; 3@4@5@5@6@7@)+$+8@9@5@5@0@2@< < ( [ 5   $ b w     & h _ h . {   ",
"b b A + .   ' i i = < < l p # $.! ! (@a@5@5@6@[@)+$+b@c@5@5@0@2@< < 6 [ ,   $ $ Q.3 $ E _ t h % +   ",
"o b b + + + ' t _ m ] / l # # d@! C e@f@g@g@h@i@)+$+j@k@g@l@m@n@] { 6 , , 4 Q.$ b o v w _ 7 [   +   ",
"    % 4 { 4 ' _ _ ^ ~ ~ u y y !.A b o@p@q@q@i@r@)+)+s@t@q@q@u@v@- < % P.w u b b v V E   ' h ( + 0   ",
"_ 7 7 m = ^ h t t F . ~ * ) [ w # # )+)+)+)+)+)+)+)+)+)+)+)+)+w@= = y p p z b o a ] ] ; ^ ^ ^ + V + ",
"t _ i ^ = ^ [ t _ F . ~ F ' >@x@# # )+)+)+)+)+)+)+)+)+)+)+)+)+y@6 = y # # z@v b V ] 4 ; = = ; + 0 0 ",
"m ^ m 4 { 4 4 r r { ~ ~ ; ; &  +@ d !.} ' / -@A@g P.E u 0 . . { ; - A D D c v M + < - ; * * ; ] 4 4 ",
"$ Q.Q.v b b @ 2 p P.[ [ ! b o a ! ! . . . . + .   ( , , . . . . ! + ] ^ ; ; ~ { { = - * { ~ G.7 _ 7 ",
"Q.$ Q.b b b B@# # X+z+[   v b V ! ~ . . . .   + . [ , [ ! . . . . . ] ^ = ; . C ; = = = ~ ~ ; 7 t 7 ",
"u u $ u $ $ B@@ 2 % W )   Q.Q.E { ! { . + . . + . ( [ ) ! . ! % % ! ; * * > 4 { ] = = - { ] ; i | : ",
"= W =   . x ] < ] ] ] & E $ $ E , , 6   . + . . . { ~ { ! C ! ( ' [ ; ! . ; 6 = - { < < < < ; = ^ ^ ",
"^ ^ =     % 4 < 9 ] ] ] + o Q.% ( , 6 . ! + . . . { n > { ! j 6 ' , ; ~ ! ; = * ; ] ] < < < < = = = ",
"= = =   . . { ; - ] ] < V o b P.[ [ 6 . . + + + . G.; { ! C ! * ( , ; ! C ; - = ; ; 9 ] - ] ] = ^ m "};
