/* XPM */
static char * perso_left1_xpm[] = {
"50 50 553 2",
"  	c #6AB53B",
". 	c #66B83A",
"+ 	c #6AB93A",
"@ 	c #9ADC5C",
"# 	c #A3E25D",
"$ 	c #7BC644",
"% 	c #6BB541",
"& 	c #60A63A",
"* 	c #57A431",
"= 	c #5AA42D",
"- 	c #5DAB2E",
"; 	c #5EAB33",
"> 	c #5FB032",
", 	c #4E9926",
"' 	c #51962C",
") 	c #519A26",
"! 	c #64B53A",
"~ 	c #5FB038",
"{ 	c #63B234",
"] 	c #62AD33",
"^ 	c #5AA432",
"/ 	c #61A334",
"( 	c #529B2B",
"_ 	c #468A2A",
": 	c #4B9325",
"< 	c #61AD2E",
"[ 	c #4E992A",
"} 	c #529632",
"| 	c #498A2A",
"1 	c #9CE161",
"2 	c #9EE15B",
"3 	c #7BC548",
"4 	c #64AD39",
"5 	c #519625",
"6 	c #56A32C",
"7 	c #468B25",
"8 	c #479021",
"9 	c #63B32D",
"0 	c #6CBB36",
"a 	c #74C23D",
"b 	c #7CC943",
"c 	c #85CB4C",
"d 	c #98D954",
"e 	c #81C64D",
"f 	c #69A83E",
"g 	c #92D45B",
"h 	c #4D942B",
"i 	c #498B25",
"j 	c #69B536",
"k 	c #6DBC40",
"l 	c #8ACC4E",
"m 	c #5A9D32",
"n 	c #5FB02F",
"o 	c #7CC93E",
"p 	c #A3E362",
"q 	c #89C754",
"r 	c #5E934E",
"s 	c #83A872",
"t 	c #A3CE7C",
"u 	c #9CC67E",
"v 	c #74946B",
"w 	c #74946A",
"x 	c #74926B",
"y 	c #769D6B",
"z 	c #769D6A",
"A 	c #7FAF6F",
"B 	c #7FAF6E",
"C 	c #7EAD6C",
"D 	c #88B971",
"E 	c #8BBB70",
"F 	c #86CB59",
"G 	c #74BC42",
"H 	c #70B73A",
"I 	c #8BCD51",
"J 	c #8BD24E",
"K 	c #7EC94A",
"L 	c #8DD252",
"M 	c #4B872B",
"N 	c #6B985F",
"O 	c #4A5E41",
"P 	c #121110",
"Q 	c #191413",
"R 	c #11100F",
"S 	c #2C3C24",
"T 	c #8CCB66",
"U 	c #92D255",
"V 	c #76C343",
"W 	c #72BC3C",
"X 	c #5BA539",
"Y 	c #75AC62",
"Z 	c #445A3D",
"` 	c #31211A",
" .	c #5C4136",
"..	c #5F4237",
"+.	c #2A1B16",
"@.	c #1A1A1A",
"#.	c #7AB360",
"$.	c #74C83F",
"%.	c #559C31",
"&.	c #79B263",
"*.	c #402C24",
"=.	c #765346",
"-.	c #795548",
";.	c #785448",
">.	c #37261F",
",.	c #74AC5D",
"'.	c #70BC37",
").	c #5A9C2E",
"!.	c #7BB461",
"~.	c #44573D",
"{.	c #92CE59",
"].	c #9FD374",
"^.	c #495D3F",
"/.	c #46322A",
"(.	c #815D50",
"_.	c #846053",
":.	c #845F53",
"<.	c #7E5A4D",
"[.	c #76B25D",
"}.	c #478D1F",
"|.	c #85CB51",
"1.	c #ACE079",
"2.	c #495940",
"3.	c #7D6259",
"4.	c #DEB0A1",
"5.	c #E2B4A5",
"6.	c #E2B3A4",
"7.	c #B2897C",
"8.	c #775346",
"9.	c #78B660",
"0.	c #65B936",
"a.	c #4B5A40",
"b.	c #876B62",
"c.	c #EEBFB0",
"d.	c #F8C6B7",
"e.	c #FFCCBC",
"f.	c #C3998B",
"g.	c #765245",
"h.	c #7BB363",
"i.	c #98CE71",
"j.	c #4A613F",
"k.	c #3F312C",
"l.	c #755C54",
"m.	c #B18D82",
"n.	c #FCCABA",
"o.	c #C3998C",
"p.	c #70A55D",
"q.	c #83BF65",
"r.	c #47603D",
"s.	c #000000",
"t.	c #98796F",
"u.	c #FBC9B9",
"v.	c #C99E90",
"w.	c #896558",
"x.	c #805B4E",
"y.	c #6B985B",
"z.	c #4FA02B",
"A.	c #86C065",
"B.	c #49633D",
"C.	c #98786F",
"D.	c #F5C4B4",
"E.	c #ECBCAD",
"F.	c #AE8578",
"G.	c #6C985E",
"H.	c #87BC68",
"I.	c #465D3D",
"J.	c #322622",
"K.	c #5E4943",
"L.	c #A8867B",
"M.	c #FECBBB",
"N.	c #C29789",
"O.	c #906B5F",
"P.	c #43312B",
"Q.	c #191A1A",
"R.	c #71A55E",
"S.	c #5FAD3C",
"T.	c #82BB68",
"U.	c #43533E",
"V.	c #846960",
"W.	c #E9BBAC",
"X.	c #F4C3B4",
"Y.	c #F7C5B6",
"Z.	c #E7C0AA",
"`.	c #746253",
" +	c #161819",
".+	c #79B35F",
"++	c #75B443",
"@+	c #85CB53",
"#+	c #8BCB5D",
"$+	c #78AD59",
"%+	c #60934E",
"&+	c #5F924D",
"*+	c #6AA94F",
"=+	c #78B956",
"-+	c #83BC6D",
";+	c #405339",
">+	c #83685F",
",+	c #E7B9AB",
"'+	c #EBBDAE",
")+	c #ECBDAE",
"!+	c #DEBCA3",
"~+	c #706450",
"{+	c #141516",
"]+	c #80B36A",
"^+	c #69AE47",
"/+	c #68A84A",
"(+	c #67A84B",
"_+	c #619B4B",
":+	c #5C8E47",
"<+	c #5E8F4A",
"[+	c #79A067",
"}+	c #4D6343",
"|+	c #475543",
"1+	c #444D43",
"2+	c #455143",
"3+	c #475843",
"4+	c #3F4F3A",
"5+	c #050708",
"6+	c #221916",
"7+	c #453531",
"8+	c #473632",
"9+	c #473631",
"0+	c #463630",
"a+	c #1B1410",
"b+	c #40513A",
"c+	c #485A42",
"d+	c #475742",
"e+	c #475643",
"f+	c #465542",
"g+	c #455841",
"h+	c #445B3E",
"i+	c #7ABC46",
"j+	c #7BC63F",
"k+	c #6A8A60",
"l+	c #645348",
"m+	c #6D564E",
"n+	c #6D554E",
"o+	c #6D584D",
"p+	c #6C5A4D",
"q+	c #6C5D4C",
"r+	c #6B624B",
"s+	c #5B5041",
"t+	c #120C0A",
"u+	c #03203A",
"v+	c #083C66",
"w+	c #083D67",
"x+	c #0A3D67",
"y+	c #5B5055",
"z+	c #614C46",
"A+	c #6A8862",
"B+	c #584E3E",
"C+	c #B4B382",
"D+	c #D3C099",
"E+	c #D8C19D",
"F+	c #D3BE99",
"G+	c #CFBA97",
"H+	c #D0BA97",
"I+	c #EAC2AC",
"J+	c #D1A79A",
"K+	c #362825",
"L+	c #0F548B",
"M+	c #1F8EE7",
"N+	c #2090EA",
"O+	c #2591EA",
"P+	c #CFB8C4",
"Q+	c #F6C5B4",
"R+	c #F5C4B5",
"S+	c #F6C5B5",
"T+	c #D2B19A",
"U+	c #170E0C",
"V+	c #6A8861",
"W+	c #5C5241",
"X+	c #CCB993",
"Y+	c #DAAEA0",
"Z+	c #382A27",
"`+	c #0F5891",
" @	c #2094F0",
".@	c #2196F3",
"+@	c #2697F2",
"@@	c #D7BFCC",
"#@	c #FFCDBD",
"$@	c #E5B7A9",
"%@	c #19100D",
"&@	c #6A895F",
"*@	c #5C5341",
"=@	c #B6B682",
"-@	c #F8CAB7",
";@	c #FBCBB9",
">@	c #FACAB8",
",@	c #FBCAB9",
"'@	c #D7AF9F",
")@	c #FFCCBB",
"!@	c #698C5D",
"~@	c #504337",
"{@	c #A4A973",
"]@	c #ABB078",
"^@	c #AEB17C",
"/@	c #ABAB78",
"(@	c #A6A376",
"_@	c #A2A373",
":@	c #A0A970",
"<@	c #A1B16E",
"[@	c #2F2320",
"}@	c #1E8AE0",
"|@	c #1B81D2",
"1@	c #1F8FE7",
"2@	c #698E5B",
"3@	c #2196F2",
"4@	c #1363A2",
"5@	c #1877C3",
"6@	c #2798F4",
"7@	c #D8C0CC",
"8@	c #FFCDBC",
"9@	c #DEB7A3",
"0@	c #8DBF73",
"a@	c #88B86F",
"b@	c #84B36D",
"c@	c #7FAD6D",
"d@	c #7DAD6C",
"e@	c #7AA46A",
"f@	c #719167",
"g@	c #709067",
"h@	c #779B67",
"i@	c #79A364",
"j@	c #1E1E1E",
"k@	c #1978C5",
"l@	c #115A95",
"m@	c #1569AC",
"n@	c #1B73BB",
"o@	c #A6939D",
"p@	c #C59D91",
"q@	c #BD9F8A",
"r@	c #A19375",
"s@	c #0E0604",
"t@	c #4E9A32",
"u@	c #83BF62",
"v@	c #3C4936",
"w@	c #2197F4",
"x@	c #105A94",
"y@	c #86C066",
"z@	c #3B4736",
"A@	c #1978C3",
"B@	c #1362A1",
"C@	c #052C4C",
"D@	c #0E0D0B",
"E@	c #6F8E66",
"F@	c #7DAB6F",
"G@	c #7DAD6F",
"H@	c #7FAE6D",
"I@	c #7CA96C",
"J@	c #7AA56A",
"K@	c #8ECB6B",
"L@	c #3D4937",
"M@	c #2197F5",
"N@	c #2397F4",
"O@	c #185174",
"P@	c #1B1916",
"Q@	c #76B758",
"R@	c #3D4A37",
"S@	c #2898EC",
"T@	c #154D73",
"U@	c #1A1916",
"V@	c #7ABA61",
"W@	c #72BA48",
"X@	c #3D4B37",
"Y@	c #105891",
"Z@	c #2195F1",
"`@	c #2D9BE9",
" #	c #154E74",
".#	c #1C2117",
"+#	c #79BA60",
"@#	c #81C944",
"##	c #98D75D",
"$#	c #81BD66",
"%#	c #3E5136",
"&#	c #042C4C",
"*#	c #0D4E82",
"=#	c #0D4F84",
"-#	c #105183",
";#	c #03223D",
">#	c #212E1C",
",#	c #75B15C",
"'#	c #4F9733",
")#	c #78B563",
"!#	c #3F5A35",
"~#	c #24331D",
"{#	c #71AB58",
"]#	c #72AB59",
"^#	c #6B905E",
"/#	c #5B7A4E",
"(#	c #121711",
"_#	c #000001",
":#	c #1F2A63",
"<#	c #37479F",
"[#	c #3847A1",
"}#	c #171F4B",
"|#	c #202E1A",
"1#	c #57A32F",
"2#	c #77AC63",
"3#	c #435C3A",
"4#	c #000002",
"5#	c #030513",
"6#	c #040513",
"7#	c #040514",
"8#	c #242F6E",
"9#	c #3C4DAE",
"0#	c #3E50B2",
"a#	c #3F51B5",
"b#	c #1C2559",
"c#	c #1F2921",
"d#	c #5EA53A",
"e#	c #77B25B",
"f#	c #678A5D",
"g#	c #516F48",
"h#	c #111111",
"i#	c #1B255A",
"j#	c #384CA0",
"k#	c #394BA5",
"l#	c #2C3A85",
"m#	c #121940",
"n#	c #2B3981",
"o#	c #3A4BA9",
"p#	c #3D559F",
"q#	c #577659",
"r#	c #5C7A53",
"s#	c #559B38",
"t#	c #71B74A",
"u#	c #7DB765",
"v#	c #496341",
"w#	c #00000B",
"x#	c #080D25",
"y#	c #212C68",
"z#	c #3E4FB1",
"A#	c #3F52B5",
"B#	c #435EAE",
"C#	c #354F88",
"D#	c #253070",
"E#	c #3B4CAA",
"F#	c #3D4EB0",
"G#	c #4057B0",
"H#	c #0F173E",
"I#	c #1B2616",
"J#	c #69A253",
"K#	c #599C3B",
"L#	c #94CF65",
"M#	c #82A567",
"N#	c #577548",
"O#	c #131313",
"P#	c #182151",
"Q#	c #3949A5",
"R#	c #3C4EAE",
"S#	c #415DAC",
"T#	c #344C87",
"U#	c #070A23",
"V#	c #0F163A",
"W#	c #2E3C8A",
"X#	c #3F52B6",
"Y#	c #3E50B3",
"Z#	c #12193F",
"`#	c #030301",
" $	c #4D6A44",
".$	c #5F7D54",
"+$	c #A9E372",
"@$	c #75935A",
"#$	c #010418",
"$$	c #121A42",
"%$	c #222C69",
"&$	c #3D4EAF",
"*$	c #3D4FB0",
"=$	c #3B549F",
"-$	c #48627D",
";$	c #597152",
">$	c #4C6840",
",$	c #28357A",
"'$	c #3A4AA8",
")$	c #47623E",
"!$	c #A8E26D",
"~$	c #74915A",
"{$	c #151D49",
"]$	c #3949A4",
"^$	c #344398",
"/$	c #11183A",
"($	c #728D6B",
"_$	c #558F3B",
":$	c #7EAC6C",
"<$	c #070B25",
"[$	c #0E1438",
"}$	c #324195",
"|$	c #3F51B6",
"1$	c #93CF65",
"2$	c #6A8857",
"3$	c #121A43",
"4$	c #344399",
"5$	c #3747A2",
"6$	c #2E3E85",
"7$	c #030410",
"8$	c #85AB6F",
"9$	c #87B96B",
"0$	c #70985F",
"a$	c #577A49",
"b$	c #2B3882",
"c$	c #3848A3",
"d$	c #537244",
"e$	c #66A14D",
"f$	c #56734E",
"g$	c #02030E",
"h$	c #090F2C",
"i$	c #0A102F",
"j$	c #060C26",
"k$	c #010202",
"l$	c #A0CB79",
"m$	c #8BBD70",
"n$	c #060B24",
"o$	c #0B1132",
"p$	c #344499",
"q$	c #66854D",
"r$	c #659D4E",
"s$	c #4D6643",
"t$	c #91B970",
"u$	c #A8D87C",
"v$	c #8EC76E",
"w$	c #749F60",
"x$	c #547747",
"y$	c #000003",
"z$	c #2B3880",
"A$	c #0E1435",
"B$	c #66844B",
"C$	c #91D54F",
"D$	c #6AA742",
"E$	c #6DAF50",
"F$	c #5C7C4F",
"G$	c #779B66",
"H$	c #99D760",
"I$	c #98D557",
"J$	c #7BAB69",
"K$	c #05071C",
"L$	c #010106",
"M$	c #5F7D49",
"N$	c #83CA53",
"O$	c #88BA6C",
"P$	c #7EAD67",
"Q$	c #76A466",
"R$	c #77A666",
"S$	c #80B86B",
"T$	c #80B86A",
"U$	c #77A566",
"V$	c #78A667",
"W$	c #77A467",
"X$	c #79A667",
"Y$	c #769F65",
"Z$	c #729965",
"`$	c #77A268",
" %	c #96DA59",
"  . + @ # # $   % & * = = = = - ; > ; , ' ) ! ; ~ = * = + . . { ] ] ^ ^ ^ / ] ] / = = ( _ _ : ! ] { ",
"% . . @ # # $     ] = * = = = < { > ; [ } ( { { ] = = = . . . ] ] ] ^ = = < ] < / = = * _ _ | ] - { ",
"+ % . 1 2 # 3   + ] = = = = = / 4 { ; , 5 ' 4 4 4 6 = =   . . { - < = ^ = < = < - = = ( 7 _ 8 4 9 > ",
". . . + 0 0 a $ b + !   c @ d e 8 _ f @ @ g h i : [ ) , { j . a $ 3 k + j l @ 1 l ] ; ; = m ^ ] { n ",
". % . ~ ~ n a o b + . + l # p q | r s t t u v w x y y z A B C D E F G + H I # p J ] ; - = = ; ] < { ",
"%   + 4 ~ > $ b K k . + L # # q M N O P Q Q Q Q Q Q Q Q Q Q Q R S T 0 +   I p p U { { / = = ^ ] { ] ",
"$ $ V { ~ { ^ ^ ^ ; ; ^   W W   X Y Z `  .....................+.@.#.! + W H % H ] ' ' ' h | [ ^ = - ",
"$.b b { 9 4 %.( ( ( ^ = / ] ] ] ; &.Z *.=.-.-.-.-.-.-.-.-.-.;.>.@.,.j '.'.] = = ' i M i i i | ^ = = ",
"b b b j { ] ).) , 6 = = - ; ] ] < !.~.*.=.-.-.-.-.-.-.-.-.-.;.>.@.,.j 0 0 { = * ' _ _ 7 _ _ | m ^ = ",
"^ & & = = = = - = ] { { ! { ! G {.].^./.(._._._._._.:.<.-.-.;.>.@.[.{ . . { - ; ^ ^ ^ %.%.%.( ( ( ( ",
"| _ }.).= = < < ] j   . . . ! |.# 1.2.3.4.5.5.5.5.5.6.7.8.-.;.>.@.9.. . . { > n ; { { ; = * ^ [ ( ' ",
"_ | 7 = = = - < < ! + . 0.~ . K # 1.a.b.c.d.e.e.e.e.e.f.g.-.;.>.@.h.% . . j > > ; { n n 6 = ^ [ 5 ' ",
"] 4 4 = = ^ { j j { 4 ; { 0.+ V l i.j.k.l.m.n.e.e.e.e.o.g.-.;.>.@.p.] ; ; ~ ! { ; * 6 6 - - ; = = = ",
"o o b = = = j 0 + ] 6 = { 0 0 0 + q.r.s.s.t.u.e.e.e.e.v.w.x.;.>.@.y.).6 * ~ ! { ; , , z.] < - > > > ",
"$ o b - ^ ^ j 0 + 4 * 6 { 0 '.0 '.A.B.s.s.C.u.e.e.e.e.D.E.F.8.>.@.G.).= = ; ! ! ; ( ) 6 ] < n n > > ",
"J J L ; ).6 / ] ] ] j j { & &   + H.I.J.K.L.n.e.e.e.e.e.M.N.O.P.Q.R.( = ^ ; ^ S.^ ( 6 6 ; 9 n j { { ",
"# # p / [ ( 8 7 7   o o 4 i | %.+ T.U.V.W.X.e.e.e.e.e.e.e.Y.Z.`. +.+= = * ' _ 7 ' ] < < < 9 { . . . ",
"p # p / [ } _ i M ++@+#+$+%+&+*+=+-+;+>+,+'+'+'+'+'+'+'+'+)+!+~+{+]+^+/+(+_+:+<+' ] < < n < - . . ! ",
"U {.{./ ( } ).m m % [+}+|+1+1+2+3+4+5+6+7+8+9+9+9+9+9+9+9+9+0+a+s.b+c+d+e+f+g+h+).] < - { j { 0.j j ",
"5 5 , 6 = = i+j+b + k+6+l+m+n+o+p+q+r+s+t+u+v+w+w+w+w+w+w+w+x+y+m+n+n+n+n+m+z+s.{ = = - . . 0.; > > ",
"( [ [ 6 = = W $ b . A+B+C+D+E+F+G+H+I+J+K+L+M+N+N+N+N+N+N+N+O+P+Q+R+R+R+R+S+T+U+; = = - 0.. ! { > > ",
"( ( [ = = = G 3 $ j V+W+X+e.e.e.e.e.e.Y+Z+`+ @.@.@.@.@.@.@.@+@@@e.e.e.e.e.#@$@%@{ - - ; ! ! ! 4 { > ",
"~ > ~ = = ^ = = 6 - &@*@=@-@;@;@>@,@>@'@Z+`+ @.@.@.@.@.@.@.@+@@@)@e.e.e.e.#@$@%@+ b b V ) , ( ! ~ % ",
"n n n = * = = = = - !@~@{@]@^@/@(@_@:@<@[@`+ @.@.@.@.@}@|@1@+@@@)@e.e.e.e.#@$@%@+ b $ G 5 [ ( . . . ",
"{ > ; - / = = ^ = ; 2@s.s.s.s.s.s.s.s.s.s.`+ @.@.@.@3@4@s.5@6@7@8@#@#@#@#@#@9@%@  $ $ G ( ) ( ! 0.~ ",
"- * = @ # 2 + = = W 0@a@b@c@d@e@f@g@h@i@j@`+ @.@.@.@.@k@l@m@n@o@p@p@p@p@p@q@r@s@4 +   { 6 = ( ( ) t@",
"= = = @ # # + = = W b b a + '.4 7 _ ' u@v@`+ @.@.@.@.@w@.@x@s.s.s.s.s.s.s.s.s.s.]   0 j = = = 5 [ t@",
"= = = @ p p W = = V b b V '.+ 4 7 | ).y@z@`+ @.@.@.@.@.@3@A@B@C@D@E@F@G@H@I@J@e@]   . j = 6 6 , [ ( ",
". .   ( m ).G G V + { 9 9 { 4 ; ' ' ^ K@L@`+ @.@.@.@.@.@.@M@N@O@P@Q@{ . { { > > . 3 $ V ] ; ; }.7 | ",
"% % % h M _ G o b + { ; > - 9 = [ [ ^ K@R@`+ @.@.@.@.@.@.@.@S@T@U@V@! ! 0.{ > n 0 b $ V { ~ ] 7 M M ",
"% + % : _ _ W@b b 0 { ] { ] 4 = ( ( & K@X@Y@Z@w@w@w@w@w@w@w@`@ #.#+#! { j { { {   @#$ V { ; ; 7 _ | ",
"##@ ##] [ }   W 0 a j+W ] h h ( 6 ).^ $#%#&#*#=#=#=#=#=#=#=#-#;#>#,#; ; - n ; 4 ! j j j . . ~ * ; - ",
"# # p ] = = 9 . + V @#@#4 M _ '#).= * )#!#s.s.s.s.s.s.s.s.s.s.s.~#{#= = = - { ] ] ] < ] + + j ] > { ",
"# # # < = = j % + V b b 4 | _ [ = ]#^#/#(#s._#:#<#[#[#[#[#[#[#}#|#{#= = * = ] 9 < ] ] ] 0 + ! 9 > { ",
"$ i+i+j j j ; ; ; V b o G & X ^ 1#2#3#4#5#6#7#8#9#0#a#a#a#a#a#b#c#&.d#( ( j W a 0 ).6 6 - = = n - > ",
"^ = = . 0.0 < = * + b o a +   e#f#g#h#i#j#k#k#l#m#n#a#a#a#a#a#o#p#q#r#s#5 + b b + 5 [ [ [ [ , > < < ",
").= = . 0 './ = ^ W b $ a + t#u#v#w#x#y#z#A#B#C#s.D#E#F#a#a#a#a#G#H#I#J#K#  $ $   ' ' ' [ [ %.; < ] ",
"H +   + + 0 = ( ' 4 '.'.$ L#M#N#O#P#Q#R#a#a#S#T#s.U#V#W#X#a#a#a#Y#Z#`# $.$  $ b G     & h _ h . {   ",
"b b K + .   ' i i = < < l +$@$#$$$%$&$a#a#*$=$-$;$>$s.,$'$F#a#a#Y#Z#s.s.)$  $ $ @#3 $ W _ M h % +   ",
"o b b + + + ' M _ m ] / l !$~${$]$&$a#a#a#^$/$($_$:$s.<$[$}$|$a#Y#Z#s.s.)$4 @#$ b o j+G _ 7 [   +   ",
"    % 4 { 4 ' _ _ ^ ~ ~ V 1$2$3$4$5$5$5$5$6$7$8$++9$0$a$4#b$c$&$Y#Z#s.s.d$V b b j+'.W   ' h ( + 0   ",
"_ 7 7 m = ^ h M M X . ~ * e$f$g$h$i$i$i$i$j$k$l$# @#b m$s.n$o$p$Y#Z#s.s.q$J b o a ] ] ; ^ ^ ^ + '.+ ",
"M _ i ^ = ^ [ M _ X . ~ X r$f$s.s.s.s.s.s.s$t$u$# @#$ v$w$x$y$z$p$A$s.s.B$C$j+b '.] 4 ; = = ; + 0 0 ",
"m ^ m 4 { 4 4 D$D${ ~ ~ ; E$F$s.s.s.s.s.s.G$H$I$g ++W V 0 J$s.K$U#L$s.s.M$c j+$.+ < - ; * * ; ] 4 4 ",
"$ @#@#j+b b @ 2 p ++[ [ ! N$O$P$Q$Q$R$R$R$S$+ .   ( , , . T$U$V$W$X$Y$Z$`$; ~ { { = - * { ~ S.7 _ 7 ",
"@#$ @#b b b  %# # W@t@[   j+b '.! ~ . . . .   + . [ , [ ! . . . . . ] ^ = ; . 0.; = = = ~ ~ ; 7 M 7 ",
"V V $ V $ $  %@ 2 % ).)   @#@#W { ! { . + . . + . ( [ ) ! . ! % % ! ; * * > 4 { ] = = - { ] ; i | : ",
"= ).=   . H ] < ] ] ] & W $ $ W , , 6   . + . . . { ~ { ! 0.! ( ' [ ; ! . ; 6 = - { < < < < ; = ^ ^ ",
"^ ^ =     % 4 < 9 ] ] ] + o @#% ( , 6 . ! + . . . { n > { ! j 6 ' , ; ~ ! ; = * ; ] ] < < < < = = = ",
"= = =   . . { ; - ] ] < '.o b ++[ [ 6 . . + + + . S.; { ! 0.! * ( , ; ! 0.; - = ; ; 9 ] - ] ] = ^ m "};
