/* XPM */
static char * perso_left2_xpm[] = {
"50 50 567 2",
"  	c #6AB53B",
". 	c #66B83A",
"+ 	c #6AB93A",
"@ 	c #9ADC5C",
"# 	c #A3E25D",
"$ 	c #7BC644",
"% 	c #6BB541",
"& 	c #60A63A",
"* 	c #57A431",
"= 	c #5AA42D",
"- 	c #5DAB2E",
"; 	c #5EAB33",
"> 	c #5FB032",
", 	c #4E9926",
"' 	c #51962C",
") 	c #519A26",
"! 	c #64B53A",
"~ 	c #5FB038",
"{ 	c #63B234",
"] 	c #62AD33",
"^ 	c #5AA432",
"/ 	c #61A334",
"( 	c #529B2B",
"_ 	c #468A2A",
": 	c #4B9325",
"< 	c #61AD2E",
"[ 	c #4E992A",
"} 	c #529632",
"| 	c #498A2A",
"1 	c #9CE161",
"2 	c #9EE15B",
"3 	c #7BC548",
"4 	c #64AD39",
"5 	c #519625",
"6 	c #56A32C",
"7 	c #468B25",
"8 	c #479021",
"9 	c #63B32D",
"0 	c #6CBB36",
"a 	c #74C23D",
"b 	c #7CC943",
"c 	c #85CB4C",
"d 	c #98D954",
"e 	c #81C64D",
"f 	c #69A83E",
"g 	c #92D45B",
"h 	c #4D942B",
"i 	c #498B25",
"j 	c #69B536",
"k 	c #6DBC40",
"l 	c #8ACC4E",
"m 	c #5A9D32",
"n 	c #5FB02F",
"o 	c #7CC93E",
"p 	c #A3E362",
"q 	c #8AC757",
"r 	c #749869",
"s 	c #73946B",
"t 	c #82A672",
"u 	c #A3CE7C",
"v 	c #9CC67E",
"w 	c #74946B",
"x 	c #749469",
"y 	c #74926B",
"z 	c #769D6B",
"A 	c #769D6A",
"B 	c #7FAF6E",
"C 	c #7EAD6C",
"D 	c #8AC46D",
"E 	c #7BC63F",
"F 	c #74BC42",
"G 	c #70B73A",
"H 	c #8BCD51",
"I 	c #8BD24E",
"J 	c #7EC94A",
"K 	c #8DD252",
"L 	c #8BC859",
"M 	c #698261",
"N 	c #100F0F",
"O 	c #171312",
"P 	c #191413",
"Q 	c #161211",
"R 	c #101010",
"S 	c #87B770",
"T 	c #92D255",
"U 	c #76C343",
"V 	c #72BC3C",
"W 	c #6DB641",
"X 	c #6E9163",
"Y 	c #160D0A",
"Z 	c #533A31",
"` 	c #5F4237",
" .	c #4D352C",
"..	c #070403",
"+.	c #80AD6B",
"@.	c #74C83F",
"#.	c #559C31",
"$.	c #65AE3A",
"%.	c #6F9562",
"&.	c #1F130F",
"*.	c #6B4B40",
"=.	c #795548",
"-.	c #63443A",
";.	c #0C0605",
">.	c #7AA66B",
",.	c #70BC37",
"'.	c #4B872B",
").	c #5A9C2E",
"!.	c #709561",
"~.	c #63453A",
"{.	c #7CA86B",
"].	c #76BD48",
"^.	c #87A86E",
"/.	c #221712",
"(.	c #755449",
"_.	c #846053",
":.	c #815D50",
"<.	c #7A5649",
"[.	c #478D1F",
"}.	c #88CC57",
"|.	c #90B46F",
"1.	c #42322D",
"2.	c #C4A68D",
"3.	c #E3B4A5",
"4.	c #E2B4A5",
"5.	c #CFA293",
"6.	c #835E51",
"7.	c #65B936",
"8.	c #81CA50",
"9.	c #483932",
"0.	c #CCB694",
"a.	c #F5C5B5",
"b.	c #FDCBBB",
"c.	c #FFCCBC",
"d.	c #E6B7A7",
"e.	c #866154",
"f.	c #7BA36D",
"g.	c #7BC44D",
"h.	c #83A869",
"i.	c #1F1614",
"j.	c #6A534C",
"k.	c #8E7067",
"l.	c #EEBEB0",
"m.	c #75996A",
"n.	c #72BC43",
"o.	c #749D63",
"p.	c #000000",
"q.	c #58443F",
"r.	c #EABBAC",
"s.	c #E9B9AA",
"t.	c #957063",
"u.	c #866155",
"v.	c #729268",
"w.	c #4FA02B",
"x.	c #71BC41",
"y.	c #769F62",
"z.	c #FAC8B8",
"A.	c #EDBEAE",
"B.	c #D3A698",
"C.	c #7F5B4E",
"D.	c #729269",
"E.	c #6EB643",
"F.	c #749D64",
"G.	c #16100D",
"H.	c #54423C",
"I.	c #7C625A",
"J.	c #ECBDAE",
"K.	c #E5B6A7",
"L.	c #987265",
"M.	c #77584D",
"N.	c #100908",
"O.	c #76996B",
"P.	c #5FAD3C",
"Q.	c #749B65",
"R.	c #484131",
"S.	c #C9AC93",
"T.	c #F0C0B1",
"U.	c #FCCABA",
"V.	c #FBC9B9",
"W.	c #F3C2B2",
"X.	c #BAA386",
"Y.	c #221917",
"Z.	c #7DA76D",
"`.	c #7FB757",
" +	c #85CB55",
".+	c #8ACB5A",
"++	c #77AD58",
"@+	c #5F924D",
"#+	c #5E924B",
"$+	c #6EAA55",
"%+	c #709261",
"&+	c #484831",
"*+	c #C3AB8E",
"=+	c #EBBDAE",
"-+	c #B7A084",
";+	c #232017",
">+	c #7AA56A",
",+	c #6DAF50",
"'+	c #70B151",
")+	c #6AAF49",
"!+	c #67A848",
"~+	c #68A84C",
"{+	c #639C4E",
"]+	c #5E8F4A",
"^+	c #5F8F4C",
"/+	c #649D4C",
"(+	c #92CE59",
"_+	c #4E6A43",
":+	c #4E6543",
"<+	c #4A5D43",
"[+	c #465343",
"}+	c #444D43",
"|+	c #444E43",
"1+	c #435440",
"2+	c #1C211D",
"3+	c #0A0705",
"4+	c #3E2F2A",
"5+	c #473631",
"6+	c #382B26",
"7+	c #040202",
"8+	c #2F4129",
"9+	c #495F41",
"0+	c #485A43",
"a+	c #485A42",
"b+	c #485B42",
"c+	c #485943",
"d+	c #475742",
"e+	c #455841",
"f+	c #465C40",
"g+	c #4D6543",
"h+	c #7ABC46",
"i+	c #000101",
"j+	c #513F3A",
"k+	c #6D554E",
"l+	c #675451",
"m+	c #2E4263",
"n+	c #083D67",
"o+	c #063053",
"p+	c #000308",
"q+	c #43382F",
"r+	c #6C5F4D",
"s+	c #6D5C4D",
"t+	c #6D584E",
"u+	c #6C554E",
"v+	c #352824",
"w+	c #161616",
"x+	c #BB958A",
"y+	c #F5C4B5",
"z+	c #EAC1BA",
"A+	c #719CE1",
"B+	c #2090EA",
"C+	c #1876C0",
"D+	c #021021",
"E+	c #9D7D73",
"F+	c #F1C3B2",
"G+	c #F2C4B3",
"H+	c #F3C4B3",
"I+	c #F4C4B4",
"J+	c #D9BF9E",
"K+	c #7F6B5B",
"L+	c #111414",
"M+	c #C29B8F",
"N+	c #F3C8C1",
"O+	c #75A2E9",
"P+	c #2196F3",
"Q+	c #197AC8",
"R+	c #021122",
"S+	c #A38277",
"T+	c #FECBBB",
"U+	c #F2C8B1",
"V+	c #846D5F",
"W+	c #101314",
"X+	c #A48278",
"Y+	c #FACBB8",
"Z+	c #FBCBB9",
"`+	c #FCCBBA",
" @	c #FDCBBA",
".@	c #E0C4A4",
"+@	c #81745C",
"@@	c #2093EF",
"#@	c #1C83D6",
"$@	c #1C84D8",
"%@	c #2094F0",
"&@	c #887B61",
"*@	c #AAAA79",
"=@	c #AAAA77",
"-@	c #A9A378",
";@	c #AE9F7D",
">@	c #B2A280",
",@	c #B5A981",
"'@	c #B0B17D",
")@	c #706A4E",
"!@	c #121415",
"~@	c #BE9D8B",
"{@	c #FFCDBD",
"]@	c #F3C9C1",
"^@	c #76A3EA",
"/@	c #2197F4",
"(@	c #1E8BE2",
"_@	c #052E50",
":@	c #083D66",
"<@	c #1F8FE6",
"[@	c #011122",
"}@	c #090909",
"|@	c #908D66",
"1@	c #B6AA82",
"2@	c #BBA388",
"3@	c #BEA08B",
"4@	c #C09F8D",
"5@	c #BE9F8B",
"6@	c #B79A86",
"7@	c #A1957F",
"8@	c #5980AC",
"9@	c #1872BB",
"0@	c #176FB5",
"a@	c #125E9A",
"b@	c #1569AB",
"c@	c #2091EC",
"d@	c #5E7953",
"e@	c #709067",
"f@	c #709168",
"g@	c #78A06A",
"h@	c #7CAB6C",
"i@	c #7CAD6B",
"j@	c #7BA66A",
"k@	c #76A069",
"l@	c #7CA66B",
"m@	c #06355B",
"n@	c #1F8EE7",
"o@	c #2196F4",
"p@	c #7A9D6B",
"q@	c #5BA539",
"r@	c #88BA70",
"s@	c #8CBE70",
"t@	c #8CBE71",
"u@	c #89BA71",
"v@	c #85B56D",
"w@	c #82B36F",
"x@	c #80AB6E",
"y@	c #739569",
"z@	c #4B6142",
"A@	c #021D35",
"B@	c #115A95",
"C@	c #166CB1",
"D@	c #2091EB",
"E@	c #79A26C",
"F@	c #66835D",
"G@	c #053154",
"H@	c #1E8AE1",
"I@	c #2197F5",
"J@	c #7EAD6D",
"K@	c #569C3A",
"L@	c #66815D",
"M@	c #053053",
"N@	c #1D89DF",
"O@	c #7DAB6B",
"P@	c #72BA48",
"Q@	c #5E9F41",
"R@	c #67835E",
"S@	c #1E8AE0",
"T@	c #1A7BC9",
"U@	c #021123",
"V@	c #7BAA6D",
"W@	c #81C944",
"X@	c #98D75D",
"Y@	c #639F41",
"Z@	c #65835B",
"`@	c #011629",
" #	c #0B4878",
".#	c #0D4F84",
"+#	c #093F6B",
"@#	c #01060E",
"##	c #7AA26D",
"$#	c #4F9733",
"%#	c #64865A",
"&#	c #010100",
"*#	c #769C69",
"=#	c #50992D",
"-#	c #779F68",
";#	c #5F7E53",
">#	c #314629",
",#	c #10183E",
"'#	c #344398",
")#	c #3847A1",
"!#	c #2F3D8B",
"~#	c #070B24",
"{#	c #1A2355",
"]#	c #36459C",
"^#	c #2C3983",
"/#	c #030413",
"(#	c #455B3B",
"_#	c #628355",
":#	c #7BA96A",
"<#	c #64A745",
"[#	c #6A8E5F",
"}#	c #020310",
"|#	c #040513",
"1#	c #161E4B",
"2#	c #3B4CAC",
"3#	c #3F51B4",
"4#	c #3D4FB0",
"5#	c #344397",
"6#	c #080D29",
"7#	c #1E2860",
"8#	c #324295",
"9#	c #070A21",
"0#	c #00010B",
"a#	c #7BA86B",
"b#	c #5CA537",
"c#	c #80AD6C",
"d#	c #5C7C4F",
"e#	c #2F3E2B",
"f#	c #0A102E",
"g#	c #324193",
"h#	c #394AA5",
"i#	c #3A4BA7",
"j#	c #3E50B3",
"k#	c #3949A5",
"l#	c #192253",
"m#	c #0E1438",
"n#	c #010209",
"o#	c #3D4EB0",
"p#	c #394AA6",
"q#	c #2B3982",
"r#	c #445F3A",
"s#	c #5A7750",
"t#	c #75A267",
"u#	c #78C347",
"v#	c #75BC51",
"w#	c #77A065",
"x#	c #060921",
"y#	c #131941",
"z#	c #3848A2",
"A#	c #3F51B5",
"B#	c #3F50B4",
"C#	c #3B4CAB",
"D#	c #0C1232",
"E#	c #02030C",
"F#	c #080D25",
"G#	c #202B66",
"H#	c #314091",
"I#	c #080C24",
"J#	c #020518",
"K#	c #769F69",
"L#	c #599C3B",
"M#	c #6BB53D",
"N#	c #89B96F",
"O#	c #668550",
"P#	c #3C4E30",
"Q#	c #080D28",
"R#	c #3C4DAC",
"S#	c #3A4BA9",
"T#	c #0C1233",
"U#	c #01020B",
"V#	c #1A2451",
"W#	c #3A4DA4",
"X#	c #3C4EAE",
"Y#	c #3E50B1",
"Z#	c #28357A",
"`#	c #3D5536",
" $	c #536E49",
".$	c #82B968",
"+$	c #8DB770",
"@$	c #000006",
"#$	c #0F153A",
"$$	c #182151",
"%$	c #3747A0",
"&$	c #3A4BA8",
"*$	c #35449A",
"=$	c #0E153A",
"-$	c #2C3A28",
";$	c #566F50",
">$	c #5B7964",
",$	c #3E559D",
"'$	c #2A3881",
")$	c #0F130D",
"!$	c #82B86A",
"~$	c #8DB670",
"{$	c #060B24",
"]$	c #324194",
"^$	c #3C4DAE",
"/$	c #3B4CAA",
"($	c #1A2356",
"_$	c #0B1131",
":$	c #01020D",
"<$	c #5F7757",
"[$	c #5E9349",
"}$	c #7DB366",
"|$	c #42554A",
"1$	c #222D6A",
"2$	c #131D10",
"3$	c #7FB269",
"4$	c #82B06C",
"5$	c #2F3C8A",
"6$	c #3747A2",
"7$	c #334397",
"8$	c #10173D",
"9$	c #32432B",
"0$	c #729360",
"a$	c #83A96D",
"b$	c #77B547",
"c$	c #83BB62",
"d$	c #465F3D",
"e$	c #36469D",
"f$	c #172312",
"g$	c #739D66",
"h$	c #000104",
"i$	c #080C27",
"j$	c #0A102F",
"k$	c #090E2C",
"l$	c #01020C",
"m$	c #5E7B51",
"n$	c #A8E36F",
"o$	c #8FCB67",
"p$	c #50713E",
"q$	c #020515",
"r$	c #253172",
"s$	c #2B3881",
"t$	c #1C2614",
"u$	c #99D073",
"v$	c #759D68",
"w$	c #607F54",
"x$	c #A5E368",
"y$	c #8CCB5F",
"z$	c #81AD69",
"A$	c #719A5B",
"B$	c #111111",
"C$	c #1C265B",
"D$	c #34449A",
"E$	c #232F6E",
"F$	c #151B11",
"G$	c #9DD273",
"H$	c #6AA742",
"I$	c #76A166",
"J$	c #638255",
"K$	c #9BD866",
"L$	c #98D557",
"M$	c #75B443",
"N$	c #88C469",
"O$	c #3B582C",
"P$	c #020311",
"Q$	c #070A23",
"R$	c #070A24",
"S$	c #030516",
"T$	c #1D2914",
"U$	c #94CA72",
"V$	c #7FB56B",
"W$	c #82B169",
"X$	c #82B167",
"Y$	c #7EAD67",
"Z$	c #76A467",
"`$	c #76A466",
" %	c #77A667",
".%	c #77A666",
"+%	c #7DB06B",
"@%	c #6EBA42",
"#%	c #64A04D",
"$%	c #79A968",
"%%	c #78A667",
"&%	c #77A467",
"*%	c #79A667",
"=%	c #769F65",
"-%	c #729965",
";%	c #749E66",
">%	c #76B15E",
",%	c #96DA59",
"'%	c #4E9A32",
"  . + @ # # $   % & * = = = = - ; > ; , ' ) ! ; ~ = * = + . . { ] ] ^ ^ ^ / ] ] / = = ( _ _ : ! ]   ",
"% . . @ # # $     ] = * = = = < { > ; [ } ( { { ] = = = . . . ] ] ] ^ = = < ] < / = = * _ _ | ] - % ",
"+ % . 1 2 # 3   + ] = = = = = / 4 { ; , 5 ' 4 4 4 6 = =   . . { - < = ^ = < = < - = = ( 7 _ 8 4 9 + ",
". . . + 0 0 a $ b + !   c @ d e 8 _ f @ @ g h i : [ ) , { j . a $ 3 k + j l @ 1 l ] ; ; = m ^ ] { . ",
". % . ~ ~ n a o b + . + l # p q r s t u u v w x y z z A B B C D E b F + G H # p I ] ; - = = ; ] < . ",
"%   + 4 ~ > $ b J k . + K # # L M N O P P P P P P P P P P Q R S $ b 0 +   H p p T { { / = = ^ ] { % ",
"$ $ U { ~ { ^ ^ ^ ; ; ^   V V W X Y Z ` ` ` ` ` ` ` ` ` `  ...+.] ] ! + V G % G ] ' ' ' h | [ ^ = $ ",
"@.b b { 9 4 #.( ( ( ^ = / ] ] $.%.&.*.=.=.=.=.=.=.=.=.=.=.-.;.>.= = j ,.,.] = = ' i '.i i i | ^ = @.",
"b b b j { ] ).) , 6 = = - ; ] $.!.&.*.=.=.=.=.=.=.=.=.=.=.~.;.{.= = j 0 0 { = * ' _ _ 7 _ _ | m ^ b ",
"^ & & = = = = - = ] { { ! { ! ].^./.(._._._._._._.:.<.=.=.~.;.{.- - { . . { - ; ^ ^ ^ #.#.#.( ( ( ^ ",
"| _ [.).= = < < ] j   . . . ! }.|.1.2.3.4.4.4.4.4.5.6.=.=.~.;.{.n > . . . { > n ; { { ; = * ^ [ ( | ",
"_ | 7 = = = - < < ! + . 7.~ . 8.|.9.0.a.b.c.c.c.c.d.e.=.=.~.;.f.4 4 % . . j > > ; { n n 6 = ^ [ 5 _ ",
"] 4 4 = = ^ { j j { 4 ; { 7.+ g.h.i.j.k.l.c.c.c.c.d.e.=.=.~.;.m.).( ] ; ; ~ ! { ; * 6 6 - - ; = = ] ",
"o o b = = = j 0 + ] 6 = { 0 0 n.o.p.p.q.r.c.c.c.c.s.t.u.<.~.;.v.| i ).6 * ~ ! { ; , , w.] < - > > o ",
"$ o b - ^ ^ j 0 + 4 * 6 { 0 ,.x.y.p.p.q.r.c.c.c.c.z.A.B.C.-.;.D.'.| ).= = ; ! ! ; ( ) 6 ] < n n > $ ",
"I I K ; ).6 / ] ] ] j j { & & E.F.G.H.I.J.c.c.c.c.c.c.K.L.M.N.O.' ( ( = ^ ; ^ P.^ ( 6 6 ; 9 n j { I ",
"# # p / [ ( 8 7 7   o o 4 i | #.Q.R.S.T.U.c.c.c.c.c.c.V.W.X.Y.Z.; ] = = * ' _ 7 ' ] < < < 9 { . . # ",
"p # p / [ } _ i '.`. +.+++@+#+$+%+&+*+=+=+=+=+=+=+=+=+=+=+-+;+>+,+'+)+!+~+{+]+^+/+] < < n < - . . p ",
"T (+(+/ ( } ).m m _+:+<+[+}+|+1+2+3+4+5+5+5+5+5+5+5+5+5+5+6+7+8+9+0+a+b+c+d+e+f+g+] < - { j { 7.j T ",
"5 5 , 6 = = h+E b i+j+k+k+k+k+k+k+l+m+n+n+n+n+n+n+n+n+n+n+o+p+q+r+s+t+k+k+k+u+v+w+= = - . . 7.; > 5 ",
"( [ [ 6 = = V $ b p.x+y+y+y+y+y+y+z+A+B+B+B+B+B+B+B+B+B+B+C+D+E+F+G+H+I+I+I+J+K+L+= = - 7.. ! { > ( ",
"( ( [ = = = F 3 $ p.M+c.c.c.c.c.c.N+O+P+P+P+P+P+P+P+P+P+P+Q+R+S+T+c.c.c.c.c.U+V+W+- - ; ! ! ! 4 { ( ",
"~ > ~ = = ^ = = 6 p.M+c.c.c.c.c.c.N+O+P+P+P+P+P+P+P+P+P+P+Q+R+X+Y+Z+`+ @b. @.@+@W+b b U ) , ( ! ~ ~ ",
"n n n = * = = = = p.M+c.c.c.c.c.c.N+O+P+P+@@#@$@%@P+P+P+P+Q+R+&@*@=@-@;@>@,@'@)@!@b $ F 5 [ ( . . n ",
"{ > ; - / = = ^ = p.~@{@{@{@{@{@{@]@^@/@/@(@_@:@<@P+P+P+P+Q+[@p.p.p.p.p.p.p.p.p.}@$ $ F ( ) ( ! 7.{ ",
"- * = @ # 2 + = = p.|@1@2@3@4@5@6@7@8@9@9@0@a@b@c@P+P+P+P+Q+[@d@e@f@g@h@i@j@k@k@l@+   { 6 = ( ( ) - ",
"= = = @ # # + = = p.p.p.p.p.p.p.p.p.p.p.p.m@n@o@P+P+P+P+P+Q+R+p@7 7 q@. . ; * = ]   0 j = = = 5 [ = ",
"= = = @ p p V = = r@s@t@u@v@w@x@y@D.z@A@B@C@D@P+P+P+P+P+P+Q+R+E@i 7 P.~ { ; = = ]   . j = 6 6 , [ = ",
". .   ( m ).F F U + { 9 9 { 4 ; ' ' F@G@H@I@P+P+P+P+P+P+P+Q+R+J@~ { { . { { > > . 3 $ U ] ; ; [.7 . ",
"% % % h '._ F o b + { ; > - 9 = [ K@L@M@N@P+P+P+P+P+P+P+P+Q+R+O@. ! ! ! 7.{ > n 0 b $ U { ~ ] 7 '.% ",
"% + % : _ _ P@b b 0 { ] { ] 4 = ( Q@R@G@S@/@/@/@/@/@/@/@/@T@U@V@! ! ! { j { { {   W@$ U { ; ; 7 _ % ",
"X@@ X@] [ }   V 0 a E V ] h h ( 6 Y@Z@`@ #.#.#.#.#.#.#.#.#+#@###^ ; ; ; - n ; 4 ! j j j . . ~ * ; X@",
"# # p ] = = 9 . + U W@W@4 '._ $#).& %#p.p.p.p.p.p.p.p.p.p.p.&#*#).= = = = - { ] ] ] < ] + + j ] > # ",
"# # # < = = j % + U b b 4 | _ =#-#;#>#p.p.,#'#)#)#!#~#{#]#^#/#(#_#:#= = * = ] 9 < ] ] ] 0 + ! 9 > # ",
"$ h+h+j j j ; ; ; U b o F & q@<#[#p.}#|#|#1#2#3#4#5#6#7#4#8#9#0#p.a#b#( ( j V a 0 ).6 6 - = = n - $ ",
"^ = = . 7.0 < = * + b o a + c#d#e#f#g#h#h#i#j#k#l#m#n#7#4#o#p#q#p.r#s#t#5 + b b + 5 [ [ [ [ , > < ^ ",
").= = . 0 ,./ = ^ V b $ u#v#w#p.x#y#z#A#A#B#C#'#D#E#F#G#4#A#A#H#I#J#&#K#L#M#$ $   ' ' ' [ [ #.; < ).",
"G +   + + 0 = ( ' 4 ,.,.N#O#P#Q#8#R#j#A#A#S#l#T#U#V#W#X#A#A#A#Y#C#Z#p.`# $.$$ b F     & h _ h . { G ",
"b b J + .   ' i i = < < +$@$#$$$%$A#A#j#&$*$=$-$;$>$,$C#3#A#A#A#A#'$p.p.)$!$$ $ W@3 $ V _ '.h % + b ",
"o b b + + + ' '._ m ] / ~${$]$^$j#A#A#/$($_$:$<$[$}$|$1$4#A#A#A#A#'$p.p.2$3$W@$ b o E F _ 7 [   + o ",
"    % 4 { 4 ' _ _ ^ ~ ~ 4$x#5$6$6$6$6$7$8$9$0$a$b$c$d${#e$&$A#A#A#'$p.p.f$D b b E ,.V   ' h ( + 0   ",
"_ 7 7 m = ^ h '.'.q@. ~ g$h$i$j$j$j$j$k$l$m$n$# # o$p$q$f#r$j#A#A#s$p.p.t$u$b o a ] ] ; ^ ^ ^ + ,._ ",
"'._ i ^ = ^ [ '._ q@. ~ v$p.p.p.p.p.p.p.p.w$x$# # y$z$A$B$C$'#*$D$E$p.p.F$G$E b ,.] 4 ; = = ; + 0 '.",
"m ^ m 4 { 4 4 H$H${ ~ ~ I$p.p.p.p.p.p.p.p.J$K$L$g M$V N$O$P$Q$~#R$S$p.p.T$U$E @.+ < - ; * * ; ] 4 m ",
"$ W@W@E b b @ 2 p M$[ [ V$W$X$Y$Z$`$ % %.%+%@%.   ( , #%$% % %%%&%*%=%-%;%>%~ { { = - * { ~ P.7 _ $ ",
"W@$ W@b b b ,%# # P@'%[   E b ,.! ~ . . . .   + . [ , [ ! . . . . . ] ^ = ; . 7.; = = = ~ ~ ; 7 '.W@",
"U U $ U $ $ ,%@ 2 % ).)   W@W@V { ! { . + . . + . ( [ ) ! . ! % % ! ; * * > 4 { ] = = - { ] ; i | U ",
"= ).=   . G ] < ] ] ] & V $ $ V , , 6   . + . . . { ~ { ! 7.! ( ' [ ; ! . ; 6 = - { < < < < ; = ^ = ",
"^ ^ =     % 4 < 9 ] ] ] + o W@% ( , 6 . ! + . . . { n > { ! j 6 ' , ; ~ ! ; = * ; ] ] < < < < = = ^ ",
"= = =   . . { ; - ] ] < ,.o b M$[ [ 6 . . + + + . P.; { ! 7.! * ( , ; ! 7.; - = ; ; 9 ] - ] ] = ^ = "};
