/* XPM */
static char * perso_down1_xpm[] = {
"50 50 444 2",
"  	c #6AB53B",
". 	c #66B83A",
"+ 	c #6AB93A",
"@ 	c #9ADC5C",
"# 	c #A3E25D",
"$ 	c #7BC644",
"% 	c #6BB541",
"& 	c #60A63A",
"* 	c #57A431",
"= 	c #5AA42D",
"- 	c #5DAB2E",
"; 	c #5EAB33",
"> 	c #5FB032",
", 	c #4E9926",
"' 	c #51962C",
") 	c #519A26",
"! 	c #64B53A",
"~ 	c #5FB038",
"{ 	c #63B234",
"] 	c #62AD33",
"^ 	c #5AA432",
"/ 	c #61A334",
"( 	c #529B2B",
"_ 	c #468A2A",
": 	c #4B9325",
"< 	c #61AD2E",
"[ 	c #4E992A",
"} 	c #529632",
"| 	c #498A2A",
"1 	c #9CE161",
"2 	c #9EE15B",
"3 	c #7BC548",
"4 	c #64AD39",
"5 	c #519625",
"6 	c #56A32C",
"7 	c #468B25",
"8 	c #479021",
"9 	c #63B32D",
"0 	c #6CBB36",
"a 	c #74C23D",
"b 	c #7CC943",
"c 	c #85CB4C",
"d 	c #98D954",
"e 	c #81C64D",
"f 	c #69A83E",
"g 	c #92D45B",
"h 	c #4D942B",
"i 	c #498B25",
"j 	c #69B536",
"k 	c #6DBC40",
"l 	c #8ACC4E",
"m 	c #5A9D32",
"n 	c #5FB02F",
"o 	c #7CC93E",
"p 	c #A3E362",
"q 	c #89C754",
"r 	c #6AA742",
"s 	c #98D761",
"t 	c #4B872B",
"u 	c #76C343",
"v 	c #7BC63F",
"w 	c #74BC42",
"x 	c #70B73A",
"y 	c #8BCD51",
"z 	c #8BD24E",
"A 	c #7EC94A",
"B 	c #8DD252",
"C 	c #508934",
"D 	c #729869",
"E 	c #81A570",
"F 	c #9DCD7C",
"G 	c #A2CD7B",
"H 	c #9BC57C",
"I 	c #729269",
"J 	c #729368",
"K 	c #749C69",
"L 	c #7DAC6B",
"M 	c #7EB16C",
"N 	c #7FB06D",
"O 	c #87B870",
"P 	c #8DC66E",
"Q 	c #92D255",
"R 	c #72BC3C",
"S 	c #62A745",
"T 	c #6E9463",
"U 	c #050505",
"V 	c #0B0807",
"W 	c #0C0908",
"X 	c #0A0707",
"Y 	c #050404",
"Z 	c #7CA86A",
"` 	c #74C83F",
" .	c #559C31",
"..	c #64AD3F",
"+.	c #719863",
"@.	c #190F0B",
"#.	c #573C32",
"$.	c #614339",
"%.	c #4D352D",
"&.	c #040202",
"*.	c #79A269",
"=.	c #70BC37",
"-.	c #5A9C2E",
";.	c #66AF3B",
">.	c #729962",
",.	c #211410",
"'.	c #6C4C40",
").	c #7A5649",
"!.	c #805C4F",
"~.	c #815D50",
"{.	c #7F5A4E",
"].	c #795548",
"^.	c #060402",
"/.	c #79A26A",
"(.	c #94CF5E",
"_.	c #8AB06E",
":.	c #896558",
"<.	c #D2A697",
"[.	c #DFB0A2",
"}.	c #C79C8E",
"|.	c #7E5A4D",
"1.	c #7AA76A",
"2.	c #478D1F",
"3.	c #85CB51",
"4.	c #A5E262",
"5.	c #93BA71",
"6.	c #906B5E",
"7.	c #EFBFAF",
"8.	c #FFCCBC",
"9.	c #E1B3A3",
"0.	c #815C50",
"a.	c #7BAA6A",
"b.	c #65B936",
"c.	c #A5E263",
"d.	c #916B5E",
"e.	c #7EA86D",
"f.	c #8DCD55",
"g.	c #86AB6C",
"h.	c #261A15",
"i.	c #7B594D",
"j.	c #997366",
"k.	c #E6B7A8",
"l.	c #F5C4B5",
"m.	c #FECBBB",
"n.	c #FCCABA",
"o.	c #F4C3B5",
"p.	c #DAAD9F",
"q.	c #8E695C",
"r.	c #6D4F45",
"s.	c #080503",
"t.	c #799D6A",
"u.	c #6FBA44",
"v.	c #78A066",
"w.	c #494131",
"x.	c #BDA787",
"y.	c #DCAFA0",
"z.	c #8A6D64",
"A.	c #92746B",
"B.	c #F3C3B2",
"C.	c #E6B8A9",
"D.	c #84685F",
"E.	c #9D7C72",
"F.	c #E3B5A6",
"G.	c #BB9487",
"H.	c #150F0C",
"I.	c #739269",
"J.	c #4FA02B",
"K.	c #74BD42",
"L.	c #7AA067",
"M.	c #504238",
"N.	c #CEB595",
"O.	c #F0C0B1",
"P.	c #7B6159",
"Q.	c #775D56",
"R.	c #E5B7A8",
"S.	c #F2C2B2",
"T.	c #D6AB9D",
"U.	c #655048",
"V.	c #99796F",
"W.	c #F9C7B7",
"X.	c #CEA496",
"Y.	c #18110F",
"Z.	c #74916B",
"`.	c #6DBA40",
" +	c #7A9D68",
".+	c #4F3E38",
"++	c #D2B599",
"@+	c #FCC9BA",
"#+	c #ECBDAE",
"$+	c #D7AC9F",
"%+	c #80665D",
"&+	c #6F5850",
"*+	c #94766C",
"=+	c #E2B5A7",
"-+	c #EFBFB0",
";+	c #76996B",
">+	c #5FAD3C",
",+	c #6BB93C",
"'+	c #779C68",
")+	c #D2B799",
"!+	c #ECBCAE",
"~+	c #7D625B",
"{+	c #614C45",
"]+	c #98786F",
"^+	c #F7C6B6",
"/+	c #7CA76D",
"(+	c #75B443",
"_+	c #81C944",
":+	c #759F66",
"<+	c #514A38",
"[+	c #CAB793",
"}+	c #EDBDAE",
"|+	c #F1C1B2",
"1+	c #92CE59",
"2+	c #679E54",
"3+	c #6BA950",
"4+	c #75B959",
"5+	c #709560",
"6+	c #4A4A32",
"7+	c #C1A98B",
"8+	c #E7B9AA",
"9+	c #BA9588",
"0+	c #140E0C",
"a+	c #7BA46C",
"b+	c #76B25A",
"c+	c #75B358",
"d+	c #71B152",
"e+	c #7ABC46",
"f+	c #59794B",
"g+	c #55714B",
"h+	c #506A48",
"i+	c #2C3A27",
"j+	c #140D0B",
"k+	c #4A3A34",
"l+	c #54413B",
"m+	c #42332E",
"n+	c #030201",
"o+	c #364332",
"p+	c #54684D",
"q+	c #57724D",
"r+	c #5C7E4A",
"s+	c #00050F",
"t+	c #113F5B",
"u+	c #154868",
"v+	c #021D36",
"w+	c #00111D",
"x+	c #004262",
"y+	c #004B6E",
"z+	c #004A6E",
"A+	c #003A57",
"B+	c #000205",
"C+	c #042744",
"D+	c #09416E",
"E+	c #052E4F",
"F+	c #070604",
"G+	c #031A2C",
"H+	c #3086B4",
"I+	c #248DDA",
"J+	c #0A4879",
"K+	c #002F47",
"L+	c #0291D1",
"M+	c #03A2E9",
"N+	c #0281BB",
"O+	c #000B15",
"P+	c #0F5B96",
"Q+	c #1E8FE8",
"R+	c #1469AC",
"S+	c #070100",
"T+	c #19282B",
"U+	c #679895",
"V+	c #81A0DE",
"W+	c #445478",
"X+	c #00314C",
"Y+	c #0297DB",
"Z+	c #03A9F4",
"`+	c #0288C5",
" @	c #000C16",
".@	c #556995",
"+@	c #83A5E0",
"@@	c #5F809C",
"#@	c #020000",
"$@	c #323223",
"%@	c #99A76F",
"&@	c #EFC2B7",
"*@	c #826863",
"=@	c #A1827A",
"-@	c #F7CABE",
";@	c #AB9582",
">@	c #000000",
",@	c #332E21",
"'@	c #9FAC70",
")@	c #F5C5B4",
"!@	c #866961",
"~@	c #A58378",
"{@	c #B39783",
"]@	c #343322",
"^@	c #9EAC6F",
"/@	c #FDCBBA",
"(@	c #AE9A7E",
"_@	c #4E9A32",
":@	c #363B22",
"<@	c #9FAD70",
"[@	c #F3C4B3",
"}@	c #856960",
"|@	c #C7A393",
"1@	c #8D8466",
"2@	c #374023",
"3@	c #9DAD6E",
"4@	c #B9AB86",
"5@	c #866A61",
"6@	c #080808",
"7@	c #242317",
"8@	c #88935F",
"9@	c #919367",
"0@	c #604B45",
"a@	c #66504A",
"b@	c #9C8571",
"c@	c #72754F",
"d@	c #000203",
"e@	c #00324C",
"f@	c #03A9F5",
"g@	c #9D8F71",
"h@	c #AEBE7C",
"i@	c #9BA76D",
"j@	c #72BA48",
"k@	c #80AE6D",
"l@	c #7AA769",
"m@	c #76A068",
"n@	c #57734E",
"o@	c #001F30",
"p@	c #016694",
"q@	c #0272A6",
"r@	c #015A84",
"s@	c #00060B",
"t@	c #6E6B4D",
"u@	c #959E69",
"v@	c #798354",
"w@	c #000102",
"x@	c #98D75D",
"y@	c #709063",
"z@	c #4F9733",
"A@	c #709462",
"B@	c #080D29",
"C@	c #2B3882",
"D@	c #314092",
"E@	c #2C3A86",
"F@	c #0A102F",
"G@	c #141C47",
"H@	c #2F3E8D",
"I@	c #263275",
"J@	c #010209",
"K@	c #6F8F62",
"L@	c #7AAC66",
"M@	c #79AC65",
"N@	c #0D1336",
"O@	c #3848A3",
"P@	c #3F51B6",
"Q@	c #394AA6",
"R@	c #10163C",
"S@	c #1C255A",
"T@	c #3D4FB0",
"U@	c #324092",
"V@	c #02040E",
"W@	c #7BA36C",
"X@	c #5BA539",
"Y@	c #709463",
"Z@	c #3848A2",
"`@	c #3F51B5",
" #	c #394AA5",
".#	c #1B255A",
"+#	c #3D4EAF",
"@#	c #314091",
"##	c #526F46",
"$#	c #6E9460",
"%#	c #7BAB6A",
"&#	c #6F9463",
"*#	c #78A16B",
"=#	c #709465",
"-#	c #040404",
";#	c #7AA66A",
">#	c #0C1234",
",#	c #384B9B",
"'#	c #3747A0",
")#	c #0F153A",
"!#	c #1A2357",
"~#	c #3B4BA9",
"{#	c #303E8C",
"]#	c #02030D",
"^#	c #76A069",
"/#	c #65B53C",
"(#	c #739F64",
"_#	c #01020A",
":#	c #0C1231",
"<#	c #0F1538",
"[#	c #0C1232",
"}#	c #02020D",
"|#	c #020417",
"1#	c #0D1335",
"2#	c #0E1437",
"3#	c #080E2A",
"4#	c #020202",
"5#	c #78A669",
"6#	c #8CD358",
"7#	c #66B63E",
"8#	c #73A263",
"9#	c #202F1B",
"0#	c #4A693D",
"a#	c #4D6B40",
"b#	c #4D6A42",
"c#	c #4D6E42",
"d#	c #4E7041",
"e#	c #4D6E40",
"f#	c #4C6F40",
"g#	c #4D6D40",
"h#	c #4E7040",
"i#	c #78A768",
"j#	c #7FC94D",
"k#	c #7EAC66",
"l#	c #73955F",
"m#	c #77B94A",
"n#	c #6CBA3F",
"o#	c #68B93F",
"p#	c #67B83C",
"q#	c #66B938",
"r#	c #5EAB31",
"s#	c #63AE34",
"t#	c #A4E25F",
"u#	c #94BD70",
"v#	c #8CB369",
"w#	c #82C948",
"x#	c #76B648",
"y#	c #8CB269",
"z#	c #84CA4B",
"A#	c #91D54F",
"B#	c #9AC775",
"C#	c #7AA163",
"D#	c #63825A",
"E#	c #638258",
"F#	c #698A5A",
"G#	c #84A867",
"H#	c #84A765",
"I#	c #93BF76",
"J#	c #76B445",
"K#	c #96DA59",
"  . + @ # # $   % & * = = = = - ; > ; , ' ) ! ; ~ = * = + . . { ] ] ^ ^ ^ / ] ] / = = ( _ _ : ! ] { ",
"% . . @ # # $     ] = * = = = < { > ; [ } ( { { ] = = = . . . ] ] ] ^ = = < ] < / = = * _ _ | ] - { ",
"+ % . 1 2 # 3   + ] = = = = = / 4 { ; , 5 ' 4 4 4 6 = =   . . { - < = ^ = < = < - = = ( 7 _ 8 4 9 > ",
". . . + 0 0 a $ b + !   c @ d e 8 _ f @ @ g h i : [ ) , { j . a $ 3 k + j l @ 1 l ] ; ; = m ^ ] { n ",
". % . ~ ~ n a o b + . + l # p q | _ r # # s | i t [ [ , ! ! { u v b w + x y # p z ] ; - = = ; ] < { ",
"%   + 4 ~ > $ b A k . + B # # q C D E F G H I J J K K K L M N O P b 0 +   y p p Q { { / = = ^ ] { ] ",
"$ $ u { ~ { ^ ^ ^ ; ; ^   R R   S T U V W W W W W W W W W W X Y Z ] ! + R x % x ] ' ' ' h | [ ^ = - ",
"` b b { 9 4  .( ( ( ^ = / ] ] ] ..+.@.#.$.$.$.$.$.$.$.$.$.$.%.&.*.= j =.=.] = = ' i t i i i | ^ = = ",
"b b b j { ] -.) , 6 = = - ; ] ] ;.>.,.'.).!.~.~.~.~.~.~.{.].$.^./.= j 0 0 { = * ' _ _ 7 _ _ | m ^ = ",
"^ & & = = = = - = ] { { ! { ! w (._.,.'.:.<.[.[.[.[.[.[.}.|.$.^.1.- { . . { - ; ^ ^ ^  . . .( ( ( ( ",
"| _ 2.-.= = < < ] j   . . . ! 3.4.5.,.'.6.7.8.8.8.8.8.8.9.0.$.^.a.> . . . { > n ; { { ; = * ^ [ ( ' ",
"_ | 7 = = = - < < ! + . b.~ . A c.5.,.'.d.7.8.8.8.8.8.8.9.0.$.^.e.4 % . . j > > ; { n n 6 = ^ [ 5 ' ",
"] 4 4 = = ^ { j j { 4 ; { b.+ u f.g.h.i.j.k.l.m.8.8.n.o.p.q.r.s.t.( ] ; ; ~ ! { ; * 6 6 - - ; = = = ",
"o o b = = = j 0 + ] 6 = { 0 0 0 u.v.w.x.y.z.A.B.8.8.C.D.E.F.G.H.I.i -.6 * ~ ! { ; , , J.] < - > > > ",
"$ o b - ^ ^ j 0 + 4 * 6 { 0 =.0 K.L.M.N.O.P.Q.R.S.S.T.U.V.W.X.Y.Z.| -.= = ; ! ! ; ( ) 6 ] < n n > > ",
"z z B ; -.6 / ] ] ] j j { & &   `. +.+++@+#+$+%+&+&+*+=+-+m.X.Y.;+( ( = ^ ; ^ >+^ ( 6 6 ; 9 n j { { ",
"# # p / [ ( 8 7 7   o o 4 i |  .,+'+.+)+8.8.!+~+{+{+]+^+8.8.X.Y./+] = = * ' _ 7 ' ] < < < 9 { . . . ",
"p # p / [ } _ i t (+o _+f | | ^   :+<+[+8.8.n.-+}+}+|+m.8.8.X.Y./+4 - = ^ } t t ' ] < < n < - . . ! ",
"Q 1+1+/ ( } -.m m % a a ] } 2+3+4+5+6+7+8+8+8+8+8+8+8+8+8+8+9+0+a+b+c+d+& m [ [ -.] < - { j { b.j j ",
"5 5 , 6 = = e+v b + ~ ~ ~ ! f+g+h+i+j+k+l+l+l+l+l+l+l+l+l+l+m+n+o+p+q+r+=.+ . ! { = = - . . b.; > > ",
"( [ [ 6 = = R $ b . >+> ~ b.s+t+u+v+w+x+y+y+y+y+y+y+y+y+y+z+A+B+C+D+E+F+b.. ! b.; = = - b.. ! { > > ",
"( ( [ = = = w 3 $ j > n { j G+H+I+J+K+L+M+M+M+M+M+M+M+M+M+M+N+O+P+Q+R+S++ ! ! ! { - - ; ! ! ! 4 { > ",
"~ > ~ = = ^ = = 6 - n > > n T+U+V+W+X+Y+Z+Z+Z+Z+Z+Z+Z+Z+Z+Z+`+ @.@+@@@#@i ( 4 ~ + b b u ) , ( ! ~ % ",
"n n n = * = = = = - n { n n $@%@&@*@X+Y+Z+Z+Z+Z+Z+Z+Z+Z+Z+Z+`+ @=@-@;@>@| m { > + b $ w 5 [ ( . . . ",
"{ > ; - / = = ^ = ; { - n > ,@'@)@!@X+Y+Z+Z+Z+Z+Z+Z+Z+Z+Z+Z+`+ @~@8.{@>@i ( ~ ~   $ $ w ( ) ( ! b.~ ",
"- * = @ # 2 + = = R $ b a + ]@^@)@!@X+Y+Z+Z+Z+Z+Z+Z+Z+Z+Z+Z+`+ @~@/@(@>@b.] * * 4 +   { 6 = ( ( ) _@",
"= = = @ # # + = = R b b a + :@<@[@!@X+Y+Z+Z+Z+Z+Z+Z+Z+Z+Z+Z+`+ @}@|@1@>@. ; * = ]   0 j = = = 5 [ _@",
"= = = @ p p R = = u b b u =.2@3@4@5@X+Y+Z+Z+Z+Z+Z+Z+Z+Z+Z+Z+`+ @>@>@>@6@{ ; = = ]   . j = 6 6 , [ ( ",
". .   ( m -.w w u + { 9 9 { 7@8@9@0@X+Y+Z+Z+Z+Z+Z+Z+Z+Z+Z+Z+`+ @a@b@c@d@{ { > > . 3 $ u ] ; ; 2.7 | ",
"% % % h t _ w o b + { ; > - >@>@>@>@e@Y+f@f@f@f@f@f@f@f@f@f@`+ @g@h@i@>@b.{ > n 0 b $ u { ~ ] 7 t t ",
"% + % : _ _ j@b b 0 { ] { ] k@l@m@n@o@p@q@q@q@q@q@q@q@q@q@q@r@s@t@u@v@w@j { { {   _+$ u { ; ; 7 _ | ",
"x@@ x@] [ }   R 0 a v R ] h h ( 6 y@>@>@>@>@>@>@>@>@>@>@>@>@>@>@>@>@>@>@- n ; 4 ! j j j . . ~ * ; - ",
"# # p ] = = 9 . + u _+_+4 t _ z@-.A@B@C@D@D@E@F@>@>@G@H@D@D@I@J@K@L@L@M@= - { ] ] ] < ] + + j ] > { ",
"# # # < = = j % + u b b 4 | _ [ = A@N@O@P@P@Q@R@>@>@S@T@P@P@U@V@W@= = = * = ] 9 < ] ] ] 0 + ! 9 > { ",
"$ e+e+j j j ; ; ; u b o w & X@^ 6 Y@N@Z@`@`@ #R@>@>@.#+#`@`@@#V@##$#%#( ( j R a 0 -.6 6 - = = n - > ",
"^ = = . b.0 < = * + b o a +   4 * &#N@Z@`@`@ #R@>@>@.#+#`@`@@#V@>@>@*#[ 5 + b b + 5 [ [ [ [ , > < < ",
"-.= = . 0 =./ = ^ R b $ a +   { * =#N@Z@`@`@ #R@>@>@.#+#`@`@@#V@>@-#;#( ,   $ $   ' ' ' [ [  .; < ] ",
"x +   + + 0 = ( ' 4 =.=.$ y Q 3 4 +.>#,#+#+#'#)#>@>@!#~#+#+#{#]#>@-#^#[ 5   $ b w     & h _ h . {   ",
"b b A + .   ' i i = < < l p # 1+/#(#_#:#<#<#[#}#>@>@|#1#2#2#3#>@>@4#5#[ ,   $ $ _+3 $ R _ t h % +   ",
"o b b + + + ' t _ m ] / l # # 6#7#8#>@>@>@>@>@>@9#0#a#b#c#d#e#f#g#h#i#, , 4 _+$ b o v w _ 7 [   +   ",
"    % 4 { 4 ' _ _ ^ ~ ~ u y y 3.j#k#>@>@>@>@>@>@l#m#+ n#o#p#q#- r#s#% (+w u b b v =.R   ' h ( + 0   ",
"_ 7 7 m = ^ h t t X@. ~ * ) [ w t#u#>@>@>@>@>@>@v#w#b b 0 b.. - = = y p p z b o a ] ] ; ^ ^ ^ + =.+ ",
"t _ i ^ = ^ [ t _ X@. ~ X@' z@x#t#u#>@>@>@>@>@>@y#z#$ b 0 . . - 6 = y # # A#v b =.] 4 ; = = ; + 0 0 ",
"m ^ m 4 { 4 4 r r { ~ ~ ; ; & e+@ B#C#D#E#F#G#H#I#J#R u 0 . . { ; - A Q Q c v ` + < - ; * * ; ] 4 4 ",
"$ _+_+v b b @ 2 p (+[ [ ! b o a ! ! . . . . + .   ( , , . . . . ! + ] ^ ; ; ~ { { = - * { ~ >+7 _ 7 ",
"_+$ _+b b b K## # j@_@[   v b =.! ~ . . . .   + . [ , [ ! . . . . . ] ^ = ; . b.; = = = ~ ~ ; 7 t 7 ",
"u u $ u $ $ K#@ 2 % -.)   _+_+R { ! { . + . . + . ( [ ) ! . ! % % ! ; * * > 4 { ] = = - { ] ; i | : ",
"= -.=   . x ] < ] ] ] & R $ $ R , , 6   . + . . . { ~ { ! b.! ( ' [ ; ! . ; 6 = - { < < < < ; = ^ ^ ",
"^ ^ =     % 4 < 9 ] ] ] + o _+% ( , 6 . ! + . . . { n > { ! j 6 ' , ; ~ ! ; = * ; ] ] < < < < = = = ",
"= = =   . . { ; - ] ] < =.o b (+[ [ 6 . . + + + . >+; { ! b.! * ( , ; ! b.; - = ; ; 9 ] - ] ] = ^ m "};
