/* XPM */
static char * perso_up2_xpm[] = {
"50 50 400 2",
"  	c #6AB53B",
". 	c #66B83A",
"+ 	c #6AB93A",
"@ 	c #9ADC5C",
"# 	c #A3E25D",
"$ 	c #7BC644",
"% 	c #6BB541",
"& 	c #60A63A",
"* 	c #57A431",
"= 	c #5AA42D",
"- 	c #5DAB2E",
"; 	c #5EAB33",
"> 	c #5FB032",
", 	c #4E9926",
"' 	c #51962C",
") 	c #519A26",
"! 	c #64B53A",
"~ 	c #5FB038",
"{ 	c #63B234",
"] 	c #62AD33",
"^ 	c #5AA432",
"/ 	c #61A334",
"( 	c #529B2B",
"_ 	c #468A2A",
": 	c #4B9325",
"< 	c #61AD2E",
"[ 	c #4E992A",
"} 	c #529632",
"| 	c #498A2A",
"1 	c #9CE161",
"2 	c #9EE15B",
"3 	c #7BC548",
"4 	c #64AD39",
"5 	c #519625",
"6 	c #56A32C",
"7 	c #468B25",
"8 	c #479021",
"9 	c #63B32D",
"0 	c #6CBB36",
"a 	c #74C23D",
"b 	c #7CC943",
"c 	c #85CB4C",
"d 	c #98D954",
"e 	c #81C64D",
"f 	c #69A83E",
"g 	c #92D45B",
"h 	c #4D942B",
"i 	c #498B25",
"j 	c #69B536",
"k 	c #6DBC40",
"l 	c #8ACC4E",
"m 	c #5A9D32",
"n 	c #5FB02F",
"o 	c #7CC93E",
"p 	c #A3E362",
"q 	c #89C754",
"r 	c #6AA742",
"s 	c #98D761",
"t 	c #4B872B",
"u 	c #76C343",
"v 	c #7BC63F",
"w 	c #74BC42",
"x 	c #70B73A",
"y 	c #8BCD51",
"z 	c #8BD24E",
"A 	c #7EC94A",
"B 	c #8DD252",
"C 	c #61904E",
"D 	c #719368",
"E 	c #80A56F",
"F 	c #9DCD7C",
"G 	c #A2CE7A",
"H 	c #9BC67C",
"I 	c #729268",
"J 	c #729367",
"K 	c #729368",
"L 	c #749C69",
"M 	c #7DAC6B",
"N 	c #7EB16C",
"O 	c #7FB06D",
"P 	c #88BA71",
"Q 	c #86C85D",
"R 	c #92D255",
"S 	c #72BC3C",
"T 	c #74AC60",
"U 	c #22351B",
"V 	c #060505",
"W 	c #0C0908",
"X 	c #0D0908",
"Y 	c #070505",
"Z 	c #4B683E",
"` 	c #7AB360",
" .	c #74C83F",
"..	c #559C31",
"+.	c #76B15E",
"@.	c #192417",
"#.	c #2F1F1A",
"$.	c #614339",
"%.	c #5F4137",
"&.	c #31201A",
"*.	c #465E3E",
"=.	c #75AC5F",
"-.	c #70BC37",
";.	c #5A9C2E",
">.	c #78B35B",
",.	c #192217",
"'.	c #3D2922",
").	c #785548",
"!.	c #795548",
"~.	c #755246",
"{.	c #3E2A23",
"].	c #465C3E",
"^.	c #76AC60",
"/.	c #9DCF72",
"(.	c #1B2118",
"_.	c #465B3E",
":.	c #78B260",
"<.	c #478D1F",
"[.	c #85CB51",
"}.	c #ABE175",
"|.	c #1C2318",
"1.	c #465A3E",
"2.	c #79B660",
"3.	c #65B936",
"4.	c #ABE176",
"5.	c #1A1F17",
"6.	c #45583F",
"7.	c #7DB465",
"8.	c #97CE6C",
"9.	c #151616",
"0.	c #43533E",
"a.	c #77A661",
"b.	c #7FBD62",
"c.	c #41513D",
"d.	c #6C985F",
"e.	c #4FA02B",
"f.	c #83C060",
"g.	c #42523D",
"h.	c #6D955E",
"i.	c #7EBD61",
"j.	c #43563D",
"k.	c #6FA05D",
"l.	c #5FAD3C",
"m.	c #141515",
"n.	c #4B362F",
"o.	c #936D60",
"p.	c #936D61",
"q.	c #8F6A5E",
"r.	c #4D3731",
"s.	c #77B260",
"t.	c #75B443",
"u.	c #81C944",
"v.	c #7FBA62",
"w.	c #101313",
"x.	c #7C7058",
"y.	c #EBBFAB",
"z.	c #F2C1B1",
"A.	c #EBBBAC",
"B.	c #81665E",
"C.	c #45593F",
"D.	c #79B262",
"E.	c #92CE59",
"F.	c #689E55",
"G.	c #6DAA54",
"H.	c #81B96D",
"I.	c #111A11",
"J.	c #796057",
"K.	c #E7B9AA",
"L.	c #E2B4A6",
"M.	c #7C625A",
"N.	c #3F5038",
"O.	c #82B66E",
"P.	c #77B35B",
"Q.	c #75B358",
"R.	c #72B252",
"S.	c #7ABC46",
"T.	c #58754B",
"U.	c #546E4B",
"V.	c #495B44",
"W.	c #010202",
"X.	c #281D1B",
"Y.	c #54413B",
"Z.	c #513F39",
"`.	c #291F1B",
" +	c #0E0E0E",
".+	c #4A5D45",
"++	c #556B4D",
"@+	c #566F4D",
"#+	c #749763",
"$+	c #000B1A",
"%+	c #184B68",
"&+	c #11415F",
"*+	c #000103",
"=+	c #002336",
"-+	c #004A6D",
";+	c #004B6E",
">+	c #00486B",
",+	c #002437",
"'+	c #010A17",
")+	c #07385F",
"!+	c #0F4266",
"~+	c #02172C",
"{+	c #617B56",
"]+	c #062B42",
"^+	c #3A97C3",
"/+	c #2180C7",
"(+	c #00040D",
"_+	c #00537A",
":+	c #03A1E8",
"<+	c #03A2E9",
"[+	c #039DE3",
"}+	c #01557D",
"|+	c #03213B",
"1+	c #197CCA",
"2+	c #248AD7",
"3+	c #073C65",
"4+	c #5F7757",
"5+	c #2B4540",
"6+	c #6DA29A",
"7+	c #7691CC",
"8+	c #07070C",
"9+	c #015780",
"0+	c #03A8F3",
"a+	c #03A9F4",
"b+	c #03A4ED",
"c+	c #015983",
"d+	c #1E273A",
"e+	c #7590C9",
"f+	c #789EC5",
"g+	c #394C63",
"h+	c #596955",
"i+	c #494635",
"j+	c #A6B079",
"k+	c #DAB1A8",
"l+	c #160C05",
"m+	c #005680",
"n+	c #40322F",
"o+	c #D8AFA6",
"p+	c #EBBFB5",
"q+	c #6D5752",
"r+	c #5A6756",
"s+	c #4B3E34",
"t+	c #BCB887",
"u+	c #E0B3A5",
"v+	c #170C05",
"w+	c #42332E",
"x+	c #DEB1A4",
"y+	c #F2C1B2",
"z+	c #705851",
"A+	c #596856",
"B+	c #4B4534",
"C+	c #B7B782",
"D+	c #E1B4A5",
"E+	c #170D05",
"F+	c #F0C0B1",
"G+	c #5E7657",
"H+	c #4E9A32",
"I+	c #3C3728",
"J+	c #A2A673",
"K+	c #B69185",
"L+	c #110700",
"M+	c #005780",
"N+	c #E0B9A4",
"O+	c #705A51",
"P+	c #5F7957",
"Q+	c #000000",
"R+	c #CCAB95",
"S+	c #BDAB89",
"T+	c #6F5E50",
"U+	c #5D7956",
"V+	c #2B201D",
"W+	c #8F8A66",
"X+	c #8D7066",
"Y+	c #0A0200",
"Z+	c #2D221F",
"`+	c #998B6F",
" @	c #9E9A71",
".@	c #503E39",
"+@	c #607F55",
"@@	c #4D5233",
"#@	c #A6B174",
"$@	c #B1A980",
"%@	c #03A9F5",
"&@	c #03A5EE",
"*@	c #5F8253",
"=@	c #72BA48",
"-@	c #312C21",
";@	c #8F9464",
">@	c #86865F",
",@	c #0C0602",
"'@	c #003855",
")@	c #0272A5",
"!@	c #0272A6",
"~@	c #016FA2",
"{@	c #003A57",
"]@	c #2F3F2B",
"^@	c #7BAA6B",
"/@	c #80B36E",
"(@	c #80B36F",
"_@	c #80B46C",
":@	c #98D75D",
"<@	c #465D3F",
"[@	c #72AB5B",
"}@	c #6D9862",
"|@	c #70A163",
"1@	c #7AA269",
"2@	c #0F0F0D",
"3@	c #151D4A",
"4@	c #314092",
"5@	c #314093",
"6@	c #212C67",
"7@	c #000002",
"8@	c #253173",
"9@	c #303E8E",
"0@	c #161E4C",
"a@	c #43573D",
"b@	c #75A55F",
"c@	c #6FAA55",
"d@	c #181D13",
"e@	c #1D265E",
"f@	c #3F51B5",
"g@	c #3F51B6",
"h@	c #4052B7",
"i@	c #2C3881",
"j@	c #000102",
"k@	c #303F90",
"l@	c #3D4FB1",
"m@	c #1E2860",
"n@	c #44543E",
"o@	c #5BA539",
"p@	c #6FAA58",
"q@	c #192114",
"r@	c #3F51B4",
"s@	c #4052B6",
"t@	c #2B3881",
"u@	c #303F8F",
"v@	c #3D4FB0",
"w@	c #45583E",
"x@	c #79B35E",
"y@	c #70AB5B",
"z@	c #1A2414",
"A@	c #3E50B3",
"B@	c #3D4EAE",
"C@	c #1D285F",
"D@	c #465D3E",
"E@	c #6FAB59",
"F@	c #1C2916",
"G@	c #0D1331",
"H@	c #131A41",
"I@	c #12193F",
"J@	c #05091E",
"K@	c #47613E",
"L@	c #78B25D",
"M@	c #1E2E16",
"N@	c #1F2D59",
"O@	c #3D4FAE",
"P@	c #3D4EAF",
"Q@	c #29367C",
"R@	c #49653E",
"S@	c #78B35C",
"T@	c #78B95E",
"U@	c #22371A",
"V@	c #040518",
"W@	c #0F1438",
"X@	c #0F1538",
"Y@	c #070C25",
"Z@	c #48663C",
"`@	c #8CD358",
" #	c #233A1A",
".#	c #34492D",
"+#	c #4D6D40",
"@#	c #4E6C41",
"##	c #4E7042",
"$#	c #4E7241",
"%#	c #4D6E40",
"&#	c #5C804F",
"*#	c #76B25A",
"=#	c #8BCB67",
"-#	c #283E1C",
";#	c #020601",
">#	c #89B370",
",#	c #5EAB31",
"'#	c #AAE173",
")#	c #314220",
"!#	c #A7D77B",
"~#	c #4F9733",
"{#	c #76B648",
"]#	c #2D3E1C",
"^#	c #A7D67C",
"/#	c #91D54F",
"(#	c #A1DC6E",
"_#	c #85AB65",
":#	c #79A163",
"<#	c #63825A",
"[#	c #638259",
"}#	c #698A5A",
"|#	c #83A867",
"1#	c #83A665",
"2#	c #9DD07A",
"3#	c #96DA59",
"  . + @ # # $   % & * = = = = - ; > ; , ' ) ! ; ~ = * = + . . { ] ] ^ ^ ^ / ] ] / = = ( _ _ : ! ] { ",
"% . . @ # # $     ] = * = = = < { > ; [ } ( { { ] = = = . . . ] ] ] ^ = = < ] < / = = * _ _ | ] - { ",
"+ % . 1 2 # 3   + ] = = = = = / 4 { ; , 5 ' 4 4 4 6 = =   . . { - < = ^ = < = < - = = ( 7 _ 8 4 9 > ",
". . . + 0 0 a $ b + !   c @ d e 8 _ f @ @ g h i : [ ) , { j . a $ 3 k + j l @ 1 l ] ; ; = m ^ ] { n ",
". % . ~ ~ n a o b + . + l # p q | _ r # # s | i t [ [ , ! ! { u v b w + x y # p z ] ; - = = ; ] < { ",
"%   + 4 ~ > $ b A k . + B # # q C D E F G H I J K L L L M N O P Q b 0 +   y p p R { { / = = ^ ] { ] ",
"$ $ u { ~ { ^ ^ ^ ; ; ^   S S   T U V W W W W W W W W W W X Y Z ` ] ! + S x % x ] ' ' ' h | [ ^ = - ",
" .b b { 9 4 ..( ( ( ^ = / ] ] ] +.@.#.$.$.$.$.$.$.$.$.$.$.%.&.*.=.= j -.-.] = = ' i t i i i | ^ = = ",
"b b b j { ] ;.) , 6 = = - ; ] ] >.,.'.).!.!.!.!.!.!.!.!.!.~.{.].^.= j 0 0 { = * ' _ _ 7 _ _ | m ^ = ",
"^ & & = = = = - = ] { { ! { ! w /.(.'.).!.!.!.!.!.!.!.!.!.~.{._.:.- { . . { - ; ^ ^ ^ ......( ( ( ( ",
"| _ <.;.= = < < ] j   . . . ! [.}.|.'.).!.!.!.!.!.!.!.!.!.~.{.1.2.> . . . { > n ; { { ; = * ^ [ ( ' ",
"_ | 7 = = = - < < ! + . 3.~ . A 4.5.'.).!.!.!.!.!.!.!.!.!.~.{.6.7.4 % . . j > > ; { n n 6 = ^ [ 5 ' ",
"] 4 4 = = ^ { j j { 4 ; { 3.+ u 8.9.'.).!.!.!.!.!.!.!.!.!.~.{.0.a.( ] ; ; ~ ! { ; * 6 6 - - ; = = = ",
"o o b = = = j 0 + ] 6 = { 0 0 0 b.9.'.).!.!.!.!.!.!.!.!.!.~.{.c.d.i ;.6 * ~ ! { ; , , e.] < - > > > ",
"$ o b - ^ ^ j 0 + 4 * 6 { 0 -.0 f.9.'.).!.!.!.!.!.!.!.!.!.~.{.g.h.| ;.= = ; ! ! ; ( ) 6 ] < n n > > ",
"z z B ; ;.6 / ] ] ] j j { & &   i.9.'.).!.!.!.!.!.!.!.!.!.~.{.j.k.( ( = ^ ; ^ l.^ ( 6 6 ; 9 n j { { ",
"# # p / [ ( 8 7 7   o o 4 i | ..i.m.n.o.p.p.p.p.p.p.p.p.p.q.r.].s.] = = * ' _ 7 ' ] < < < 9 { . . . ",
"p # p / [ } _ i t t.o u.f | | ^ v.w.x.y.z.z.z.z.z.z.z.z.z.A.B.C.D.4 - = ^ } t t ' ] < < n < - . . ! ",
"R E.E./ ( } ;.m m % a a ] } F.G.H.I.J.K.K.K.K.K.K.K.K.K.K.L.M.N.O.P.Q.R.& m [ [ ;.] < - { j { 3.j j ",
"5 5 , 6 = = S.v b + ~ ~ ~ ! T.U.V.W.X.Y.Y.Y.Y.Y.Y.Y.Y.Y.Y.Z.`. +.+++@+#+-.+ . ! { = = - . . 3.; > > ",
"( [ [ 6 = = S $ b . l.> ~ 3.$+%+&+*+=+-+;+;+;+;+;+;+;+;+;+>+,+'+)+!+~+{+3.. ! 3.; = = - 3.. ! { > > ",
"( ( [ = = = w 3 $ j > n { j ]+^+/+(+_+:+<+<+<+<+<+<+<+<+<+[+}+|+1+2+3+4++ ! ! ! { - - ; ! ! ! 4 { > ",
"~ > ~ = = ^ = = 6 - n > > n 5+6+7+8+9+0+a+a+a+a+a+a+a+a+a+b+c+d+e+f+g+h+i ( 4 ~ + b b u ) , ( ! ~ % ",
"n n n = * = = = = - n { n n i+j+k+l+m+0+a+a+a+a+a+a+a+a+a+b+c+n+o+p+q+r+| m { > + b $ w 5 [ ( . . . ",
"{ > ; - / = = ^ = ; { - n > s+t+u+v+m+0+a+a+a+a+a+a+a+a+a+b+c+w+x+y+z+A+i ( ~ ~   $ $ w ( ) ( ! 3.~ ",
"- * = @ # 2 + = = S $ b a + B+C+D+E+m+0+a+a+a+a+a+a+a+a+a+b+c+w+x+F+z+G+3.] * * 4 +   { 6 = ( ( ) H+",
"= = = @ # # + = = S b b a + I+J+K+L+M+0+a+a+a+a+a+a+a+a+a+b+c+w+x+N+O+P+. ; * = ]   0 j = = = 5 [ H+",
"= = = @ p p S = = u b b u -.Q+Q+Q+Q+9+0+a+a+a+a+a+a+a+a+a+b+c+w+R+S+T+U+{ ; = = ]   . j = 6 6 , [ ( ",
". .   ( m ;.w w u + { 9 9 { V+W+X+Y+9+0+a+a+a+a+a+a+a+a+a+b+c+Z+`+ @.@+@{ { > > . 3 $ u ] ; ; <.7 | ",
"% % % h t _ w o b + { ; > - @@#@$@E+M+a+%@%@%@%@%@%@%@%@%@&@c+Q+Q+Q+Q+*@3.{ > n 0 b $ u { ~ ] 7 t t ",
"% + % : _ _ =@b b 0 { ] { ] -@;@>@,@'@)@!@!@!@!@!@!@!@!@!@~@{@]@^@/@(@_@j { { {   u.$ u { ; ; 7 _ | ",
":@@ :@] [ }   S 0 a v S ] h Q+Q+Q+Q+Q+Q+Q+Q+Q+Q+Q+Q+Q+Q+Q+Q+Q+<@[@; ; ; - n ; 4 ! j j j . . ~ * ; - ",
"# # p ] = = 9 . + u u.u.4 t }@|@1@2@3@4@4@5@6@7@Q+Q+8@4@4@9@0@a@b@= = = = - { ] ] ] < ] + + j ] > { ",
"# # # < = = j % + u b b 4 | _ [ c@d@e@f@g@h@i@j@Q+Q+k@g@g@l@m@n@=.= = = * = ] 9 < ] ] ] 0 + ! 9 > { ",
"$ S.S.j j j ; ; ; u b o w & o@^ p@q@e@r@f@s@t@j@Q+Q+u@f@f@v@m@w@x@; ^ ( ( j S a 0 ;.6 6 - = = n - > ",
"^ = = . 3.0 < = * + b o a +   4 y@z@e@r@f@s@t@j@Q+Q+9@A@A@B@C@D@` { ..[ 5 + b b + 5 [ [ [ [ , > < < ",
";.= = . 0 -./ = ^ S b $ a +   { E@F@e@r@f@s@t@j@Q+Q+G@H@H@I@J@K@x@{ = ( ,   $ $   ' ' ' [ [ ..; < ] ",
"x +   + + 0 = ( ' 4 -.-.$ y R 3 L@M@N@O@P@v@Q@j@Q+Q+Q+Q+Q+Q+Q+R@S@< ( [ 5   $ b w     & h _ h . {   ",
"b b A + .   ' i i = < < l p # E.T@U@V@W@X@X@Y@Q+Q+Q+Q+Q+Q+Q+Q+Z@P.< 6 [ ,   $ $ u.3 $ S _ t h % +   ",
"o b b + + + ' t _ m ] / l # # `@T@ #Q+Q+Q+Q+Q+Q+.#+#+#@###$#%#&#*#{ 6 , , 4 u.$ b o v w _ 7 [   +   ",
"    % 4 { 4 ' _ _ ^ ~ ~ u y y [.=#-#Q+Q+Q+Q+Q+;#>#x + + . . 3.,#- < % t.w u b b v -.S   ' h ( + 0   ",
"_ 7 7 m = ^ h t t o@. ~ * ) [ w '#)#Q+Q+Q+Q+Q+Q+!#u.b b 0 3.. - = = y p p z b o a ] ] ; ^ ^ ^ + -.+ ",
"t _ i ^ = ^ [ t _ o@. ~ o@' ~#{#'#]#Q+Q+Q+Q+Q+Q+^#u.$ b 0 . . - 6 = y # # /#v b -.] 4 ; = = ; + 0 0 ",
"m ^ m 4 { 4 4 r r { ~ ~ ; ; & S.(#_#:#<#[#}#|#1#2#t.S u 0 . . { ; - A R R c v  .+ < - ; * * ; ] 4 4 ",
"$ u.u.v b b @ 2 p t.[ [ ! b o a ! ! . . . . + .   ( , , . . . . ! + ] ^ ; ; ~ { { = - * { ~ l.7 _ 7 ",
"u.$ u.b b b 3## # =@H+[   v b -.! ~ . . . .   + . [ , [ ! . . . . . ] ^ = ; . 3.; = = = ~ ~ ; 7 t 7 ",
"u u $ u $ $ 3#@ 2 % ;.)   u.u.S { ! { . + . . + . ( [ ) ! . ! % % ! ; * * > 4 { ] = = - { ] ; i | : ",
"= ;.=   . x ] < ] ] ] & S $ $ S , , 6   . + . . . { ~ { ! 3.! ( ' [ ; ! . ; 6 = - { < < < < ; = ^ ^ ",
"^ ^ =     % 4 < 9 ] ] ] + o u.% ( , 6 . ! + . . . { n > { ! j 6 ' , ; ~ ! ; = * ; ] ] < < < < = = = ",
"= = =   . . { ; - ] ] < -.o b t.[ [ 6 . . + + + . l.; { ! 3.! * ( , ; ! 3.; - = ; ; 9 ] - ] ] = ^ m "};
