/* XPM */
static char * perso4_xpm[] = {
"50 50 340 2",
"  	c #6AB53B",
". 	c #66B83A",
"+ 	c #6AB93A",
"@ 	c #9ADC5C",
"# 	c #A3E25D",
"$ 	c #7BC644",
"% 	c #6BB541",
"& 	c #60A63A",
"* 	c #57A431",
"= 	c #5AA42D",
"- 	c #5DAB2E",
"; 	c #5EAB33",
"> 	c #5FB032",
", 	c #4E9926",
"' 	c #51962C",
") 	c #519A26",
"! 	c #64B53A",
"~ 	c #5FB038",
"{ 	c #63B234",
"] 	c #62AD33",
"^ 	c #5AA432",
"/ 	c #61A334",
"( 	c #529B2B",
"_ 	c #468A2A",
": 	c #4B9325",
"< 	c #61AD2E",
"[ 	c #4E992A",
"} 	c #529632",
"| 	c #498A2A",
"1 	c #9CE161",
"2 	c #9EE15B",
"3 	c #7BC548",
"4 	c #64AD39",
"5 	c #519625",
"6 	c #56A32C",
"7 	c #468B25",
"8 	c #479021",
"9 	c #63B32D",
"0 	c #6CBB36",
"a 	c #74C23D",
"b 	c #7CC943",
"c 	c #85CB4C",
"d 	c #98D954",
"e 	c #81C64D",
"f 	c #69A83E",
"g 	c #92D45B",
"h 	c #4D942B",
"i 	c #498B25",
"j 	c #69B536",
"k 	c #6DBC40",
"l 	c #8ACC4E",
"m 	c #5A9D32",
"n 	c #5FB02F",
"o 	c #7CC93E",
"p 	c #A3E362",
"q 	c #89C754",
"r 	c #6AA742",
"s 	c #98D761",
"t 	c #4B872B",
"u 	c #76C343",
"v 	c #7BC63F",
"w 	c #74BC42",
"x 	c #70B73A",
"y 	c #8BCD51",
"z 	c #8BD24E",
"A 	c #7EC94A",
"B 	c #8DD252",
"C 	c #65B936",
"D 	c #92D255",
"E 	c #72BC3C",
"F 	c #5BA539",
"G 	c #74C83F",
"H 	c #559C31",
"I 	c #70BC37",
"J 	c #5A9C2E",
"K 	c #92CE59",
"L 	c #478D1F",
"M 	c #85CB51",
"N 	c #284215",
"O 	c #18250D",
"P 	c #0C0908",
"Q 	c #0D0E08",
"R 	c #080606",
"S 	c #1B2914",
"T 	c #36501B",
"U 	c #5D7933",
"V 	c #606E37",
"W 	c #615F38",
"X 	c #614339",
"Y 	c #402C24",
"Z 	c #0D0E0E",
"` 	c #3A481F",
" .	c #6F7741",
"..	c #7B594A",
"+.	c #815C50",
"@.	c #815D50",
"#.	c #7D594C",
"$.	c #795548",
"%.	c #534330",
"&.	c #0C0E0E",
"*.	c #3D4922",
"=.	c #715D42",
"-.	c #977165",
";.	c #DAAC9D",
">.	c #DFB0A2",
",.	c #DFB0A1",
"'.	c #B78D7F",
").	c #785447",
"!.	c #51392F",
"~.	c #4FA02B",
"{.	c #31201B",
"].	c #735044",
"^.	c #A37C6F",
"/.	c #F8C6B6",
"(.	c #FFCCBC",
"_.	c #CCA091",
":.	c #51382F",
"<.	c #5FAD3C",
"[.	c #382721",
"}.	c #815E52",
"|.	c #A88073",
"1.	c #EEBEAF",
"2.	c #F7C6B6",
"3.	c #FECCBC",
"4.	c #FAC8B9",
"5.	c #F4C3B3",
"6.	c #C89D8F",
"7.	c #876456",
"8.	c #5C4839",
"9.	c #0B0D0E",
"0.	c #75B443",
"a.	c #81C944",
"b.	c #634E47",
"c.	c #DCAFA0",
"d.	c #D1A698",
"e.	c #7F655C",
"f.	c #AB887D",
"g.	c #FAC8B8",
"h.	c #D2A89B",
"i.	c #765D55",
"j.	c #AF8A7F",
"k.	c #D4B09A",
"l.	c #8A8263",
"m.	c #000608",
"n.	c #6E564F",
"o.	c #F2C1B2",
"p.	c #E1B4A6",
"q.	c #67514A",
"r.	c #95766C",
"s.	c #EDBDAE",
"t.	c #F2C2B2",
"u.	c #C19A8E",
"v.	c #503F39",
"w.	c #B48F84",
"x.	c #E2BEA6",
"y.	c #938B69",
"z.	c #000406",
"A.	c #7ABC46",
"B.	c #6E594F",
"C.	c #EABBAD",
"D.	c #CDA497",
"E.	c #6F5850",
"F.	c #A58379",
"G.	c #E7B9AA",
"H.	c #F3C2B3",
"I.	c #E8C2AA",
"J.	c #97916A",
"K.	c #6E5E4E",
"L.	c #DEB2A4",
"M.	c #6D564E",
"N.	c #614C45",
"O.	c #AF8B80",
"P.	c #FDCABA",
"Q.	c #EBC7AC",
"R.	c #9A9C6D",
"S.	c #6E624E",
"T.	c #F0C2B1",
"U.	c #F4C3B4",
"V.	c #E7C6A9",
"W.	c #989F6B",
"X.	c #635B47",
"Y.	c #D9B09F",
"Z.	c #D9B89F",
"`.	c #8F9363",
" +	c #000305",
".+	c #1F1714",
"++	c #4F3E38",
"@+	c #54413B",
"#+	c #372926",
"$+	c #000001",
"%+	c #0D2523",
"&+	c #134564",
"*+	c #083C65",
"=+	c #011123",
"-+	c #001B2B",
";+	c #004668",
">+	c #004B6E",
",+	c #004A6E",
"'+	c #003049",
")+	c #000000",
"!+	c #063357",
"~+	c #09416E",
"{+	c #021A31",
"]+	c #1D241B",
"^+	c #043053",
"/+	c #2086D4",
"(+	c #1B84D7",
"_+	c #053053",
":+	c #004364",
"<+	c #0299DD",
"[+	c #03A2E9",
"}+	c #03A1E9",
"|+	c #026D9F",
"1+	c #1A74B9",
"2+	c #3798CF",
"3+	c #1E556C",
"4+	c #1C2118",
"5+	c #4E9A32",
"6+	c #304551",
"7+	c #749CBB",
"8+	c #7C99D6",
"9+	c #2C3953",
"0+	c #014669",
"a+	c #03A0E8",
"b+	c #03A9F4",
"c+	c #03A9F3",
"d+	c #0172A6",
"e+	c #040000",
"f+	c #6B84BA",
"g+	c #79A5BE",
"h+	c #426364",
"i+	c #1C2418",
"j+	c #594B43",
"k+	c #E1BAAD",
"l+	c #E6BBB1",
"m+	c #594743",
"n+	c #0F0200",
"o+	c #C8A299",
"p+	c #D1BD9E",
"q+	c #706D54",
"r+	c #192119",
"s+	c #5C4842",
"t+	c #100300",
"u+	c #E8C5AB",
"v+	c #756C53",
"w+	c #171B18",
"x+	c #5C4A42",
"y+	c #E8C2AB",
"z+	c #766F54",
"A+	c #72BA48",
"B+	c #5C4C42",
"C+	c #ECBDAD",
"D+	c #EAC3AD",
"E+	c #776E55",
"F+	c #161818",
"G+	c #98D75D",
"H+	c #5D5142",
"I+	c #E2BBA5",
"J+	c #F2C7B3",
"K+	c #786C56",
"L+	c #5D5441",
"M+	c #CFB896",
"N+	c #F4CAB4",
"O+	c #796D56",
"P+	c #5D5940",
"Q+	c #AFAF7B",
"R+	c #B9AD86",
"S+	c #01476A",
"T+	c #03A1E8",
"U+	c #03A9F5",
"V+	c #CAA595",
"W+	c #CBC293",
"X+	c #777654",
"Y+	c #192019",
"Z+	c #3C2F2A",
"`+	c #8E8E64",
" @	c #8D8A64",
".@	c #3C2E2A",
"+@	c #002D45",
"@@	c #016C9D",
"#@	c #0272A6",
"$@	c #014C70",
"%@	c #070100",
"&@	c #84815E",
"*@	c #999C6C",
"=@	c #54553B",
"-@	c #1F2C1B",
";@	c #192813",
">@	c #10163C",
",@	c #2E3C8A",
"'@	c #314092",
")@	c #29357C",
"!@	c #04071B",
"~@	c #1C2559",
"{@	c #313F91",
"]@	c #1F2962",
"^@	c #090904",
"/@	c #161E4D",
"(@	c #3C4DAD",
"_@	c #3F51B6",
":@	c #35449B",
"<@	c #070B25",
"[@	c #253071",
"}@	c #3F51B4",
"|@	c #29357B",
"1@	c #0E0E07",
"2@	c #161E4C",
"3@	c #3B4CAC",
"4@	c #3F51B5",
"5@	c #34449A",
"6@	c #070B24",
"7@	c #243070",
"8@	c #3E50B3",
"9@	c #29357A",
"0@	c #8CD358",
"a@	c #151D49",
"b@	c #394AA4",
"c@	c #3C4EAE",
"d@	c #324195",
"e@	c #060A23",
"f@	c #222E6B",
"g@	c #3C4DAC",
"h@	c #3C4EAD",
"i@	c #263375",
"j@	c #0E0E08",
"k@	c #01020C",
"l@	c #080D28",
"m@	c #090E2B",
"n@	c #000103",
"o@	c #030517",
"p@	c #090E2A",
"q@	c #03061A",
"r@	c #131B10",
"s@	c #11160F",
"t@	c #4F9733",
"u@	c #76B648",
"v@	c #0A0A0A",
"w@	c #91D54F",
"x@	c #98D557",
"y@	c #96DA59",
"  . + @ # # $   % & * = = = = - ; > ; , ' ) ! ; ~ = * = + . . { ] ] ^ ^ ^ / ] ] / = = ( _ _ : ! ] { ",
"% . . @ # # $     ] = * = = = < { > ; [ } ( { { ] = = = . . . ] ] ] ^ = = < ] < / = = * _ _ | ] - { ",
"+ % . 1 2 # 3   + ] = = = = = / 4 { ; , 5 ' 4 4 4 6 = =   . . { - < = ^ = < = < - = = ( 7 _ 8 4 9 > ",
". . . + 0 0 a $ b + !   c @ d e 8 _ f @ @ g h i : [ ) , { j . a $ 3 k + j l @ 1 l ] ; ; = m ^ ] { n ",
". % . ~ ~ n a o b + . + l # p q | _ r # # s | i t [ [ , ! ! { u v b w + x y # p z ] ; - = = ; ] < { ",
"%   + 4 ~ > $ b A k . + B # # q t _ r 1 # s | i i [ [ [ { C . u $ b 0 +   y p p D { { / = = ^ ] { ] ",
"$ $ u { ~ { ^ ^ ^ ; ; ^   E E   F * ~ w w E F - ^ ! ! ] G u u j ] ] ! + E x % x ] ' ' ' h | [ ^ = - ",
"G b b { 9 4 H ( ( ( ^ = / ] ] ] ; ; { n > > > > ]   + . b b 3 ; = = j I I ] = = ' i t i i i | ^ = = ",
"b b b j { ] J ) , 6 = = - ; ] ] < < ] 4 ~ n n > 9   0 j $ b b ] = = j 0 0 { = * ' _ _ 7 _ _ | m ^ = ",
"^ & & = = = = - = ] { { ! { ! w K D A ^ 6 6 { { { = = = { 4 4 ] - - { . . { - ; ^ ^ ^ H H H ( ( ( ( ",
"| _ L J = = < < ] j   . . . ! M # # B ( N O P P P P P P Q P P R S > . . . { > n ; { { ; = * ^ [ ( ' ",
"_ | 7 = = = - < < ! + . C ~ . A # # D T U V W X X X X X X X X Y Z 4 % . . j > > ; { n n 6 = ^ [ 5 ' ",
"] 4 4 = = ^ { j j { 4 ; { C + u l l b `  ...+.@.@.@.@.@.@.#.$.%.&.( ] ; ; ~ ! { ; * 6 6 - - ; = = = ",
"o o b = = = j 0 + ] 6 = { 0 0 0 + 0 j *.=.-.;.>.>.>.>.>.,.'.).!.&.i J 6 * ~ ! { ; , , ~.] < - > > > ",
"$ o b - ^ ^ j 0 + 4 * 6 { 0 I 0 I I 0 {.].^./.(.(.(.(.(.(._.).:.&.| J = = ; ! ! ; ( ) 6 ] < n n > > ",
"z z B ; J 6 / ] ] ] j j { & &   + x + {.].^./.(.(.(.(.(.(._.).:.&.( ( = ^ ; ^ <.^ ( 6 6 ; 9 n j { { ",
"# # p / [ ( 8 7 7   o o 4 i | H +   . [.}.|.1.2.3.(.(.4.5.6.7.8.9.] = = * ' _ 7 ' ] < < < 9 { . . . ",
"p # p / [ } _ i t 0.o a.f | | ^   C + b.c.d.e.f.g.(.(.h.i.j.k.l.m.4 - = ^ } t t ' ] < < n < - . . ! ",
"D K K / ( } J m m % a a ] } } ^ ! j j n.o.p.q.r.s.t.t.u.v.w.x.y.z.4 ] ] & m [ [ J ] < - { j { C j j ",
"5 5 , 6 = = A.v b + ~ ~ ~ ! j ; * = = B.t.g.C.D.i.E.E.F.G.H.I.J.z.{ + I I + . ! { = = - . . C ; > > ",
"( [ [ 6 = = E $ b . <.> ~ C C > = = < K.t.(.(.L.M.N.N.O.P.(.Q.R.z.C C 0 C . ! C ; = = - C . ! { > > ",
"( ( [ = = = w 3 $ j > n { j ~ > 6 ^ = S.T.(.(.g.1.s.s.U.(.(.V.W.z.> C . + ! ! ! { - - ; ! ! ! 4 { > ",
"~ > ~ = = ^ = = 6 - n > > n > = [ ' ^ X.Y.G.G.G.G.G.G.G.G.G.Z.`. += , 7 i ( 4 ~ + b b u ) , ( ! ~ % ",
"n n n = * = = = = - n { n n ~ = ' ' ^ .+++@+@+@+@+@+@+@+@+@+@+#+$+= h t | m { > + b $ w 5 [ ( . . . ",
"{ > ; - / = = ^ = ; { - n > { %+&+*+=+-+;+>+>+>+>+>+>+>+>+>+,+'+)+!+~+{+]+( ~ ~   $ $ w ( ) ( ! C ~ ",
"- * = @ # 2 + = = E $ b a + . ^+/+(+_+:+<+[+[+[+[+[+[+[+[+[+}+|+)+1+2+3+4+] * * 4 +   { 6 = ( ( ) 5+",
"= = = @ # # + = = E b b a + I 6+7+8+9+0+a+b+b+b+b+b+b+b+b+b+c+d+e+f+g+h+i+; * = ]   0 j = = = 5 [ 5+",
"= = = @ p p E = = u b b u I + j+k+l+m+0+a+b+b+b+b+b+b+b+b+b+c+d+n+o+p+q+r+; = = ]   . j = 6 6 , [ ( ",
". .   ( m J w w u + { 9 9 { 4 s+s.s.s+0+a+b+b+b+b+b+b+b+b+b+c+d+t+D.u+v+w+{ > > . 3 $ u ] ; ; L 7 | ",
"% % % h t _ w o b + { ; > - 9 x+s.s.s+0+a+b+b+b+b+b+b+b+b+b+c+d+t+D.y+z+w+{ > n 0 b $ u { ~ ] 7 t t ",
"% + % : _ _ A+b b 0 { ] { ] 4 B+C+s.s+0+a+b+b+b+b+b+b+b+b+b+c+d+t+D.D+E+F+{ { {   a.$ u { ; ; 7 _ | ",
"G+@ G+] [ }   E 0 a v E ] h h H+I+s.s+0+a+b+b+b+b+b+b+b+b+b+c+d+t+D.J+K+F+n ; 4 ! j j j . . ~ * ; - ",
"# # p ] = = 9 . + u a.a.4 t _ L+M+s.s+0+a+b+b+b+b+b+b+b+b+b+c+d+t+D.N+O+F+- { ] ] ] < ] + + j ] > { ",
"# # # < = = j % + u b b 4 | _ P+Q+R+s+S+T+U+U+U+U+U+U+U+U+U+b+d+t+V+W+X+Y+= ] 9 < ] ] ] 0 + ! 9 > { ",
"$ A.A.j j j ; ; ; u b o w & F Z+`+ @.@+@@@#@#@#@#@#@#@#@#@#@#@$@%@&@*@=@-@j E a 0 J 6 6 - = = n - > ",
"^ = = . C 0 < = * + b o a +   )+)+)+)+)+)+)+)+)+)+)+)+)+)+)+)+)+)+)+)+)+;@+ b b + 5 [ [ [ [ , > < < ",
"J = = . 0 I / = ^ E b $ a +   { * F ; >@,@'@'@)@!@)+)+~@{@'@'@]@^@{ = ( ,   $ $   ' ' ' [ [ H ; < ] ",
"x +   + + 0 = ( ' 4 I I $ y D 3 4 ; ; /@(@_@_@:@<@)+$+[@}@_@_@|@1@< ( [ 5   $ b w     & h _ h . {   ",
"b b A + .   ' i i = < < l p # K ! ! 9 2@3@4@4@5@6@)+$+7@8@4@4@9@1@< 6 [ ,   $ $ a.3 $ E _ t h % +   ",
"o b b + + + ' t _ m ] / l # # 0@! C > a@b@c@c@d@e@)+$+f@g@c@h@i@j@{ 6 , , 4 a.$ b o v w _ 7 [   +   ",
"    % 4 { 4 ' _ _ ^ ~ ~ u y y M A b w k@l@m@m@e@n@)+)+o@p@m@m@q@r@< % 0.w u b b v I E   ' h ( + 0   ",
"_ 7 7 m = ^ h t t F . ~ * ) [ w # # K )+)+)+)+)+)+)+)+)+)+)+)+)+s@= y p p z b o a ] ] ; ^ ^ ^ + I + ",
"t _ i ^ = ^ [ t _ F . ~ F ' t@u@# # K )+)+)+)+)+)+)+)+)+)+)+)+)+v@= y # # w@v b I ] 4 ; = = ; + 0 0 ",
"m ^ m 4 { 4 4 r r { ~ ~ ; ; & A.@ d M } ' / G+x@g 0.E u 0 . . { ; - A D D c v G + < - ; * * ; ] 4 4 ",
"$ a.a.v b b @ 2 p 0.[ [ ! b o a ! ! . . . . + .   ( , , . . . . ! + ] ^ ; ; ~ { { = - * { ~ <.7 _ 7 ",
"a.$ a.b b b y@# # A+5+[   v b I ! ~ . . . .   + . [ , [ ! . . . . . ] ^ = ; . C ; = = = ~ ~ ; 7 t 7 ",
"u u $ u $ $ y@@ 2 % J )   a.a.E { ! { . + . . + . ( [ ) ! . ! % % ! ; * * > 4 { ] = = - { ] ; i | : ",
"= J =   . x ] < ] ] ] & E $ $ E , , 6   . + . . . { ~ { ! C ! ( ' [ ; ! . ; 6 = - { < < < < ; = ^ ^ ",
"^ ^ =     % 4 < 9 ] ] ] + o a.% ( , 6 . ! + . . . { n > { ! j 6 ' , ; ~ ! ; = * ; ] ] < < < < = = = ",
"= = =   . . { ; - ] ] < I o b 0.[ [ 6 . . + + + . <.; { ! C ! * ( , ; ! C ; - = ; ; 9 ] - ] ] = ^ m "};
