/* XPM */
static char * terre_xpm[] = {
"50 50 233 2",
"  	c None",
". 	c #050505",
"+ 	c #0B0807",
"@ 	c #0C0908",
"# 	c #0A0707",
"$ 	c #050404",
"% 	c #190F0B",
"& 	c #573C32",
"* 	c #614339",
"= 	c #4D352D",
"- 	c #040202",
"; 	c #211410",
"> 	c #6C4C40",
", 	c #7A5649",
"' 	c #805C4F",
") 	c #815D50",
"! 	c #7F5A4E",
"~ 	c #795548",
"{ 	c #060402",
"] 	c #896558",
"^ 	c #D2A697",
"/ 	c #DFB0A2",
"( 	c #C79C8E",
"_ 	c #7E5A4D",
": 	c #906B5E",
"< 	c #EFBFAF",
"[ 	c #FFCCBC",
"} 	c #E1B3A3",
"| 	c #815C50",
"1 	c #916B5E",
"2 	c #261A15",
"3 	c #7B594D",
"4 	c #997366",
"5 	c #E6B7A8",
"6 	c #F5C4B5",
"7 	c #FECBBB",
"8 	c #FCCABA",
"9 	c #F4C3B5",
"0 	c #DAAD9F",
"a 	c #8E695C",
"b 	c #6D4F45",
"c 	c #080503",
"d 	c #494131",
"e 	c #BDA787",
"f 	c #DCAFA0",
"g 	c #8A6D64",
"h 	c #92746B",
"i 	c #F3C3B2",
"j 	c #E6B8A9",
"k 	c #84685F",
"l 	c #9D7C72",
"m 	c #E3B5A6",
"n 	c #BB9487",
"o 	c #150F0C",
"p 	c #504238",
"q 	c #CEB595",
"r 	c #F0C0B1",
"s 	c #7B6159",
"t 	c #775D56",
"u 	c #E5B7A8",
"v 	c #F2C2B2",
"w 	c #D6AB9D",
"x 	c #655048",
"y 	c #99796F",
"z 	c #F9C7B7",
"A 	c #CEA496",
"B 	c #18110F",
"C 	c #4F3E38",
"D 	c #D2B599",
"E 	c #FCC9BA",
"F 	c #ECBDAE",
"G 	c #D7AC9F",
"H 	c #80665D",
"I 	c #6F5850",
"J 	c #94766C",
"K 	c #E2B5A7",
"L 	c #EFBFB0",
"M 	c #D2B799",
"N 	c #ECBCAE",
"O 	c #7D625B",
"P 	c #614C45",
"Q 	c #98786F",
"R 	c #F7C6B6",
"S 	c #514A38",
"T 	c #CAB793",
"U 	c #EDBDAE",
"V 	c #F1C1B2",
"W 	c #4A4A32",
"X 	c #C1A98B",
"Y 	c #E7B9AA",
"Z 	c #BA9588",
"` 	c #140E0C",
" .	c #2C3A27",
"..	c #140D0B",
"+.	c #4A3A34",
"@.	c #54413B",
"#.	c #42332E",
"$.	c #030201",
"%.	c #00050F",
"&.	c #113F5B",
"*.	c #154868",
"=.	c #021D36",
"-.	c #00111D",
";.	c #004262",
">.	c #004B6E",
",.	c #004A6E",
"'.	c #003A57",
").	c #000205",
"!.	c #042744",
"~.	c #09416E",
"{.	c #052E4F",
"].	c #070604",
"^.	c #031A2C",
"/.	c #3086B4",
"(.	c #248DDA",
"_.	c #0A4879",
":.	c #002F47",
"<.	c #0291D1",
"[.	c #03A2E9",
"}.	c #0281BB",
"|.	c #000B15",
"1.	c #0F5B96",
"2.	c #1E8FE8",
"3.	c #1469AC",
"4.	c #070100",
"5.	c #19282B",
"6.	c #679895",
"7.	c #81A0DE",
"8.	c #445478",
"9.	c #00314C",
"0.	c #0297DB",
"a.	c #03A9F4",
"b.	c #0288C5",
"c.	c #000C16",
"d.	c #556995",
"e.	c #83A5E0",
"f.	c #5F809C",
"g.	c #020000",
"h.	c #323223",
"i.	c #99A76F",
"j.	c #EFC2B7",
"k.	c #826863",
"l.	c #A1827A",
"m.	c #F7CABE",
"n.	c #AB9582",
"o.	c #000000",
"p.	c #332E21",
"q.	c #9FAC70",
"r.	c #F5C5B4",
"s.	c #866961",
"t.	c #A58378",
"u.	c #B39783",
"v.	c #343322",
"w.	c #9EAC6F",
"x.	c #FDCBBA",
"y.	c #AE9A7E",
"z.	c #363B22",
"A.	c #9FAD70",
"B.	c #F3C4B3",
"C.	c #856960",
"D.	c #C7A393",
"E.	c #8D8466",
"F.	c #374023",
"G.	c #9DAD6E",
"H.	c #B9AB86",
"I.	c #866A61",
"J.	c #080808",
"K.	c #242317",
"L.	c #88935F",
"M.	c #919367",
"N.	c #604B45",
"O.	c #66504A",
"P.	c #9C8571",
"Q.	c #72754F",
"R.	c #000203",
"S.	c #00324C",
"T.	c #03A9F5",
"U.	c #9D8F71",
"V.	c #AEBE7C",
"W.	c #9BA76D",
"X.	c #001F30",
"Y.	c #016694",
"Z.	c #0272A6",
"`.	c #015A84",
" +	c #00060B",
".+	c #6E6B4D",
"++	c #959E69",
"@+	c #798354",
"#+	c #000102",
"$+	c #080D29",
"%+	c #2B3882",
"&+	c #314092",
"*+	c #2C3A86",
"=+	c #0A102F",
"-+	c #141C47",
";+	c #2F3E8D",
">+	c #263275",
",+	c #010209",
"'+	c #0D1336",
")+	c #3848A3",
"!+	c #3F51B6",
"~+	c #394AA6",
"{+	c #10163C",
"]+	c #1C255A",
"^+	c #3D4FB0",
"/+	c #324092",
"(+	c #02040E",
"_+	c #3848A2",
":+	c #3F51B5",
"<+	c #394AA5",
"[+	c #1B255A",
"}+	c #3D4EAF",
"|+	c #314091",
"1+	c #040404",
"2+	c #0C1234",
"3+	c #384B9B",
"4+	c #3747A0",
"5+	c #0F153A",
"6+	c #1A2357",
"7+	c #3B4BA9",
"8+	c #303E8C",
"9+	c #02030D",
"0+	c #01020A",
"a+	c #0C1231",
"b+	c #0F1538",
"c+	c #0C1232",
"d+	c #02020D",
"e+	c #020417",
"f+	c #0D1335",
"g+	c #0E1437",
"h+	c #080E2A",
"i+	c #020202",
"j+	c #202F1B",
"                                                                                                    ",
"                                                                                                    ",
"                                                                                                    ",
"                                                                                                    ",
"                                                                                                    ",
"                                                                                                    ",
"                                    . + @ @ @ @ @ @ @ @ @ @ # $                                     ",
"                                    % & * * * * * * * * * * = -                                     ",
"                                    ; > , ' ) ) ) ) ) ) ! ~ * {                                     ",
"                                    ; > ] ^ / / / / / / ( _ * {                                     ",
"                                    ; > : < [ [ [ [ [ [ } | * {                                     ",
"                                    ; > 1 < [ [ [ [ [ [ } | * {                                     ",
"                                    2 3 4 5 6 7 [ [ 8 9 0 a b c                                     ",
"                                    d e f g h i [ [ j k l m n o                                     ",
"                                    p q r s t u v v w x y z A B                                     ",
"                                    C D E F G H I I J K L 7 A B                                     ",
"                                    C M [ [ N O P P Q R [ [ A B                                     ",
"                                    S T [ [ 8 L U U V 7 [ [ A B                                     ",
"                                    W X Y Y Y Y Y Y Y Y Y Y Z `                                     ",
"                                   ...+.@.@.@.@.@.@.@.@.@.@.#.$.                                    ",
"                            %.&.*.=.-.;.>.>.>.>.>.>.>.>.>.,.'.).!.~.{.].                            ",
"                            ^./.(._.:.<.[.[.[.[.[.[.[.[.[.[.}.|.1.2.3.4.                            ",
"                            5.6.7.8.9.0.a.a.a.a.a.a.a.a.a.a.b.c.d.e.f.g.                            ",
"                            h.i.j.k.9.0.a.a.a.a.a.a.a.a.a.a.b.c.l.m.n.o.                            ",
"                            p.q.r.s.9.0.a.a.a.a.a.a.a.a.a.a.b.c.t.[ u.o.                            ",
"                            v.w.r.s.9.0.a.a.a.a.a.a.a.a.a.a.b.c.t.x.y.o.                            ",
"                            z.A.B.s.9.0.a.a.a.a.a.a.a.a.a.a.b.c.C.D.E.o.                            ",
"                            F.G.H.I.9.0.a.a.a.a.a.a.a.a.a.a.b.c.o.o.o.J.                            ",
"                            K.L.M.N.9.0.a.a.a.a.a.a.a.a.a.a.b.c.O.P.Q.R.                            ",
"                            o.o.o.o.S.0.T.T.T.T.T.T.T.T.T.T.b.c.U.V.W.o.                            ",
"                                    X.Y.Z.Z.Z.Z.Z.Z.Z.Z.Z.Z.`. +.+++@+#+                            ",
"                                    o.o.o.o.o.o.o.o.o.o.o.o.o.o.o.o.o.o.                            ",
"                                    $+%+&+&+*+=+o.o.-+;+&+&+>+,+                                    ",
"                                    '+)+!+!+~+{+o.o.]+^+!+!+/+(+                                    ",
"                                    '+_+:+:+<+{+o.o.[+}+:+:+|+(+                                    ",
"                                    '+_+:+:+<+{+o.o.[+}+:+:+|+(+o.o.                                ",
"                                    '+_+:+:+<+{+o.o.[+}+:+:+|+(+o.1+                                ",
"                                    2+3+}+}+4+5+o.o.6+7+}+}+8+9+o.1+                                ",
"                                    0+a+b+b+c+d+o.o.e+f+g+g+h+o.o.i+                                ",
"                                    o.o.o.o.o.o.j+                                                  ",
"                                    o.o.o.o.o.o.                                                    ",
"                                    o.o.o.o.o.o.                                                    ",
"                                    o.o.o.o.o.o.                                                    ",
"                                                                                                    ",
"                                                                                                    ",
"                                                                                                    ",
"                                                                                                    ",
"                                                                                                    ",
"                                                                                                    ",
"                                                                                                    "};
