/* XPM */
static char * bedrock_xpm[] = {
"50 50 37 1",
" 	c #333333",
".	c #575757",
"+	c #979797",
"@	c #585858",
"#	c #070707",
"$	c #565656",
"%	c #323232",
"&	c #989898",
"*	c #969696",
"=	c #343434",
"-	c #000000",
";	c #2A2A2A",
">	c #2F2F2F",
",	c #9C9C9C",
"'	c #9E9E9E",
")	c #525252",
"!	c #4B4B4B",
"~	c #5D5D5D",
"{	c #3E3E3E",
"]	c #686868",
"^	c #636363",
"/	c #A3A3A3",
"(	c #727272",
"_	c #484848",
":	c #252525",
"<	c #797979",
"[	c #838383",
"}	c #2B2B2B",
"|	c #424242",
"1	c #8B8B8B",
"2	c #4E4E4E",
"3	c #393939",
"4	c #1D1D1D",
"5	c #171717",
"6	c #7E7E7E",
"7	c #0F0F0F",
"8	c #AAAAAA",
")$${%%%%%%%%%%%{$$^*****1;##[**]$$|%%%%%%%%%%%3$$$",
"$..{           {..]+++++*;##1++(..|           3...",
"$..{   %%%%%%%%{$$]+++++*;##1++($$|%%         3...",
"$..)))<[[[[[[[[1111+++++*3}}1++1111[[^553)))))2{{{",
"$.....[+++++++++++++++++*{  1++++++++(##3.....)   ",
"$.....[+++++++++++++++++*{ %1++++++++(##3.....)   ",
"$..{= .^^^^^~~~~^^^^^^^^^6[[]^^](((((~__][[6..$222",
"$..>##;     :##4        =*++$  2........<++1......",
"$..>##;     :##4        =*++$  2........<++1......",
"$..]((@_____|{{3::}__!(((666$___________~((]___...",
"$.$1++(........!##:@.~+++~.....{              3...",
"$.$1++(........!##:@.~+++~.....{              3...",
"$.$1++[<<^____!|::}!_2<<<2____!^]]]]]]]]]]]]]]]|||",
"$.$1+++++(                    %[++++++++++++++1-##",
"$.$1+++++(                     [++++++++++++++1-##",
"!2!(66[[[]|||||{         |||>;;([[[[[[666666<<(===",
"%     2$$......2        =$.$;##!.$$$._     }##:...",
"%     2........)        =$..;##!....._     }##:...",
"2)))))$..@@@@..)  3))))))...=::2.....$)))))2___)22",
"*&&&&&(..~^^~..)  )&&&&&+~..@@@......6&&&&&&&&1-##",
"*+++++(..~^^~..)  )&+++++~...........<++++++++1-##",
"1*****(..~~~@)$2  2111111@$$))))$$$$$(111111**[444",
"$.$$$$..._  %%%    %%%%%%%% 5##}%%%% %%%%%%{.$.@@@",
"$........_                  5##}           {......",
"$..@@...@_  ====   =        455>==========={@.....",
"$.$1*****]77^**6  3$$$$$$$$$1*********************",
"$.$1+++++]##]++[  {@........1+++++++++++++++++++++",
"$.$1&&&&&]##]&&[  {@.....@@@1&&&&&&&&&&&&&&&+++&&&",
"$.._|||||3>>3||{  =333..$:44$~~~~~2||||||||~++1~~~",
"$..{                 =$.$5##2.....|        @&+1$..",
"$..{                 =..$5##2.....|        @&+1$..",
"$..)22<[[^     )[[[[[[{{{7##3{{<11[[[[[[(22.((]...",
"$.....[++(     ~+++++*   7##> %[++++++++[.........",
"$.....[++(     ~&++++*  %7##>  [++++++++[.$$$$$...",
"===)..]((^22|  !((((((!22<<<666<((((((((<[[[[[<===",
"###!........!  {........@*+++++(........<+++++1-##",
"###2........!  {........@*+++++(........<+++++1-##",
"{{{_________{  3________!*+++++]________~(((((({{{",
"$..{                    =*+++++~              3...",
"$..{                    =*+++++~              3...",
"$..]]]!  $]]$::%|____|  =<<<<<<_::>  {_____2]]]<<<",
"$.$1++^  (++<##>.....$         4##;  _.....]++++++",
"$.$1++^  (++<##>.....$         4##;  _.....]&+++++",
"$.$[11~{{]11]55>)))))2   {{{{{{!)2$@@@..$))^111111",
"$........_              =$.....1+++++6..!     3...",
"$........_              =$.....1+++++6..!     3...",
")))))))))|  %>>3222222333$.....[11111())_  =33{...",
"%           :##$&&&&&*..........$$|%%%     {......",
"%           :##)+++++*@...........|        {......",
">%%%%%%%%%%%:##21****1$$$$$$$$$$$$|%%%%%%%%{$$$$$$"};
