/* XPM */
static char * gap_xpm[] = {
"50 50 414 2",
"  	c #6AB53B",
". 	c #66B83A",
"+ 	c #6AB93A",
"@ 	c #9ADC5C",
"# 	c #A3E25D",
"$ 	c #7BC644",
"% 	c #6BB541",
"& 	c #60A63A",
"* 	c #57A431",
"= 	c #5AA42D",
"- 	c #5DAB2E",
"; 	c #5EAB33",
"> 	c #5FB032",
", 	c #4E9926",
"' 	c #51962C",
") 	c #519A26",
"! 	c #64B53A",
"~ 	c #5FB038",
"{ 	c #63B234",
"] 	c #62AD33",
"^ 	c #5AA432",
"/ 	c #61A334",
"( 	c #529B2B",
"_ 	c #468A2A",
": 	c #4B9325",
"< 	c #61AD2E",
"[ 	c #4E992A",
"} 	c #529632",
"| 	c #498A2A",
"1 	c #9CE161",
"2 	c #9EE15B",
"3 	c #7BC548",
"4 	c #64AD39",
"5 	c #519625",
"6 	c #56A32C",
"7 	c #468B25",
"8 	c #479021",
"9 	c #63B32D",
"0 	c #6CBB36",
"a 	c #74C23D",
"b 	c #7CC943",
"c 	c #85CB4C",
"d 	c #98D954",
"e 	c #81C64D",
"f 	c #69A83E",
"g 	c #92D45B",
"h 	c #4D942B",
"i 	c #498B25",
"j 	c #716016",
"k 	c #744D10",
"l 	c #734E11",
"m 	c #74AF36",
"n 	c #6DBC40",
"o 	c #69B536",
"p 	c #8ACC4E",
"q 	c #5A9D32",
"r 	c #5FB02F",
"s 	c #7CC93E",
"t 	c #A3E362",
"u 	c #89C754",
"v 	c #6AA742",
"w 	c #98D761",
"x 	c #4B872B",
"y 	c #734C11",
"z 	c #752802",
"A 	c #76AD3A",
"B 	c #7BC63F",
"C 	c #74BC42",
"D 	c #70B73A",
"E 	c #8BCD51",
"F 	c #8BD24E",
"G 	c #7EC94A",
"H 	c #8DD252",
"I 	c #734B0E",
"J 	c #92D255",
"K 	c #76C343",
"L 	c #72BC3C",
"M 	c #5BA539",
"N 	c #5CA332",
"O 	c #A18122",
"P 	c #A37F21",
"Q 	c #A37C1D",
"R 	c #693C0D",
"S 	c #5E2507",
"T 	c #66A12F",
"U 	c #74C83F",
"V 	c #559C31",
"W 	c #65AC32",
"X 	c #B16713",
"Y 	c #B26411",
"Z 	c #65310A",
"` 	c #542409",
" .	c #5C982D",
"..	c #70BC37",
"+.	c #5A9C2E",
"@.	c #66B22D",
"#.	c #5F992C",
"$.	c #92CE59",
"%.	c #64B033",
"&.	c #8F4A0A",
"*.	c #904608",
"=.	c #658C27",
"-.	c #5E8E2D",
";.	c #61A631",
">.	c #478D1F",
",.	c #85CB51",
"'.	c #63B033",
").	c #742F04",
"!.	c #5E9B2F",
"~.	c #65B936",
"{.	c #4FA02B",
"].	c #5E9B2A",
"^.	c #83B73D",
"/.	c #9FA439",
"(.	c #9FA339",
"_.	c #9AA131",
":.	c #8E8925",
"<.	c #8C8C26",
"[.	c #6C8728",
"}.	c #6E8928",
"|.	c #6F8928",
"1.	c #662B07",
"2.	c #662605",
"3.	c #662606",
"4.	c #656E18",
"5.	c #64731C",
"6.	c #65711E",
"7.	c #657122",
"8.	c #69751F",
"9.	c #65741D",
"0.	c #669F2E",
"a.	c #8BA22C",
"b.	c #AC5F10",
"c.	c #742702",
"d.	c #742802",
"e.	c #552409",
"f.	c #722803",
"g.	c #658024",
"h.	c #7AA02E",
"i.	c #8A9D2C",
"j.	c #93A42B",
"k.	c #9DA52F",
"l.	c #9DA530",
"m.	c #A7A94B",
"n.	c #D1B292",
"o.	c #D3B495",
"p.	c #CFA983",
"q.	c #C38011",
"r.	c #C38012",
"s.	c #BB7911",
"t.	c #692505",
"u.	c #6A2705",
"v.	c #6B2805",
"w.	c #81440C",
"x.	c #82450C",
"y.	c #AA8027",
"z.	c #AE8629",
"A.	c #AE862A",
"B.	c #A77315",
"C.	c #A56C09",
"D.	c #80791B",
"E.	c #658723",
"F.	c #658727",
"G.	c #678C28",
"H.	c #688E2F",
"I.	c #61932B",
"J.	c #9C8A27",
"K.	c #C88812",
"L.	c #DBA213",
"M.	c #E8CB94",
"N.	c #FEFFE6",
"O.	c #F6ECCB",
"P.	c #DBA210",
"Q.	c #D19912",
"R.	c #522109",
"S.	c #582709",
"T.	c #B16311",
"U.	c #B26310",
"V.	c #E6C241",
"W.	c #ECCB45",
"X.	c #DFAD26",
"Y.	c #696419",
"Z.	c #9F892B",
"`.	c #E9CB95",
" +	c #71942A",
".+	c #78922C",
"++	c #77922C",
"@+	c #A98C26",
"#+	c #BD7712",
"$+	c #CF9D23",
"%+	c #DFB92F",
"&+	c #EAD68D",
"*+	c #FCFDD5",
"=+	c #F6F0C4",
"-+	c #E4BF7C",
";+	c #DDBA7C",
">+	c #978B7B",
",+	c #988C7B",
"'+	c #998C7B",
")+	c #C89E7C",
"!+	c #C99F7C",
"~+	c #EAD264",
"{+	c #EFD760",
"]+	c #E3C13F",
"^+	c #B6881D",
"/+	c #975B07",
"(+	c #874704",
"_+	c #6E5D16",
":+	c #679A2C",
"<+	c #669A28",
"[+	c #629D29",
"}+	c #A68226",
"|+	c #CD8F12",
"1+	c #E3CD40",
"2+	c #EAEE57",
"3+	c #EFF272",
"4+	c #F6F892",
"5+	c #F8FAAC",
"6+	c #FEFFE7",
"7+	c #F7F99F",
"8+	c #EDF16A",
"9+	c #E1C338",
"0+	c #B2790C",
"a+	c #706015",
"b+	c #A58222",
"c+	c #A58224",
"d+	c #EEF16F",
"e+	c #F5F78D",
"f+	c #F6F8A5",
"g+	c #FCFDDB",
"h+	c #F5F899",
"i+	c #EDED66",
"j+	c #EAEA55",
"k+	c #E2C73C",
"l+	c #DDAD23",
"m+	c #B88718",
"n+	c #874604",
"o+	c #803D03",
"p+	c #706017",
"q+	c #A1791B",
"r+	c #EAEE56",
"s+	c #EAEE55",
"t+	c #EBD44A",
"u+	c #EBE251",
"v+	c #BE850E",
"w+	c #756E20",
"x+	c #ECD44A",
"y+	c #BD850E",
"z+	c #756A20",
"A+	c #E3CC40",
"B+	c #EAED57",
"C+	c #DBA315",
"D+	c #BD8610",
"E+	c #746A20",
"F+	c #A48020",
"G+	c #E4B833",
"H+	c #ECCC45",
"I+	c #EBD94D",
"J+	c #EAE653",
"K+	c #ECD048",
"L+	c #ECCD46",
"M+	c #EBDD4E",
"N+	c #ECCA44",
"O+	c #C5A436",
"P+	c #551309",
"Q+	c #59611B",
"R+	c #4E9A32",
"S+	c #A38121",
"T+	c #EBD94C",
"U+	c #ECD047",
"V+	c #EBDD4F",
"W+	c #C5A537",
"X+	c #541209",
"Y+	c #5A621C",
"Z+	c #EAEF57",
"`+	c #ECCC46",
" @	c #7C6D20",
".@	c #7E3404",
"+@	c #BF860E",
"@@	c #DCA519",
"#@	c #DDA81E",
"$@	c #E3B832",
"%@	c #ECCE47",
"&@	c #EAC842",
"*@	c #DDA71D",
"=@	c #EAC742",
"-@	c #E1B12B",
";@	c #E5D748",
">@	c #5E6A22",
",@	c #E2B32D",
"'@	c #EAC741",
")@	c #DBA212",
"!@	c #E5D646",
"~@	c #746923",
"{@	c #98D75D",
"]@	c #72661C",
"^@	c #DDA61C",
"/@	c #DFAC25",
"(@	c #E8C13C",
"_@	c #E8C23D",
":@	c #E0B02A",
"<@	c #E5D144",
"[@	c #BB8D1F",
"}@	c #716514",
"|@	c #B78310",
"1@	c #585E1A",
"2@	c #726619",
"3@	c #7ABC46",
"4@	c #65952B",
"5@	c #678D28",
"6@	c #968421",
"7@	c #C28A0F",
"8@	c #DEA920",
"9@	c #E6BD38",
"0@	c #E5BA35",
"a@	c #DBA214",
"b@	c #E1B22D",
"c@	c #DCA418",
"d@	c #E3B732",
"e@	c #E3C138",
"f@	c #C19E29",
"g@	c #99680D",
"h@	c #887D1C",
"i@	c #587F25",
"j@	c #558523",
"k@	c #558D26",
"l@	c #717A22",
"m@	c #A9770F",
"n@	c #5D7824",
"o@	c #747C24",
"p@	c #5D7424",
"q@	c #6F7322",
"r@	c #A5660B",
"s@	c #CF9212",
"t@	c #E3B630",
"u@	c #DBA314",
"v@	c #E4B832",
"w@	c #D39C22",
"x@	c #9C630E",
"y@	c #617929",
"z@	c #6C6D1A",
"A@	c #974D0A",
"B@	c #8D490D",
"C@	c #68822A",
"D@	c #6C691D",
"E@	c #658229",
"F@	c #668526",
"G@	c #6D7521",
"H@	c #886D1E",
"I@	c #97510E",
"J@	c #AE6D10",
"K@	c #D19412",
"L@	c #D9A013",
"M@	c #CD9014",
"N@	c #D8AD37",
"O@	c #D9AE38",
"P@	c #E4BB38",
"Q@	c #D39C20",
"R@	c #816B1F",
"S@	c #65822A",
"T@	c #6E9F32",
"U@	c #567923",
"V@	c #82400C",
"W@	c #D79C13",
"X@	c #B26311",
"Y@	c #749B38",
"Z@	c #587929",
"`@	c #789D39",
" #	c #5A8B29",
".#	c #575C1A",
"+#	c #575A1E",
"@#	c #7D621E",
"##	c #A1580F",
"$#	c #AC690F",
"%#	c #C89010",
"&#	c #C88F10",
"*#	c #C48A0F",
"=#	c #A5590E",
"-#	c #C18A11",
";#	c #C48F11",
">#	c #AB6910",
",#	c #7E6720",
"'#	c #68712C",
")#	c #76A53D",
"!#	c #81C944",
"~#	c #75B443",
"{#	c #6A9F31",
"]#	c #5D1907",
"^#	c #752702",
"/#	c #581508",
"(#	c #531109",
"_#	c #541109",
":#	c #5D8D29",
"<#	c #5FAD3C",
"[#	c #96DA59",
"}#	c #72BA48",
"|#	c #67992C",
"1#	c #5E1907",
"2#	c #591608",
"3#	c #699D31",
"4#	c #564513",
"5#	c #564615",
"6#	c #5F4812",
"7#	c #734F12",
"8#	c #745012",
"9#	c #71450C",
"0#	c #71440B",
"a#	c #71440A",
"b#	c #5A4815",
"c#	c #574815",
"d#	c #564715",
"e#	c #574718",
"f#	c #574617",
"g#	c #5B8F2A",
"  . + @ # # $   % & * = = = = - ; > ; , ' ) ! ; ~ = * = + . . { ] ] ^ ^ ^ / ] ] / = = ( _ _ : ! ] { ",
"% . . @ # # $     ] = * = = = < { > ; [ } ( { { ] = = = . . . ] ] ] ^ = = < ] < / = = * _ _ | ] - { ",
"+ % . 1 2 # 3   + ] = = = = = / 4 { ; , 5 ' 4 4 4 6 = =   . . { - < = ^ = < = < - = = ( 7 _ 8 4 9 > ",
". . . + 0 0 a $ b + !   c @ d e 8 _ f @ @ g h i : [ ) , j k l m $ 3 n + o p @ 1 p ] ; ; = q ^ ] { r ",
". % . ~ ~ r a s b + . + p # t u | _ v # # w | i x [ [ , y z z A B b C + D E # t F ] ; - = = ; ] < { ",
"%   + 4 ~ > $ b G n . + H # # u x _ v 1 # w | i i [ [ [ I z z A $ b 0 +   E t t J { { / = = ^ ] { ] ",
"$ $ K { ~ { ^ ^ ^ ; ; ^   L L   M * ~ C C L M - N O P Q R S S T ] ] ! + L D % D ] ' ' ' h | [ ^ = - ",
"U b b { 9 4 V ( ( ( ^ = / ] ] ] ; ; { r > > > > W X Y Y Z ` `  .= = o ....] = = ' i x i i i | ^ = = ",
"b b b o { ] +.) , 6 = = - ; ] ] < < ] 4 ~ r r > @.X Y Y Z ` ` #.= = o 0 0 { = * ' _ _ 7 _ _ | q ^ = ",
"^ & & = = = = - = ] { { ! { ! C $.J G ^ 6 6 { { %.&.*.*.=.-.-.;.- - { . . { - ; ^ ^ ^ V V V ( ( ( ( ",
"| _ >.+.= = < < ] o   . . . ! ,.# # H ( [ , ! . '.).z z !.^ ^ ] r > . . . { > r ; { { ; = * ^ [ ( ' ",
"_ | 7 = = = - < < ! + . ~.~ . G # # J , [ {.. ! '.).z z ].* ^ & 4 4 % . . o > > ; { r r 6 = ^ [ 5 ' ",
"] 4 4 = = ^ { o o { 4 ; { ~.+ ^./.(._.:.:.<.[.}.|.1.2.3.4.5.6.7.8.9.0.; ; ~ ! { ; * 6 6 - - ; = = = ",
"s s b = = = o 0 + ] 6 = { 0 0 a.Y Y Y Y Y b.c.z d.e.` ` f.z z z z z g.6 * ~ ! { ; , , {.] < - > > > ",
"$ s b - ^ ^ o 0 + 4 * 6 { 0 ..a.Y Y Y Y Y b.c.z d.e.` ` f.z z z z z g.= = ; ! ! ; ( ) 6 ] < r r > > ",
"F F H ; +.6 / ] ] h.i.i.j.k.l.m.n.o.p.q.r.s.t.u.v.w.x.w.y.z.A.B.C.C.D.E.F.G.F.H.I.( 6 6 ; 9 r o { { ",
"# # t / [ ( 8 7 7 J.Y Y K.L.L.M.N.N.O.P.L.Q.R.` S.T.Y U.V.W.W.X.L.L.C.z z z z z Y.] < < < 9 { . . . ",
"t # t / [ } _ i x Z.Y Y K.L.L.`.N.N.O.P.L.Q.R.` S.T.Y U.V.W.W.X.L.L.C.z z z z z Y.] < < r < - . . ! ",
"J $.$./ ( }  +.+++@+#+#+$+%+%+&+*+*+=+-+-+;+>+,+'+)+!+)+~+{+{+]+%+%+^+/+/+(+z z _+:+<+[+{ o { ~.o o ",
"5 5 , 6 = = }+Y Y |+L.L.1+2+2+3+4+4+5+N.N.N.N.N.N.N.N.6+7+4+4+8+2+2+9+L.L.0+z z z z z a+. . ~.; > > ",
"( [ [ 6 = = b+Y Y |+L.L.1+2+2+3+4+4+5+N.N.N.N.N.N.N.N.N.7+4+4+8+2+2+9+L.L.0+z z z z z a+~.. ! { > > ",
"( ( [ = = = c+Y Y |+L.L.1+2+2+d+e+e+f+g+g+g+g+g+g+g+g+g+h+e+e+i+j+j+k+l+l+m+n+n+o+z z p+! ! ! 4 { > ",
"~ > ~ = = ^ q+Y Y |+L.L.1+2+2+2+r+r+r+s+s+s+s+s+s+s+s+s+r+r+r+t+W.W.u+2+2+1+L.L.v+z z w+) , ( ! ~ % ",
"r r r = * = q+Y Y |+L.L.1+2+2+2+2+2+2+2+2+2+2+2+2+2+2+2+2+2+2+x+W.W.u+2+2+1+L.L.y+z z z+5 [ ( . . . ",
"{ > ; - / = q+Y Y |+L.L.A+B+B+2+2+2+2+B+B+B+2+2+2+B+B+B+B+B+B+x+W.W.u+2+2+1+C+C+D+d.d.E+( ) ( ! ~.~ ",
"- * = @ # 2 F+Y Y |+L.L.G+H+H+I+2+2+J+H+H+K+2+2+B+L+H+H+H+H+H+W.W.W.u+2+2+M+N+N+O+P+P+Q+6 = ( ( ) R+",
"= = = @ # # S+Y Y |+L.L.G+W.W.T+2+2+J+W.W.U+2+2+B+H+W.W.W.W.W.W.W.W.u+2+2+V+W.W.W+X+X+Y+= = = 5 [ R+",
"= = = @ t t b+Y Y |+L.L.G+W.W.T+2+2+J+W.W.U+Z+2+2+`+W.W.W.W.W.W.W.W.u+2+2+V+W.W.W+X+X+Y+= 6 6 , [ ( ",
". .   ( q +. @.@.@+@L.L.@@#@#@$@U+U+%@W.W.&@l+l+l+#@#@*@=@W.W.-@#@#@;@2+2+V+W.W.W+X+X+>@] ; ; >.7 | ",
"% % % h x _ z+z z y+L.L.L.L.L.,@W.W.W.W.W.'@)@L.L.L.L.)@'@W.W.X.L.L.!@2+2+V+W.W.W+X+X+>@{ ~ ] 7 x x ",
"% + % : _ _ ~@z z y+L.L.L.L.L.,@W.W.W.W.W.'@)@L.L.L.L.)@'@W.W.X.L.L.!@2+2+V+W.W.W+X+X+>@{ ; ; 7 _ | ",
"{@@ {@] [ } ]@z z y+L.L.L.L.L.^@X.X.X.X.X./@L.L.C+(@_@_@:@X.X.@@L.L.!@2+2+<@X.X.[@X+X+Y+. . ~ * ; - ",
"# # t ] = = }@z z y+L.L.L.L.L.L.L.L.L.L.L.L.L.L.C+N+W.W.#@L.L.L.L.L.!@2+2+1+L.L.|@X+X+1@+ + o ] > { ",
"# # # < = = 2@z z y+L.L.L.L.L.L.L.L.L.L.L.L.L.L.C+N+W.W.#@L.L.L.L.L.!@2+2+1+L.L.|@X+X+1@0 + ! 9 > { ",
"$ 3@3@o o o 4@5@5@6@C.C.7@L.L.L.L.L.8@9@9@0@L.L.a@b@,@,@c@L.L.d@9@9@e@9+9+f@g@g@h@i@j@k@- = = r - > ",
"^ = = . ~.0 < = * l@z z 0+L.L.L.L.L.X.W.W.'@)@L.L.L.L.L.L.L.L._@W.W.,@L.L.m@X+X+n@5 [ [ [ [ , > < < ",
"+.= = . 0 ../ = ^ o@z z 0+L.L.L.L.L.X.W.W.'@)@L.L.L.L.L.L.L.L._@W.W.,@L.L.m@X+X+p@' ' ' [ [ V ; < ] ",
"D +   + + 0 = ( ' q@z z r@K.K.s@L.L.#@G+G+t@L.L.u@v@G+G+G+G+G+G+G+G+w@K.K.x@X+X+y@    & h _ h . {   ",
"b b G + .   ' i i z@z z A@Y Y r.L.L.L.L.L.L.L.L.C+N+W.W.W.W.W.X.L.L.r.Y Y B@X+X+C@3 $ L _ x h % +   ",
"s b b + + + ' x _ D@z z A@Y Y r.L.L.L.L.L.L.L.L.C+N+W.W.W.W.W.X.L.L.r.Y Y B@X+X+E@s B C _ 7 [   +   ",
"    % 4 { 4 ' _ _ F@G@G@H@I@I@J@|+|+K@L.L.L@|+|+M@N@O@O@P@9@9@Q@|+|+J@I@I@R@S@S@T@..L   ' h ( + 0   ",
"_ 7 7 q = ^ h x x M . ~ U@X+X+V@Y Y #+L.L.W@X@Y Y Y Y X@W@L.L.#+Y Y V@X+X+Y@b s a ] ] ; ^ ^ ^ + ..+ ",
"x _ i ^ = ^ [ x _ M . ~ Z@X+X+V@Y Y #+L.L.W@X@Y Y Y Y X@W@L.L.#+Y Y V@X+X+`@B b ..] 4 ; = = ; + 0 0 ",
"q ^ q 4 { 4 4 v v { ~ ~  #.#+#@#####$#%#&#*#=#=#=#=#=#=#-#;#;#>#####,#'#'#)#B U + < - ; * * ; ] 4 4 ",
"$ !#!#B b b @ 2 t ~#[ [ ! b s {#X+X+]#^#^#^#z z z z z z /#(#(#_#X+X+:#^ ; ; ~ { { = - * { ~ <#7 _ 7 ",
"!#$ !#b b b [## # }#R+[   B b |#X+X+1#z z z z z z z z z 2#X+X+X+X+X+:#^ = ; . ~.; = = = ~ ~ ; 7 x 7 ",
"K K $ K $ $ [#@ 2 % +.)   !#!#3#4#5#6#7#8#7#7#8#7#9#0#a#b#c#d#e#f#5#g#* * > 4 { ] = = - { ] ; i | : ",
"= +.=   . D ] < ] ] ] & L $ $ L , , 6   . + . . . { ~ { ! ~.! ( ' [ ; ! . ; 6 = - { < < < < ; = ^ ^ ",
"^ ^ =     % 4 < 9 ] ] ] + s !#% ( , 6 . ! + . . . { r > { ! o 6 ' , ; ~ ! ; = * ; ] ] < < < < = = = ",
"= = =   . . { ; - ] ] < ..s b ~#[ [ 6 . . + + + . <#; { ! ~.! * ( , ; ! ~.; - = ; ; 9 ] - ] ] = ^ q "};
