/* XPM */
static char * images_xpm[] = {
"50 50 863 2",
"  	c #41017B",
". 	c #41017A",
"+ 	c #520286",
"@ 	c #54028A",
"# 	c #4C0082",
"$ 	c #470080",
"% 	c #470181",
"& 	c #410076",
"* 	c #3A0070",
"= 	c #38006D",
"- 	c #38006C",
"; 	c #360067",
"> 	c #330061",
", 	c #330062",
"' 	c #350066",
") 	c #360065",
"! 	c #390170",
"~ 	c #39016F",
"{ 	c #37006A",
"] 	c #38006B",
"^ 	c #330052",
"/ 	c #31004C",
"( 	c #30004D",
"_ 	c #310056",
": 	c #31005B",
"< 	c #3C006D",
"[ 	c #42007A",
"} 	c #3F0079",
"| 	c #3F0077",
"1 	c #3A006B",
"2 	c #300054",
"3 	c #300055",
"4 	c #300051",
"5 	c #320045",
"6 	c #320046",
"7 	c #320049",
"8 	c #480080",
"9 	c #3A006C",
"0 	c #40007A",
"a 	c #400079",
"b 	c #500189",
"c 	c #53038B",
"d 	c #53038A",
"e 	c #490082",
"f 	c #3D0074",
"g 	c #3B0170",
"h 	c #38006E",
"i 	c #35016A",
"j 	c #370067",
"k 	c #320061",
"l 	c #350061",
"m 	c #350067",
"n 	c #3A0171",
"o 	c #39016C",
"p 	c #38016B",
"q 	c #320151",
"r 	c #30004B",
"s 	c #310057",
"t 	c #33005D",
"u 	c #3E016D",
"v 	c #420076",
"w 	c #42007B",
"x 	c #3E0077",
"y 	c #3F0076",
"z 	c #3B016D",
"A 	c #2D0156",
"B 	c #300050",
"C 	c #32004A",
"D 	c #33004B",
"E 	c #45007C",
"F 	c #45027C",
"G 	c #46007B",
"H 	c #43007B",
"I 	c #420079",
"J 	c #44007B",
"K 	c #42017A",
"L 	c #3A026D",
"M 	c #31005A",
"N 	c #350059",
"O 	c #330053",
"P 	c #330144",
"Q 	c #33014B",
"R 	c #340061",
"S 	c #370069",
"T 	c #3E0173",
"U 	c #3E0177",
"V 	c #33005E",
"W 	c #320059",
"X 	c #32005B",
"Y 	c #33005C",
"Z 	c #39026C",
"` 	c #3D0175",
" .	c #3C0075",
"..	c #380168",
"+.	c #33015C",
"@.	c #310157",
"#.	c #31004E",
"$.	c #30004C",
"%.	c #310058",
"&.	c #310053",
"*.	c #300052",
"=.	c #46007D",
"-.	c #46007E",
";.	c #420179",
">.	c #410179",
",.	c #43007A",
"'.	c #45007D",
").	c #3C016B",
"!.	c #2F0157",
"~.	c #2E0053",
"{.	c #31004F",
"].	c #34003E",
"^.	c #330148",
"/.	c #35006A",
"(.	c #3E0176",
"_.	c #340062",
":.	c #34015E",
"<.	c #37016A",
"[.	c #3D0075",
"}.	c #3C0076",
"|.	c #360066",
"1.	c #310051",
"2.	c #310054",
"3.	c #3C006B",
"4.	c #310050",
"5.	c #330049",
"6.	c #350062",
"7.	c #3D0076",
"8.	c #310052",
"9.	c #370262",
"0.	c #360163",
"a.	c #3C006E",
"b.	c #3B0070",
"c.	c #3F0074",
"d.	c #390068",
"e.	c #37025D",
"f.	c #350055",
"g.	c #33004F",
"h.	c #34005A",
"i.	c #3A0264",
"j.	c #44037F",
"k.	c #46037E",
"l.	c #39006F",
"m.	c #3B0171",
"n.	c #4E0382",
"o.	c #500485",
"p.	c #4F0485",
"q.	c #3F0071",
"r.	c #3A006F",
"s.	c #39006B",
"t.	c #38006A",
"u.	c #460279",
"v.	c #4F0284",
"w.	c #4D0284",
"x.	c #420176",
"y.	c #390069",
"z.	c #370062",
"A.	c #30014D",
"B.	c #32004E",
"C.	c #320149",
"D.	c #34004B",
"E.	c #330160",
"F.	c #31025A",
"G.	c #31025D",
"H.	c #370267",
"I.	c #37006B",
"J.	c #3E0073",
"K.	c #37005E",
"L.	c #310150",
"M.	c #320041",
"N.	c #320142",
"O.	c #330050",
"P.	c #35005F",
"Q.	c #3B026A",
"R.	c #4C0285",
"S.	c #4C0284",
"T.	c #4A0182",
"U.	c #400076",
"V.	c #530288",
"W.	c #54028B",
"X.	c #410077",
"Y.	c #3C0176",
"Z.	c #4A017E",
"`.	c #54018A",
" +	c #520189",
".+	c #47017C",
"++	c #3B0173",
"@+	c #370063",
"#+	c #340044",
"$+	c #340043",
"%+	c #340147",
"&+	c #340165",
"*+	c #340167",
"=+	c #310159",
"-+	c #370068",
";+	c #370061",
">+	c #330149",
",+	c #370146",
"'+	c #32014F",
")+	c #310160",
"!+	c #3B026E",
"~+	c #4D0286",
"{+	c #4B0286",
"]+	c #4A0281",
"^+	c #3C0177",
"/+	c #510389",
"(+	c #55028B",
"_+	c #400177",
":+	c #3E0075",
"<+	c #3C0170",
"[+	c #3B0071",
"}+	c #3C0071",
"|+	c #4A027E",
"1+	c #540189",
"2+	c #570189",
"3+	c #46017E",
"4+	c #3A0173",
"5+	c #380064",
"6+	c #2F0048",
"7+	c #31004A",
"8+	c #340042",
"9+	c #35004A",
"0+	c #350065",
"a+	c #32004C",
"b+	c #33004C",
"c+	c #350063",
"d+	c #380163",
"e+	c #38015F",
"f+	c #360061",
"g+	c #320155",
"h+	c #32004B",
"i+	c #340153",
"j+	c #350157",
"k+	c #330157",
"l+	c #3C0167",
"m+	c #4A027C",
"n+	c #48027C",
"o+	c #4D0185",
"p+	c #4A0185",
"q+	c #48017F",
"r+	c #33015E",
"s+	c #32015E",
"t+	c #350160",
"u+	c #3E026D",
"v+	c #3F026F",
"w+	c #380167",
"x+	c #360162",
"y+	c #35005C",
"z+	c #35005A",
"A+	c #3F026D",
"B+	c #410277",
"C+	c #420278",
"D+	c #4A0181",
"E+	c #500184",
"F+	c #460176",
"G+	c #350164",
"H+	c #360064",
"I+	c #36015B",
"J+	c #340045",
"K+	c #34024F",
"L+	c #34004F",
"M+	c #330045",
"N+	c #330060",
"O+	c #340065",
"P+	c #320057",
"Q+	c #330051",
"R+	c #310048",
"S+	c #340154",
"T+	c #340160",
"U+	c #420272",
"V+	c #530188",
"W+	c #4C0080",
"X+	c #4A0081",
"Y+	c #47027C",
"Z+	c #31014E",
"`+	c #30004A",
" @	c #370065",
".@	c #39026E",
"+@	c #390171",
"@@	c #4B0281",
"#@	c #59028D",
"$@	c #4F0283",
"%@	c #3A016F",
"&@	c #3A0170",
"*@	c #380066",
"=@	c #330043",
"-@	c #320048",
";@	c #32004D",
">@	c #330057",
",@	c #32005C",
"'@	c #340054",
")@	c #3C0266",
"!@	c #400173",
"~@	c #3F0273",
"{@	c #45017A",
"]@	c #4E0284",
"^@	c #4C0181",
"/@	c #3F016C",
"(@	c #3D006A",
"_@	c #3D0069",
":@	c #33004D",
"<@	c #33005B",
"[@	c #33005F",
"}@	c #350060",
"|@	c #340155",
"1@	c #36015F",
"2@	c #350259",
"3@	c #41006F",
"4@	c #4A017F",
"5@	c #47037E",
"6@	c #44017B",
"7@	c #44017A",
"8@	c #400274",
"9@	c #36005C",
"0@	c #36005B",
"a@	c #360156",
"b@	c #320043",
"c@	c #2E0052",
"d@	c #2F0152",
"e@	c #300252",
"f@	c #330147",
"g@	c #340059",
"h@	c #410174",
"i@	c #510286",
"j@	c #4F0286",
"k@	c #4A0280",
"l@	c #46007C",
"m@	c #400171",
"n@	c #330251",
"o@	c #320144",
"p@	c #320047",
"q@	c #330063",
"r@	c #310146",
"s@	c #310046",
"t@	c #35025C",
"u@	c #38016C",
"v@	c #3E0175",
"w@	c #4C0385",
"x@	c #4F0185",
"y@	c #3A016E",
"z@	c #330047",
"A@	c #300155",
"B@	c #2D0050",
"C@	c #31035B",
"D@	c #340161",
"E@	c #3F0173",
"F@	c #500286",
"G@	c #500185",
"H@	c #4A0082",
"I@	c #420174",
"J@	c #2E024D",
"K@	c #35005D",
"L@	c #340060",
"M@	c #330048",
"N@	c #380169",
"O@	c #400175",
"P@	c #4D0187",
"Q@	c #4D0186",
"R@	c #47017E",
"S@	c #39016E",
"T@	c #330046",
"U@	c #35015E",
"V@	c #350257",
"W@	c #350253",
"X@	c #330253",
"Y@	c #3B0067",
"Z@	c #410272",
"`@	c #440177",
" #	c #3F006F",
".#	c #390163",
"+#	c #33024B",
"@#	c #33014C",
"##	c #33014E",
"$#	c #33014F",
"%#	c #360062",
"&#	c #370066",
"*#	c #36015A",
"=#	c #320145",
"-#	c #350153",
";#	c #3A016A",
">#	c #42017D",
",#	c #46027A",
"'#	c #49027D",
")#	c #49017D",
"!#	c #450075",
"~#	c #370159",
"{#	c #350058",
"]#	c #360058",
"^#	c #35006B",
"/#	c #36016B",
"(#	c #4C027F",
"_#	c #55018A",
":#	c #4D0184",
"<#	c #41007A",
"[#	c #3D016D",
"}#	c #340041",
"|#	c #340046",
"1#	c #39006D",
"2#	c #3B016F",
"3#	c #3A006E",
"4#	c #3A0072",
"5#	c #350158",
"6#	c #30004E",
"7#	c #320159",
"8#	c #35016B",
"9#	c #370168",
"0#	c #410275",
"a#	c #5E0291",
"b#	c #5B038B",
"c#	c #3C0273",
"d#	c #36006B",
"e#	c #330159",
"f#	c #370167",
"g#	c #410178",
"h#	c #3F0278",
"i#	c #350064",
"j#	c #340064",
"k#	c #38006F",
"l#	c #4A0180",
"m#	c #530289",
"n#	c #400172",
"o#	c #380161",
"p#	c #2F014B",
"q#	c #34014B",
"r#	c #390166",
"s#	c #370166",
"t#	c #39006E",
"u#	c #3F0075",
"v#	c #430179",
"w#	c #350151",
"x#	c #360063",
"y#	c #340163",
"z#	c #57038B",
"A#	c #550387",
"B#	c #410175",
"C#	c #3F0072",
"D#	c #4A007F",
"E#	c #49017F",
"F#	c #37016B",
"G#	c #3F0178",
"H#	c #45017E",
"I#	c #490085",
"J#	c #480084",
"K#	c #3E0069",
"L#	c #32024D",
"M#	c #30014B",
"N#	c #350149",
"O#	c #340040",
"P#	c #2F0053",
"Q#	c #310156",
"R#	c #400176",
"S#	c #45007B",
"T#	c #47017D",
"U#	c #3B0073",
"V#	c #4C0084",
"W#	c #520187",
"X#	c #370272",
"Y#	c #310047",
"Z#	c #360255",
"`#	c #3F0177",
" $	c #3F0179",
".$	c #48017D",
"+$	c #4A0183",
"@$	c #370169",
"#$	c #3C0173",
"$$	c #460080",
"%$	c #4A0184",
"&$	c #3E006C",
"*$	c #34003F",
"=$	c #300057",
"-$	c #400074",
";$	c #45017D",
">$	c #3B0074",
",$	c #3C0074",
"'$	c #4C0183",
")$	c #520088",
"!$	c #510088",
"~$	c #370271",
"{$	c #3A026E",
"]$	c #36025C",
"^$	c #350156",
"/$	c #48007E",
"($	c #48007D",
"_$	c #48017C",
":$	c #360060",
"<$	c #48007F",
"[$	c #3D0172",
"}$	c #49017E",
"|$	c #48017E",
"1$	c #3C0174",
"2$	c #4C0182",
"3$	c #4D0086",
"4$	c #46017A",
"5$	c #3D0273",
"6$	c #3E0174",
"7$	c #390161",
"8$	c #33014D",
"9$	c #3D0072",
"0$	c #430078",
"a$	c #350167",
"b$	c #360166",
"c$	c #33014A",
"d$	c #33015D",
"e$	c #350163",
"f$	c #340063",
"g$	c #340066",
"h$	c #350166",
"i$	c #31005C",
"j$	c #33015F",
"k$	c #610494",
"l$	c #630494",
"m$	c #620493",
"n$	c #46027C",
"o$	c #42017B",
"p$	c #3F0078",
"q$	c #540287",
"r$	c #5D0393",
"s$	c #500383",
"t$	c #3C0073",
"u$	c #380065",
"v$	c #2F004B",
"w$	c #320058",
"x$	c #32005E",
"y$	c #5E0394",
"z$	c #5F0291",
"A$	c #310049",
"B$	c #340068",
"C$	c #37015E",
"D$	c #5C068E",
"E$	c #640493",
"F$	c #630492",
"G$	c #450279",
"H$	c #420177",
"I$	c #400077",
"J$	c #520484",
"K$	c #5B0290",
"L$	c #5D0391",
"M$	c #4E0580",
"N$	c #300156",
"O$	c #37006D",
"P$	c #2E0050",
"Q$	c #380166",
"R$	c #4C0186",
"S$	c #4B0185",
"T$	c #4E0186",
"U$	c #33005A",
"V$	c #3E0076",
"W$	c #500087",
"X$	c #4A0282",
"Y$	c #4A0186",
"Z$	c #3F0272",
"`$	c #310059",
" %	c #32005D",
".%	c #330165",
"+%	c #500086",
"@%	c #3F0172",
"#%	c #4C0081",
"$%	c #4D0181",
"%%	c #41016E",
"&%	c #3C0070",
"*%	c #3A016B",
"=%	c #32005F",
"-%	c #340162",
";%	c #4F0285",
">%	c #4E0183",
",%	c #38016A",
"'%	c #390070",
")%	c #3B0075",
"!%	c #480280",
"~%	c #4F0086",
"{%	c #41016F",
"]%	c #300154",
"^%	c #320063",
"/%	c #39016D",
"(%	c #3E0170",
"_%	c #510487",
":%	c #520289",
"<%	c #4E0286",
"[%	c #4C0282",
"}%	c #3B006F",
"|%	c #3D0073",
"1%	c #4E0187",
"2%	c #420170",
"3%	c #2F0151",
"4%	c #310353",
"5%	c #2F014C",
"6%	c #300048",
"7%	c #33004A",
"8%	c #350069",
"9%	c #40017B",
"0%	c #43017D",
"a%	c #3C0077",
"b%	c #3D0171",
"c%	c #510387",
"d%	c #3B016E",
"e%	c #320156",
"f%	c #320056",
"g%	c #34005B",
"h%	c #4A027B",
"i%	c #530189",
"j%	c #4E0280",
"k%	c #4A017B",
"l%	c #4B017D",
"m%	c #40026D",
"n%	c #2F0149",
"o%	c #330044",
"p%	c #310055",
"q%	c #4E0287",
"r%	c #500287",
"s%	c #410078",
"t%	c #3A016C",
"u%	c #320157",
"v%	c #36015D",
"w%	c #3E026E",
"x%	c #3D0170",
"y%	c #300157",
"z%	c #490378",
"A%	c #510188",
"B%	c #4F0387",
"C%	c #350141",
"D%	c #350140",
"E%	c #350044",
"F%	c #32005A",
"G%	c #4B0180",
"H%	c #52038A",
"I%	c #560289",
"J%	c #4C0281",
"K%	c #3C006C",
"L%	c #320050",
"M%	c #500187",
"N%	c #32014C",
"O%	c #3B0163",
"P%	c #42016F",
"Q%	c #48027D",
"R%	c #4D0385",
"S%	c #4F0288",
"T%	c #4B017C",
"U%	c #480278",
"V%	c #430371",
"W%	c #330154",
"X%	c #360263",
"Y%	c #47027A",
"Z%	c #4E0182",
"`%	c #4C0381",
" &	c #4D0287",
".&	c #4D0281",
"+&	c #420175",
"@&	c #340055",
"#&	c #350046",
"$&	c #310045",
"%&	c #31014A",
"&&	c #2E0153",
"*&	c #31015A",
"=&	c #3E0370",
"-&	c #500288",
";&	c #500488",
">&	c #31025B",
",&	c #32025D",
"'&	c #36026B",
")&	c #530388",
"!&	c #5A038D",
"~&	c #4F0186",
"{&	c #45027E",
"]&	c #47027F",
"^&	c #3C026B",
"/&	c #2F004F",
"(&	c #33003D",
"_&	c #350148",
":&	c #350168",
"<&	c #320259",
"[&	c #31015B",
"}&	c #32015A",
"|&	c #4F0187",
"1&	c #4D0188",
"2&	c #4B027F",
"3&	c #30015D",
"4&	c #32025B",
"5&	c #39026A",
"6&	c #37026C",
"7&	c #4F0287",
"8&	c #5A028E",
"9&	c #5A028D",
"0&	c #470182",
"a&	c #3B006A",
"b&	c #34013E",
"c&	c #33024A",
"d&	c #330164",
"e&	c #39006C",
"f&	c #3A016D",
"g&	c #460174",
"h&	c #490278",
"i&	c #490277",
"j&	c #37015C",
"k&	c #380263",
"l&	c #3E0271",
"m&	c #3C026E",
"n&	c #48027A",
"o&	c #430173",
"p&	c #410072",
"q&	c #400071",
"r&	c #49017C",
"s&	c #4A027D",
"t&	c #49027C",
"u&	c #530389",
"v&	c #53008A",
"w&	c #53018A",
"x&	c #39005D",
"y&	c #360055",
"z&	c #330156",
"A&	c #3A005F",
"B&	c #49027A",
"C&	c #47017B",
"D&	c #3D0174",
"E&	c #56028B",
"F&	c #320161",
"G&	c #31015D",
"H&	c #42016D",
"I&	c #4D0087",
"J&	c #36006A",
"K&	c #5A028F",
"L&	c #58038E",
"M&	c #510189",
"N&	c #4E0087",
"O&	c #3D026B",
"P&	c #310258",
"Q&	c #300256",
"R&	c #53028A",
"S&	c #51018A",
"T&	c #3D026C",
"U&	c #520287",
"V&	c #56018A",
"W&	c #55028A",
"X&	c #49037B",
"Y&	c #430273",
"Z&	c #450273",
"`&	c #38025E",
" *	c #2F0150",
".*	c #32014E",
"+*	c #3C025F",
"@*	c #4A017D",
"#*	c #4E0084",
"$*	c #490181",
"%*	c #520284",
"&*	c #540386",
"**	c #52018A",
"=*	c #430276",
"-*	c #3B0064",
";*	c #2E0151",
">*	c #3C0262",
",*	c #460377",
"'*	c #47047A",
")*	c #4A037F",
"!*	c #400075",
"~*	c #4D0282",
"{*	c #5B058F",
"]*	c #5F0394",
"^*	c #5C0291",
"/*	c #45036F",
"(*	c #350240",
"_*	c #36023F",
":*	c #34034A",
"<*	c #300158",
"[*	c #380165",
"}*	c #490183",
"|*	c #47007F",
"1*	c #470180",
"2*	c #490182",
"3*	c #480184",
"4*	c #38015E",
"5*	c #300153",
"6*	c #31014B",
"7*	c #48037C",
"8*	c #620396",
"9*	c #610495",
"0*	c #5A048D",
"a*	c #480182",
"b*	c #46017C",
"c*	c #350068",
"d*	c #360168",
"e*	c #510289",
"f*	c #51028A",
"g*	c #59038E",
"h*	c #5D048F",
"i*	c #43016C",
"j*	c #340151",
"k*	c #35013F",
"l*	c #3B0165",
"m*	c #480180",
"n*	c #390162",
"o*	c #2E0051",
"p*	c #2F004E",
"q*	c #2F014A",
"r*	c #33025B",
"s*	c #360069",
"t*	c #46047A",
"u*	c #610496",
"v*	c #620295",
"w*	c #360269",
"x*	c #4B037F",
"y*	c #57028C",
"z*	c #5B028E",
"A*	c #5C028F",
"B*	c #470278",
"C*	c #3A0265",
"D*	c #390265",
"E*	c #350143",
"F*	c #350045",
"G*	c #360160",
"H*	c #44027A",
"I*	c #440279",
"J*	c #430178",
"K*	c #430177",
"L*	c #38015D",
"M*	c #31014F",
"N*	c #310255",
"O*	c #3C0166",
"P*	c #420373",
"Q*	c #59048D",
"R*	c #58038D",
"S*	c #530488",
"T*	c #45027A",
"U*	c #340168",
"V*	c #500285",
"W*	c #57038E",
"X*	c #300250",
"Y*	c #310161",
"Z*	c #350159",
"`*	c #4E0380",
" =	c #610493",
".=	c #57048A",
"+=	c #400178",
"@=	c #410170",
"#=	c #57048B",
"$=	c #39016A",
"%=	c #4C0380",
"&=	c #4B0283",
"*=	c #40016F",
"==	c #320152",
"-=	c #330054",
";=	c #340053",
">=	c #330265",
",=	c #330065",
"'=	c #34014D",
")=	c #320044",
"!=	c #38026A",
"~=	c #4E0381",
"{=	c #3F0174",
"]=	c #3F0175",
"^=	c #3E006F",
"/=	c #450078",
"(=	c #4A0284",
"_=	c #4A0285",
":=	c #3E0074",
"<=	c #3D0173",
"[=	c #3B0175",
"}=	c #330162",
"|=	c #450379",
"1=	c #3A0069",
"2=	c #310153",
"3=	c #46017F",
"4=	c #45017B",
"5=	c #4F0184",
"6=	c #45017C",
"    . + @ @ # $ % & * * = = - ; > > , ' ) ) ! ! ~ { ] ] ^ / ( _ : : < [ } } | | 1 2 3 4 5 5 6 7 7 7 ",
"    . + @ @ # 8 % & * * = = - ; > > , ' ) ) ! ! ! { ] ] ^ / ( _ : : < [ } } | | 9 2 3 4 5 5 6 7 7 7 ",
"0 a [ b c d e 8 8 f g g h i - j k k l ) ' m ~ ! n 1 o p q r ( s t t u v w x y y z A 3 B 6 6 6 C D D ",
"E E E F G G H [ I J K . L M N O P P Q R , , { { S T U U V W X Y t t Z `  ...+.Y @.#.$.4 s %.%.&.*.*.",
"=.=.-.;.>.>.    ,.J '.'.).!.~.{.].].^., > > /./.{ (.>.>._.:.t t t t <.[.}.|._ _ 1.$.$.B : : W 2.2.2.",
"=.=.=.;.>.>.    ,.J '.'.3.!.~.4.].].5., > > /./.{ (.>.>.6.:.t t t t <.[.7.|._ _ 8.$.( B : : W 2.2.2.",
"9.9.0.a.b.b.c.a   d.e.e.f.D C g.h.h.i.j.k.F l.l.m.n.o.p.q.r.* s.t.t.u.v.w.x.y.y.z.A.B.C C.C.D.E.> > ",
"F.F.G.H.{ I.J.a 0 K.L.L.D M.N.O.P.P.Q.R.S.T.m.m.U.V.W.W.X. .Y.* * * Z.`. +.+++++@+A.B.C #+$+%+&+*+*+",
"=+=+h.-+- - U.0   ;+B.B.>+P ,+'+)+)+!+~+{+]+n n ^+/+(+@ _+:+` <+[+}+|+1+2+3+4+4+5+6+7+7+8+8+9+0+&+&+",
"a+a+b+c+|.|.d+e+f+g+h+h+i+j+k+l+m+m+n+o+p+q+r+s+t+u+v+v+w+|.x+y+z+z+A+B+C+D+E+E+F+G+H+I+8+8+J+K+L+L+",
"M+M+M+N+O+O+P+1.Q+R+7 7 S+l T+U+@ @ V+W+X+Y+4 B 2.W : : : : X Z+`+`+ @.@+@@@#@#@$@%@&@*@=@=@=@=@=@=@",
"M+M+M+N+O+O+P+1.Q+-@7 7 S+l T+U+@ @ V.W+X+Y+4 B 2.W : : : : X Z+`+`+ @.@+@@@#@#@v.%@&@*@=@=@=@=@=@=@",
"7+7+;@>@Y ,@B.C b+'@'@'@)@!@~@{@]@]@^@/@(@_@a+a+:@Q+O.O.<@[@}@B.C C |@1@2@3@Z.4@5@6@7@8@9@0@a@b@5 5 ",
"c@c@d@e@8.1.C 6 f@g@l l h@i@j@k@l@l@m@n@L.L.o@o@b@p@6 p@V q@}@B.C C r@f@s@t@u@u@v@w@x@k@y@y@I.z@5 5 ",
"A@A@d@B@*.1.C 6 r@C@D@D@E@F@G@H@'.'.I@J@B.B.5 5 -@-@-@-@K@l L@B.M@M@-@-@o@y+N@N@O@P@Q@R@S@S@o T@z@z@",
"f+f+U@Y ,@Y V@W@X@Y@Z@Z@{@k@H@`@ # #.#+#h+h+@#@#######$#%#&#&#1@*#*#;@o@=#-#6.6.;#.+>#,#'#)#!#~#{#]#",
"[.[. .) > > m ^#/#(#_#_#:#<#,.[#1.1.B.8+}#|#: : ,@t t t 1#2#3#4#m.m.5#f@6 h+6#6#7#8#9#0#a#a#b#c#}+}+",
"[.[. .) > > m ^#d#(#_#_#:#<#,.[#1.1.;@8+}#J+: : ,@t t t 1#2#r.4#m.m.5#f@6 h+6#6#e#8#f#0#a#a#b#c#}+}+",
"g#g#h#i#j#j#{ k#I.l#m#m#Z.u n#o#a+a+p#T@M+q#R R D@r#s#s#t#t#[+u#v#v#@+w#$#g.a+h+|@x#y#A+z#z#A#B#C#C#",
"D#D#E#F#j#j#}+U G#H#I#J#K#L#M#N#O#O#T@P#Q#+.:+:+R#S#T#T#U#U#[+V#W#W#;.X#+@<@-@-@Y#D D Z#`#`# $.$=.=.",
"+$+$D+@$H+H+#$a <#$$%$p+&$A.a+-@*$*$6 =$_ ,@7.7.-$G H#;$>$>$,$'$)$!$g#~${$]$5 6 7 7 5.^$7.7.`#H#/$/$",
"($($_$0.:$:$3#J.c.S#/$<$&$A.a+7 #+#+p@%._ ,@[$[$c.l@}$|$,$>$1$2$3$3$4$5$6$7$8$:@C 7 5.^$b.b.9$0$0$0$",
"a$b$-+c$7 C d$e$f$g$h$h$V &.2.%.: : ,@t t t i$i$j$k$l$m$n$o$v#p$[.[.q$r$a#s$t$t$u$v$`+6#4 4 w$R , > ",
"h$h$; 5.7 7 d$y#f$g$h$h$x$&.2.%.: : ,@t t t : : j$k$l$l$n$o$v#p$[.[.q$y$z$s$,$,$u$v$`+6#B B w$N+> > ",
"....; a+R+A$,@> q@B$h$h$x$&._ _ %.%.X X X X M M C$D$E$F$G$H$g#_+I$I$J$K$L$M$m.m.H+h+`+6#1.1.N$f$i#i#",
"- - O$^ P$P$,@> [@0+h$h$x$&._ _ 2.2.8.1.#.#.8.8.L.w+0.0.) j#Q$R@Q@Q@R$S$T$8@N+E.z+7+`+6#1.1.U$` V$7.",
"= = - %.1.1.Y N+[@j#O+O+x$&._ _ 2.2.1.$.$.$.2.2.2.x$> > j#j#&+R@W$W$X$X$Y$Z$[@[@s `+`+6#B B 7#a | | ",
"1#1#1#`$1.8.t > N+0+' ' V &._ _ 2.2.1.$.$.$.2.2.2. %> > j#j#.%R@W$+%X$X$Y$@%[@[@%.r r 6#4 4 7#a | | ",
"#%#%$%9#> > s.m.* 4$l#l#%%A@4 $.5 5 -@h+$.$.`+`+C C a+a+T+j#) t.b.&%:+I w V$}+}+*%=%t -%j j a.;%W$W$",
">%>%$@,%> > '%)%}.!%~%~%{%]%4 $.5 5 -@a+$.$.`+`+C C -@7 T+j#) S { { f I w V$ . .r.^%> ' /%/%(%_%:%:%",
"<%<%[%..q@f$}%,$|%8 1%1%2%3%4%'+T@T@z@5%r r `+`+$.6%7%7%N+> j#8%] ] 5$9%0%V$}.a%%@^%, j#- - b%c% + +",
"d%d%y@7#e%f%g%}@s+h%i% +j%k%l%m%6#6#n%o%o%o%2.2.p%: X X X X x$j#] ] ,#q%r%l#s%s%t%u%_ u%7#7#v%w%x%x%",
"O+O+O+&.1.1.2.%.y%z%@ @ :%A%B%F+2.2.8$C%D%E%%.%.F%[@> > %.%.M j#{ { G%H%I%J%>.>.K%L%1.1.1.1.e%8%h$h$",
"O+O+O+2.1.1.2.%.=$z%@ @ :%M%B%F+2.2.8$D%D%E%%.%.F%[@> > %.%.`$j#{ { l#H%I%J%>.>.K%L%1.1.1.1.k+8%h$h$",
"j#j#q@F%2.2.B.C N%O%P%P%Q%R%S%T%U%U%V%S+W%W%%.%.F%q@j#j#x#x#X%Y%Z%Z%`% &.&+&;+;+@&#&$&@#t t y#1#1#1#",
"j#j#q@F%%.%.C 6 %&&&*&*&=&B%T$-&;&;&h%>&G.,&%.%.F%q@j#j#] - '&)&!&!&~&{&]&^&/&/&C (&}#_&' ' :&++U#U#",
"y#y#e$<&[&[&M#6 >+^ }&}&u+|&1&R$:%:%2&3&4&4&F%F%,@_.O+O+9#5&6&7&8&9&G@0&I#a&B.B.7+b&}#c&d&d&&+[+[+[+",
"e&- f&g&h&i&j&g+^ Q+4.4.k&l&m&n&:%:%$@o&p&q&j#j#_.a$O+' r&s&t&u&v&w&F+^&a&x&C h+B.y&z&A&B&B&C&y y y ",
",$,$D&E&#@#@^&F&G&4.7 7 ( 2 @.H&@ @ m#I&~%l#^#/./././.J&V+K&L&M&N&N&O&P&Q&;@=@=@-#:&F#8@#@#@E&H J J ",
",$,$f E&#@#@^&F&G&4.7 7 ( 2 @.H&@ @ R&N&~%l#d#/./././.d#V+K&L&S&N&N&T&P&Q&;@=@=@-#:&F#8@#@#@E&H J J ",
"r.r.m.U&V&W&X&Y&Z&`&B.#. *.*'++*z%z%@*#*X$$*h h h h h t#%*&***.+=*=*-*;*2.g+f.f.>*,*'*)*R&w&A%!*c.c.",
"i i '&~*M&A%{*]*^*/*[&[&.*(*_*:*<*<*[*}*$*|*t$t$t$t$t$t$1*2*3*4*5*5*1.;@6*x$8#8#7*8*9*0*a*a*b*c*:&d*",
"h$h$- p.e*f*g*h*L$i*X X j*k*C%>+%.%.l*m*E#($U#U#U#U#U#U#/$E#1*n*;*o*p*`+q*r*s*s*t*u*v*h*l#l#|*N@h$h$",
"h$h$w*Y+)*x*y*z*A*B*C*D*|@E*F*:@2.2.G*H*I*J*1#1#1#1#1#1#K*I*{@L*/ / M*2.N*O*P*P*)*Q*R*S*T*G$+&U*h$h$",
"h$h$h$h$h$h$V*W*9&w&N&N&{%X*B $.7 7 #.Y*> > t t [@[@[@[@%.%.W M@].].Z*a$@$`* = =.=+=[ v@%.%.,@> > > ",
"h$h$h$h$h$h$V*W*9&w&N&N&@=X*B $.7 7 #.)+> > t t [@[@[@[@%.%.W M@].].Z*a$@$`* = =#=+=[ 6$%.%.X > > > ",
"' g$O+$=u@u@%=E&E&V*&=&=*===N -=:@:@;=>=,=,=N+E.T+=%y#y#F%F%h.'=o%)=G*!=;#~=h*h*&*{=]=^=_ p%P+N+> N+",
"e#e#X /=(=_=6@;.J :=<=|%%@1 - j R R J&,$[=[=[=[=* h - - f$f$c+P.}=}=|=Z%]@.+]=]=1=2===( ( ( ( s Y t ",
"%.%.7#3=$*$*J ,.I :=,$,$* ] - |.> > )  .,$,$,$,$t$h = = _._.> > > > 4=~&5=6=[.[.1 B 6#6#`+`+#.X : : ",
"%.%.7#3=$*$*J ,.I :=,$,$* t.- |.> > )  .,$,$,$,$t$h = = _._.> > > > 4=~&5=6=[.[.1 B 6#6#`+`+#.X : : "};
