/* XPM */
static char * obsi_xpm[] = {
"50 50 5 1",
" 	c #06030B",
".	c #100C1C",
"+	c #000001",
"@	c #271E3D",
"#	c #3B2754",
"   +++++++++++++   ...   +++###@@@.     .@@@###@@@",
"   +++++++++++++   ...   +++###@@@.     .@@@###@@@",
"   +++++++++++++   ...   +++###@@@.     .@@@###@@@",
"   +++   ... ++ ...   ++ ###@.....   .@@@###......",
"   +++   ... ++ ...   ++ ###...      .@@@###...   ",
"   +++   ... ++ ...   ++ ###...      .@@@###...   ",
"++++++@#####@@@.      @@@@@@...... ++...@@@@      ",
"++++++#######@@@+++  .@@@@@@...... ++ ...@@@+++   ",
"++++++#######@@@+++  .@@@@@@...... ++ ...@@@+++   ",
"+++@@@@@@@@@@..@@@.   .........   +++   ....   +++",
"+++###@@@.......@@@   ...   ... +++++    ...   +++",
"+++###@@@.......@@@   ...   ... ++++++   ...   +++",
"+++@##@@@..........++     ++   ++++ +    .. +++ + ",
"+++@@@..........++++++++++++++++++          +++   ",
"+++@@@..........++++++++++++++++++          +++   ",
"   @@@.........    ++++++++++++.@@....      +++   ",
"......... +++++ ...            ###@@@.      ++++++",
"......... +++++ ...            ###@@@.      ++++++",
".........   ....@@@......      @##@@@.      ++++++",
"......   ...@@@@######@@@   +++@@@.+++   ++++++   ",
"......   ...@@@@######@@@   +++@@@.++    ++++++   ",
"......   ...@@@@######@@@   +++@@@.+++   ...      ",
"   +++...@##@......+++...+++++++++++++++@###@@@+++",
"   +++...@##@......+++...+++++++++++++++@###@@@+++",
"   +++...@##@......+++...+++++++++++++++@###@@@+++",
"++++++@##@@@@.........@@@@@@.  ++++++.@@@.........",
"++++++###@@@@.........@@@@@@.  ++++++.@@@.........",
"++++++###@@@@.........@@@@@@.  ++++++.@@@.........",
"@@@.......  ....  .@@@@@@...   +++ .........      ",
"@@@... +++++ ...  .@@@@@@...   +++....   ...      ",
"@@@... +++++ ...  .@@@@@@...   +++....   ...      ",
"....     +++       ......      +++    ...   ++ @@@",
"...      +++          ...      ++++++ ...   ++ @@@",
"...      +++          ...      ++++++ ...   ++ @@@",
"   ...       .. ++    ...   @@@@@@@@@.............",
"+++...      ....+++   ...   ######@@@@............",
"+++...      ....+++   ...   ######@@@@............",
" ++@@@@@@...       .........###@@@@.....@@@@......",
"   ######@.. ++ .........@@@###@..   ...@###...   ",
"   ######@.. ++ .........@@@###@..   ...@###...   ",
"...###@@@@.. ++ .........@@@@@@...    ..@@@@...   ",
"@@@@@@...          +++.........          ++.@@@   ",
"@@@@@@...          +++.........          ++.@@@   ",
"@@@@@@...          .............         ++.@@@   ",
"+++@@@.     ....  .@@@      ...... +++   ++++++   ",
"+++@@@.     ....  .@@@      ...... ++    ++++++   ",
"+++@@@.     ....  .@@@...   ...... ++    ++++++   ",
"...   +++... +++   ...@@@...+++                   ",
"...   +++... +++   ...@@@...+++                   ",
"...   +++... +++   ...@@@...+++                   "};
