/* XPM */
static char *_e62efb81a9746eda3f46a045ebdce44Fktg5HTImCPCKBqy[] = {
/* columns rows colors chars-per-pixel */
"50 50 92 1 ",
"  c #478D1F",
". c #468B25",
"X c #498B25",
"o c #4B872B",
"O c #468A2A",
"+ c #498A2A",
"@ c #479021",
"# c #4B9325",
"$ c #4E9926",
"% c #4D942B",
"& c #4E992A",
"* c #519625",
"= c #519A26",
"- c #51962C",
"; c #529B2B",
": c #5A9C2E",
"> c #4F9733",
", c #4E9A32",
"< c #529632",
"1 c #559C31",
"2 c #5A9D32",
"3 c #4FA02B",
"4 c #56A32C",
"5 c #5AA42D",
"6 c #5DAB2E",
"7 c #5FB02F",
"8 c #57A431",
"9 c #5AA432",
"0 c #5EAB33",
"q c #5BA539",
"w c #5FAD3C",
"e c #5FB032",
"r c #5FB038",
"t c #61AD2E",
"y c #63B32D",
"u c #61A334",
"i c #62AD33",
"p c #60A63A",
"a c #64AD39",
"s c #69A83E",
"d c #63B234",
"f c #69B536",
"g c #65B936",
"h c #6CBB36",
"j c #64B53A",
"k c #6AB53B",
"l c #66B83A",
"z c #6AB93A",
"x c #70BC37",
"c c #70B73A",
"v c #72BC3C",
"b c #74C23D",
"n c #7BC63F",
"m c #74C83F",
"M c #7CC93E",
"N c #6AA742",
"B c #6BB541",
"V c #6DBC40",
"C c #75B443",
"Z c #74BC42",
"A c #7ABC46",
"S c #76B648",
"D c #72BA48",
"F c #76C343",
"G c #7BC644",
"H c #7CC943",
"J c #7BC548",
"K c #7EC94A",
"L c #81C944",
"P c #81C64D",
"I c #85CB4C",
"U c #8ACC4E",
"Y c #8BD24E",
"T c #91D54F",
"R c #89C754",
"E c #85CB51",
"W c #8BCD51",
"Q c #92CE59",
"! c #8DD252",
"~ c #8CD358",
"^ c #92D255",
"/ c #98D557",
"( c #98D954",
") c #92D45B",
"_ c #98D75D",
"` c #96DA59",
"' c #9ADC5C",
"] c #9EE15B",
"[ c #A3E25D",
"{ c #98D761",
"} c #9CE161",
"| c #A3E362",
/* pixels */
"klz'[[GkBp8555560e0$-=j0r585zlldii999uiiu55;OO#jid",
"Bll'[[Gkki58555tde0&<;ddi555llliii955titu558OO+i6d",
"zBl}][Jkzi55555uad0$*-aaa455klld6t595t5t655;.O@aye",
"lllzhhbGHzjkI'(P@Os'')%X#&=$dflbGJVzfU'}Ui00529id7",
"lBlrr7bMHzlzU[|R+ON[[{+Xo&&$jjdFnHZzcW[|Yi06550itd",
"BkzareGHKVlz![[RoON}[{+XX&&&dglFGHhzkW||^ddu559idi",
"GGFdrd999009kvvkq8rZZvq69jjimFFfiijzvcBci---%+&956",
"mHHdya1;;;95uiii00d7eeeeikzlHHJ055fxxi55-XoXXX+955",
"HHHfdi:=$45560iittiar77eykhfGHHi55fhhd58-OO.OO+295",
"9pp555565iddjdjZQ^K944ddd555daai66dlld60999111;;;;",
"+O :55ttifkllljE[[!;&$jld&;$999i7elllde70dd0589&;-",
"O+.5556ttjzlgrlK[[^$&3ljd&&$589paaBllfee0d77459&*-",
"iaa559dffda0dgzFUUH980jlzaka=&-<:;i00rjd0844660555",
"MMH555fhzi45dhhhzhfatdhzxHHJ-XXX+X:48rjd0$$3it6eee",
"GMH699fhza84dhxhxxhit0hhhHMK&O++o+:550jj0;=4it77ee",
"YY!0:4uiiiffdppkzczidf!IIxhZ9::--;;5909w9;440y7fdd",
"[[|u&;@..kMMaX+1zklllb|[]595kkki0i558-O.-itttydlll",
"|[|u&<OXoCMLs++9kgzllv[[[595kkzd0a659<oo-itt7t6llj",
"^QQu;<:22Bbbi<<9jffffz^!!555fdfidaiip2&&:it6dfdgff",
"**$455AnHzrrrjf0855td6$$$595555djdzxxzljd556llg0ee",
";&&455vGHlwergge55ttt6$=;595555argghgljg0556gljdee",
";;&555ZJGfe7dfre495iyt=*;566560adeglzjjjd660jjjade",
"rer55955467ee7e5&-9KLF555lzzVzz985$.X;arzHHF=$;jrB",
"77758555567d77r5--9HKA555lllzxzi95%o+2dezHGZ*&;lll",
"de06u55950d67ed0--9GLb556lklzzx955-+X;rrkGGZ;=;jgr",
"685'[]z55vGHbzl0X+:xhz595GKHHKH:..9jgi88azkd45;;=,",
"555'[[z55vHHbzxa.O-xxz98unHMHJH:..qll085ikhf555*&,",
"555'||v55FHHFxza.+:xxz556nGGHJH9X.wrd055iklf544$&;",
"llk;2:ZZFzdyyda0--9HHbX@Xi9iklfjrddlddeelJGFi00 .+",
"BBB%oOZMHzd0e6y5&&9HHZXXX858djldljjjgde7hHGFdri.oo",
"BzB#OODHHhdidia5;;pHHA.X 555ajlrjjjdfdddkLGFd00.O+",
"_'_i&<kvhbnvi%%;4:9zflw0d///:&&q9000670ajfffllr806",
"[[|i55ylzFLLaoO>:58r7ezlh|[|:oO;:55556diiitizzfied",
"[[[t55fBzFHHa+O&550aedzgz|||2OO:555585iytiiihzjyed",
"GAAfff000FHMZpq9490dgeeddIIPr0q0t09;;fvbh:4465576e",
"955lght58zHMbzka880jgd7e7zgllrleid1&*zHHz*&&&&$ett",
":55lhxu59vHGbzkd8q0ljdiidlzgggfetd5;$kGGk---&&10ti",
"czkzzh5;-axxGW^Ja0000i;<1dddfggdtt;&*kGHZkkp%O%ldk",
"HHKzlk-XX5ttU|[Qjjy451XOOte6dfgett4&$kGGLJGvOo%Bzk",
"MHHzzz-oO2iuU[[~jge459+oXiiajgdeid4$$aLGHMnZO.&kzk",
"kkBada-OO9rrFWWEKHZ;;:SCCczzllg66tBCZFHHnxvk-%;zhk",
"O..259%ooqlr8=&Z[[QXX:|[[LHHhgl655W||YHMbii0999zxz",
"oOX959&oOqlrq->S[[Q+o2|[[LGHhll645W[[TnHxia0550zhh",
"292adaaNNdrr00pA'(E<-u_/)CvFhlld06K^^Inmzt60880iaa",
"GLLnHH']|C&&jHMbjjllllzlk;$$lllljzi900rdd568drw.O.",
"LGLHHH`[[D,&knHxjrllllkzl&$&jllllli950lg0555rr0.o.",
"FFGFGG`']B:=kLLvdjdlzllzl;&=jljBBj088eadi556di0X+#",
"5:5klcitiiipvGGv$$4klzllldrdjgj;-&0jl0456dtttt0599",
"995kkBatyiiizMLB;$4ljzllld7edjf4-$0rj0580iitttt555",
"555klld06iitxMHC&&4llzzzlw0djgj8;$0jg06500yi6ii592"
};
